SplineFontDB: 1.0
FontName: THK2DJuly8
FullName: THK2DJuly8
FamilyName: TH K2D July8
Weight: Book
Copyright: Copyright (c) 2006 by Department of Intellectual Property (DIP), Ministry of Commerce and Software Industry Promotion Agency (Public Organization) (SIPA). All rights reserved.
Version: 1.1
ItalicAngle: 0
UnderlinePosition: -55
UnderlineWidth: 50
Ascent: 800
Descent: 200
Order2: 1
XUID: [1021 375 425136265 16399840]
FSType: 0
OS2Version: 3
OS2_WeightWidthSlopeOnly: 0
OS2_UseTypoMetrics: 1
CreationTime: 1158666060
ModificationTime: 1174405770
PfmFamily: 17
TTFWeight: 400
TTFWidth: 5
LineGap: 60
VLineGap: 0
Panose: 2 0 5 6 0 0 0 2 0 4
OS2TypoAscent: 0
OS2TypoAOffset: 1
OS2TypoDescent: 0
OS2TypoDOffset: 1
OS2TypoLinegap: 0
OS2WinAscent: -21
OS2WinAOffset: 1
OS2WinDescent: -178
OS2WinDOffset: 1
HheadAscent: -21
HheadAOffset: 1
HheadDescent: 178
HheadDOffset: 1
OS2SubXSize: 700
OS2SubYSize: 650
OS2SubXOff: 0
OS2SubYOff: 140
OS2SupXSize: 700
OS2SupYSize: 650
OS2SupXOff: 0
OS2SupYOff: 477
OS2StrikeYSize: 50
OS2StrikeYPos: 250
OS2FamilyClass: 773
OS2Vendor: 'K2D '
ScriptLang: 2
 1 latn 1 dflt 
 0 
ChainSub: coverage 0 0 'liga' 0 0 0 1
 1 0 1
  Coverage: 64 uni0E48.alt2 uni0E49.alt2 uni0E4A.alt2 uni0E4B.alt2 uni0E4C.alt2
  FCoverage: 7 uni0E33
 1
  SeqLookup: 0 'L027'
EndFPST
ChainSub: coverage 0 0 'liga' 0 0 0 1
 1 1 0
  Coverage: 7 uni0E47
  BCoverage: 12 uni0E2C.alt1
 1
  SeqLookup: 0 'L026'
EndFPST
ChainSub: coverage 0 0 'liga' 0 0 0 1
 1 0 1
  Coverage: 7 uni0E2C
  FCoverage: 39 uni0E34 uni0E35 uni0E36 uni0E37 uni0E47
 1
  SeqLookup: 0 'L026'
EndFPST
ChainSub: coverage 0 0 'liga' 0 0 0 1
 1 0 1
  Coverage: 15 uni0E0E uni0E0F
  FCoverage: 38 uni0E38.alt1 uni0E39.alt1 uni0E3A.alt1
 1
  SeqLookup: 0 'L026'
EndFPST
ChainSub: coverage 0 0 'liga' 0 0 0 1
 1 1 0
  Coverage: 5 a b c
  BCoverage: 23 uni0E1B uni0E1D uni0E1F
 1
  SeqLookup: 0 'L026'
EndFPST
ChainSub: coverage 0 0 'liga' 0 0 0 1
 1 0 1
  Coverage: 5 a b c

StartChar: .notdef
Encoding: 65536 -1 0
Width: 500
Flags: W
Fore
402 35 m 1,0,-1
 402 660 l 1,1,-1
 97 660 l 1,2,-1
 97 35 l 1,3,-1
 402 35 l 1,0,-1
436 0 m 1,4,-1
 63 0 l 1,5,-1
 63 695 l 1,6,-1
 436 695 l 1,7,-1
 436 0 l 1,4,-1
EndSplineSet
EndChar
StartChar: numbersign
Encoding: 35 35 4
Width: 413
Flags: W
Fore
272 451 m 2,0,1
 276 485 276 485 310 481 c 1,2,-1
 291 322 l 1,3,-1
 382 322 l 1,4,5
 382 290 382 290 350 290 c 2,6,-1
 287 290 l 1,7,-1
 274 179 l 1,8,-1
 366 179 l 1,9,10
 366 147 366 147 334 147 c 2,11,-1
 270 147 l 1,12,-1
 256 23 l 2,13,14
 251 -11 251 -11 218 -6 c 1,15,-1
 236 147 l 1,16,-1
 154 147 l 1,17,-1
 140 23 l 2,18,19
 135 -11 135 -11 102 -6 c 1,20,-1
 120 147 l 1,21,-1
 31 147 l 1,22,23
 31 179 31 179 63 179 c 2,24,-1
 124 179 l 1,25,-1
 137 290 l 1,26,-1
 47 290 l 1,27,28
 47 322 47 322 79 322 c 2,29,-1
 141 322 l 1,30,-1
 156 451 l 2,31,32
 160 485 160 485 194 481 c 1,33,-1
 175 322 l 1,34,-1
 257 322 l 1,35,-1
 272 451 l 2,0,1
158 179 m 1,36,-1
 240 179 l 1,37,-1
 253 290 l 1,38,-1
 171 290 l 1,39,-1
 158 179 l 1,36,-1
EndSplineSet
EndChar
StartChar: dollar
Encoding: 36 36 5
Width: 453
Flags: W
Fore
78 150 m 2,0,1
 78 127 78 127 88 107 c 128,-1,2
 98 87 98 87 115.5 71 c 128,-1,3
 133 55 133 55 157 44.5 c 128,-1,4
 181 34 181 34 209 31 c 1,5,-1
 209 229 l 1,6,7
 174 236 174 236 147 244.5 c 128,-1,8
 120 253 120 253 101.5 265.5 c 128,-1,9
 83 278 83 278 72.5 295.5 c 128,-1,10
 62 313 62 313 60 339 c 0,11,12
 57 365 57 365 66.5 389 c 128,-1,13
 76 413 76 413 95.5 432.5 c 128,-1,14
 115 452 115 452 144 464.5 c 128,-1,15
 173 477 173 477 209 480 c 1,16,-1
 209 497 l 2,17,18
 209 531 209 531 243 531 c 1,19,-1
 243 480 l 1,20,21
 306 475 306 475 343.5 439.5 c 128,-1,22
 381 404 381 404 389 353 c 0,23,24
 393 328 393 328 379 317 c 128,-1,25
 365 306 365 306 350 306 c 1,26,27
 351 311 351 311 351 316 c 128,-1,28
 351 326 l 0,29,30
 351 371 351 371 322.5 404.5 c 128,-1,31
 294 438 294 438 243 444 c 1,32,-1
 243 260 l 1,33,34
 279 253 279 253 309 246 c 128,-1,35
 339 239 339 239 361.5 227 c 128,-1,36
 384 215 384 215 397.5 197 c 128,-1,37
 411 179 411 179 413 151 c 0,38,39
 415 121 415 121 402 94 c 128,-1,40
 389 67 389 67 365.5 46 c 128,-1,41
 342 25 342 25 310.5 11.5 c 128,-1,42
 279 -2 279 -2 243 -5 c 1,43,-1
 243 -22 l 2,44,45
 243 -56 243 -56 209 -56 c 1,46,-1
 209 -5 l 1,47,48
 177 -3 177 -3 149 7.5 c 128,-1,49
 121 18 121 18 99 35 c 128,-1,50
 77 52 77 52 62 74 c 128,-1,51
 47 96 47 96 41 122 c 0,52,53
 36 148 36 148 49.5 159 c 128,-1,54
 63 170 63 170 79 170 c 1,55,56
 78 165 78 165 78 160 c 2,57,-1
 78 150 l 2,0,1
373 148 m 0,58,59
 370 180 370 180 333.5 196 c 128,-1,60
 297 212 297 212 243 223 c 1,61,-1
 243 31 l 1,62,63
 270 34 270 34 294.5 44.5 c 128,-1,64
 319 55 319 55 336.5 71 c 128,-1,65
 354 87 354 87 364 107 c 128,-1,66
 374 127 374 127 373 148 c 0,58,59
100 343 m 0,67,68
 102 310 102 310 128.5 294.5 c 128,-1,69
 155 279 155 279 209 267 c 1,70,-1
 209 444 l 1,71,72
 183 441 183 441 162 431.5 c 128,-1,73
 141 422 141 422 126.5 408.5 c 128,-1,74
 112 395 112 395 105 378 c 128,-1,75
 98 361 98 361 100 343 c 0,67,68
EndSplineSet
EndChar
StartChar: percent
Encoding: 37 37 6
Width: 567
Flags: W
Fore
242 283 m 2,0,1
 242 267 242 267 234.5 252.5 c 128,-1,2
 227 238 227 238 213.5 227.5 c 128,-1,3
 200 217 200 217 182 211 c 128,-1,4
 164 205 164 205 143 205 c 256,5,6
 122 205 122 205 104 211 c 128,-1,7
 86 217 86 217 72.5 227.5 c 128,-1,8
 59 238 59 238 51 252.5 c 128,-1,9
 43 267 43 267 43 283 c 2,10,-1
 43 400 l 2,11,12
 43 416 43 416 51 430.5 c 128,-1,13
 59 445 59 445 72.5 455.5 c 128,-1,14
 86 466 86 466 104 472 c 128,-1,15
 122 478 122 478 143 478 c 256,16,17
 164 478 164 478 182 472 c 128,-1,18
 200 466 200 466 213.5 455.5 c 128,-1,19
 227 445 227 445 234.5 430.5 c 128,-1,20
 242 416 242 416 242 400 c 2,21,-1
 242 283 l 2,0,1
76 283 m 2,22,23
 76 263 76 263 95.5 248.5 c 128,-1,24
 115 234 115 234 143 234 c 0,25,26
 170 234 170 234 189.5 248.5 c 128,-1,27
 209 263 209 263 209 283 c 2,28,-1
 209 400 l 2,29,30
 209 420 209 420 189.5 434.5 c 128,-1,31
 170 449 170 449 143 449 c 0,32,33
 115 449 115 449 95.5 434.5 c 128,-1,34
 76 420 76 420 76 400 c 2,35,-1
 76 283 l 2,22,23
524 75 m 2,36,37
 524 59 524 59 516.5 44.5 c 128,-1,38
 509 30 509 30 495.5 19.5 c 128,-1,39
 482 9 482 9 464 3 c 128,-1,40
 446 -3 446 -3 425 -3 c 256,41,42
 404 -3 404 -3 386 3 c 128,-1,43
 368 9 368 9 354.5 19.5 c 128,-1,44
 341 30 341 30 333 44.5 c 128,-1,45
 325 59 325 59 325 75 c 2,46,-1
 325 192 l 2,47,48
 325 208 325 208 333 222.5 c 128,-1,49
 341 237 341 237 354.5 247.5 c 128,-1,50
 368 258 368 258 386 264 c 128,-1,51
 404 270 404 270 425 270 c 256,52,53
 446 270 446 270 464 264 c 128,-1,54
 482 258 482 258 495.5 247.5 c 128,-1,55
 509 237 509 237 516.5 222.5 c 128,-1,56
 524 208 524 208 524 192 c 2,57,-1
 524 75 l 2,36,37
358 75 m 2,58,59
 358 55 358 55 377.5 40.5 c 128,-1,60
 397 26 397 26 425 26 c 0,61,62
 452 26 452 26 471.5 40.5 c 128,-1,63
 491 55 491 55 491 75 c 2,64,-1
 491 192 l 2,65,66
 491 212 491 212 471.5 226.5 c 128,-1,67
 452 241 452 241 425 241 c 0,68,69
 397 241 397 241 377.5 226.5 c 128,-1,70
 358 212 358 212 358 192 c 2,71,-1
 358 75 l 2,58,59
385 479 m 2,72,73
 400 511 400 511 433 495 c 1,74,-1
 182 -4 l 2,75,76
 166 -37 166 -37 134 -20 c 1,77,-1
 385 479 l 2,72,73
EndSplineSet
EndChar
StartChar: ampersand
Encoding: 38 38 7
Width: 430
Flags: W
Fore
326 51 m 1,0,1
 289 22 289 22 248 8 c 128,-1,2
 207 -6 207 -6 167 -6 c 0,3,4
 137 -6 137 -6 111 4 c 128,-1,5
 85 14 85 14 65.5 31.5 c 128,-1,6
 46 49 46 49 34.5 73 c 128,-1,7
 23 97 23 97 23 126 c 0,8,9
 23 179 23 179 51.5 214 c 128,-1,10
 80 249 80 249 121 269 c 1,11,12
 80 322 80 322 80 368 c 0,13,14
 80 390 80 390 88 410.5 c 128,-1,15
 96 431 96 431 111 446.5 c 128,-1,16
 126 462 126 462 148 471.5 c 128,-1,17
 170 481 170 481 199 481 c 0,18,19
 243 481 243 481 271 456 c 128,-1,20
 299 431 299 431 299 387 c 0,21,22
 299 347 299 347 267 313.5 c 128,-1,23
 235 280 235 280 180 255 c 1,24,25
 222 207 222 207 259.5 166.5 c 128,-1,26
 297 126 297 126 323 103 c 1,27,28
 343 125 343 125 355.5 149.5 c 128,-1,29
 368 174 368 174 368 217 c 1,30,31
 402 217 402 217 402 180 c 0,32,33
 402 154 402 154 386.5 128.5 c 128,-1,34
 371 103 371 103 350 80 c 1,35,36
 367 62 367 62 387 41.5 c 128,-1,37
 407 21 407 21 424 7 c 1,38,39
 413 -4 413 -4 399 -5 c 128,-1,40
 385 -6 385 -6 372 5 c 2,41,-1
 326 51 l 1,0,1
260 383 m 0,42,43
 260 407 260 407 245 426.5 c 128,-1,44
 230 446 230 446 195 446 c 0,45,46
 159 446 159 446 139.5 423.5 c 128,-1,47
 120 401 120 401 120 372 c 0,48,49
 120 344 120 344 132 324 c 128,-1,50
 144 304 144 304 157 287 c 2,51,-1
 160 282 l 1,52,53
 203 303 203 303 231.5 325.5 c 128,-1,54
 260 348 260 348 260 383 c 0,42,43
175 30 m 0,55,56
 213 30 213 30 244.5 43 c 128,-1,57
 276 56 276 56 299 77 c 1,58,59
 290 86 290 86 273.5 103 c 128,-1,60
 257 120 257 120 236.5 141.5 c 128,-1,61
 216 163 216 163 192 189 c 128,-1,62
 168 215 168 215 144 242 c 1,63,64
 132 236 132 236 118 226 c 128,-1,65
 104 216 104 216 91.5 202.5 c 128,-1,66
 79 189 79 189 71 171.5 c 128,-1,67
 63 154 63 154 63 131 c 0,68,69
 63 83 63 83 95 56.5 c 128,-1,70
 127 30 127 30 175 30 c 0,55,56
EndSplineSet
EndChar
StartChar: quotesingle
Encoding: 39 39 8
Width: 146
Flags: W
Fore
50 433 m 2,0,1
 48 458 48 458 61.5 469.5 c 128,-1,2
 75 481 75 481 98 481 c 1,3,-1
 92 375 l 2,4,5
 92 361 92 361 82 349 c 128,-1,6
 72 337 72 337 56 337 c 1,7,-1
 50 433 l 2,0,1
EndSplineSet
EndChar
StartChar: parenleft
Encoding: 40 40 9
Width: 191
Flags: W
Fore
47 204 m 256,0,1
 47 253 47 253 55 293.5 c 128,-1,2
 63 334 63 334 76.5 368 c 128,-1,3
 90 402 90 402 107.5 430.5 c 128,-1,4
 125 459 125 459 144 483 c 0,5,6
 152 494 152 494 163.5 493.5 c 128,-1,7
 175 493 175 493 183 482 c 1,8,9
 138 427 138 427 112.5 360 c 128,-1,10
 87 293 87 293 87 204 c 256,11,12
 87 115 87 115 112.5 48 c 128,-1,13
 138 -19 138 -19 183 -74 c 1,14,15
 175 -85 175 -85 163.5 -85.5 c 128,-1,16
 152 -86 152 -86 144 -75 c 0,17,18
 125 -51 125 -51 107.5 -22.5 c 128,-1,19
 90 6 90 6 76.5 40 c 128,-1,20
 63 74 63 74 55 114.5 c 128,-1,21
 47 155 47 155 47 204 c 256,0,1
EndSplineSet
EndChar
StartChar: asterisk
Encoding: 42 42 11
Width: 288
Flags: W
Fore
162 362 m 1,0,1
 178 342 178 342 194 320.5 c 128,-1,2
 210 299 210 299 226 279 c 1,3,-1
 187 258 l 1,4,-1
 141 352 l 1,5,6
 128 329 128 329 116.5 305 c 128,-1,7
 105 281 105 281 92 258 c 1,8,-1
 59 279 l 1,9,-1
 123 365 l 1,10,11
 97 363 97 363 71.5 360.5 c 128,-1,12
 46 358 46 358 20 356 c 1,13,-1
 20 394 l 1,14,-1
 123 387 l 1,15,16
 107 408 107 408 90.5 430 c 128,-1,17
 74 452 74 452 59 472 c 1,18,-1
 97 494 l 1,19,-1
 144 402 l 1,20,21
 155 424 155 424 166.5 448 c 128,-1,22
 178 472 178 472 189 494 c 1,23,-1
 226 473 l 1,24,-1
 162 386 l 1,25,26
 214 390 l 128,-1,27
 266 394 l 1,28,-1
 266 356 l 1,29,-1
 162 362 l 1,0,1
EndSplineSet
EndChar
StartChar: plus
Encoding: 43 43 12
Width: 400
Flags: W
Fore
181 181 m 1,0,-1
 30 181 l 1,1,2
 30 215 30 215 64 215 c 2,3,-1
 181 215 l 1,4,-1
 181 330 l 2,5,6
 181 368 181 368 219 368 c 1,7,-1
 219 215 l 1,8,-1
 370 215 l 1,9,10
 370 181 370 181 336 181 c 2,11,-1
 219 181 l 1,12,-1
 219 66 l 2,13,14
 219 28 219 28 181 28 c 1,15,-1
 181 181 l 1,0,-1
EndSplineSet
EndChar
StartChar: comma
Encoding: 44 44 13
Width: 128
Flags: W
Fore
28 31 m 256,0,1
 28 47 28 47 38.5 58 c 128,-1,2
 49 69 49 69 65 69 c 256,3,4
 81 69 81 69 92 58 c 128,-1,5
 103 47 103 47 103 31 c 0,6,7
 103 1 103 1 98.5 -20 c 128,-1,8
 94 -41 94 -41 86.5 -55.5 c 128,-1,9
 79 -70 79 -70 70 -79.5 c 128,-1,10
 61 -89 61 -89 52 -96 c 0,11,12
 48 -99 48 -99 42.5 -99 c 128,-1,13
 37 -99 37 -99 34 -96 c 1,14,15
 54 -78 54 -78 65.5 -55.5 c 128,-1,16
 77 -33 77 -33 77 -4 c 1,17,18
 73 -6 73 -6 65 -6 c 0,19,20
 49 -6 49 -6 38.5 4.5 c 128,-1,21
 28 15 28 15 28 31 c 256,0,1
EndSplineSet
EndChar
StartChar: hyphen
Encoding: 45 45 14
Width: 235
Flags: W
Fore
30 180 m 1,0,1
 30 216 30 216 64 216 c 2,2,-1
 205 216 l 1,3,4
 205 180 205 180 171 180 c 2,5,-1
 30 180 l 1,0,1
EndSplineSet
EndChar
StartChar: period
Encoding: 46 46 15
Width: 131
Flags: W
Fore
28 31 m 256,0,1
 28 47 28 47 38.5 58 c 128,-1,2
 49 69 49 69 65 69 c 256,3,4
 81 69 81 69 92 58 c 128,-1,5
 103 47 103 47 103 31 c 256,6,7
 103 15 103 15 92 4.5 c 128,-1,8
 81 -6 81 -6 65 -6 c 256,9,10
 49 -6 49 -6 38.5 4.5 c 128,-1,11
 28 15 28 15 28 31 c 256,0,1
EndSplineSet
EndChar
StartChar: slash
Encoding: 47 47 16
Width: 279
Flags: W
Fore
241 479 m 2,0,1
 256 511 256 511 289 495 c 1,2,-1
 38 -4 l 2,3,4
 22 -37 22 -37 -10 -20 c 1,5,-1
 241 479 l 2,0,1
EndSplineSet
EndChar
StartChar: zero
Encoding: 48 48 17
Width: 460
Flags: W
Fore
404 129 m 2,0,1
 404 101 404 101 390.5 76.5 c 128,-1,2
 377 52 377 52 353 33.5 c 128,-1,3
 329 15 329 15 297.5 4.5 c 128,-1,4
 266 -6 266 -6 230 -6 c 256,5,6
 194 -6 194 -6 162.5 4.5 c 128,-1,7
 131 15 131 15 107 33.5 c 128,-1,8
 83 52 83 52 69.5 76.5 c 128,-1,9
 56 101 56 101 56 129 c 2,10,-1
 56 346 l 2,11,12
 56 374 56 374 69.5 398.5 c 128,-1,13
 83 423 83 423 107 441.5 c 128,-1,14
 131 460 131 460 162.5 470.5 c 128,-1,15
 194 481 194 481 230 481 c 256,16,17
 266 481 266 481 297.5 470.5 c 128,-1,18
 329 460 329 460 353 441.5 c 128,-1,19
 377 423 377 423 390.5 398.5 c 128,-1,20
 404 374 404 374 404 346 c 2,21,-1
 404 129 l 2,0,1
96 129 m 2,22,23
 96 108 96 108 106.5 90 c 128,-1,24
 117 72 117 72 135 58.5 c 128,-1,25
 153 45 153 45 177.5 37.5 c 128,-1,26
 202 30 202 30 230 30 c 256,27,28
 258 30 258 30 282.5 37.5 c 128,-1,29
 307 45 307 45 325 58.5 c 128,-1,30
 343 72 343 72 353.5 90 c 128,-1,31
 364 108 364 108 364 129 c 2,32,-1
 364 346 l 2,33,34
 364 367 364 367 353.5 385 c 128,-1,35
 343 403 343 403 325 416.5 c 128,-1,36
 307 430 307 430 282.5 437.5 c 128,-1,37
 258 445 258 445 230 445 c 256,38,39
 202 445 202 445 177.5 437.5 c 128,-1,40
 153 430 153 430 135 416.5 c 128,-1,41
 117 403 117 403 106.5 385 c 128,-1,42
 96 367 96 367 96 346 c 2,43,-1
 96 129 l 2,22,23
EndSplineSet
EndChar
StartChar: one
Encoding: 49 49 18
Width: 460
Flags: W
Fore
251 475 m 1,0,1
 259 475 259 475 264.5 469.5 c 128,-1,2
 270 464 270 464 270 456 c 2,3,-1
 270 34 l 2,4,5
 270 -6 270 -6 230 -6 c 1,6,-1
 230 439 l 1,7,-1
 186 439 l 2,8,9
 150 439 150 439 150 475 c 1,10,-1
 251 475 l 1,11,-1
 251 475 l 1,0,1
EndSplineSet
EndChar
StartChar: two
Encoding: 50 50 19
Width: 460
Flags: W
Fore
365 36 m 2,0,1
 383 36 383 36 393.5 27 c 128,-1,2
 404 18 404 18 404 0 c 1,3,-1
 76 0 l 2,4,5
 69 0 69 0 63.5 4 c 128,-1,6
 58 8 58 8 58 16 c 0,7,8
 58 75 58 75 98.5 125.5 c 128,-1,9
 139 176 139 176 216 212 c 0,10,11
 234 221 234 221 260 231.5 c 128,-1,12
 286 242 286 242 309 257 c 128,-1,13
 332 272 332 272 348.5 291.5 c 128,-1,14
 365 311 365 311 365 337 c 0,15,16
 365 359 365 359 354.5 378.5 c 128,-1,17
 344 398 344 398 326 413 c 128,-1,18
 308 428 308 428 283.5 436.5 c 128,-1,19
 259 445 259 445 231 445 c 256,20,21
 203 445 203 445 178.5 436.5 c 128,-1,22
 154 428 154 428 135.5 413 c 128,-1,23
 117 398 117 398 106.5 378.5 c 128,-1,24
 96 359 96 359 96 337 c 0,25,26
 96 332 96 332 96 328 c 128,-1,27
 96 324 96 324 98 317 c 1,28,29
 81 317 81 317 68.5 329 c 128,-1,30
 56 341 56 341 59 357 c 0,31,32
 64 386 64 386 80.5 409 c 128,-1,33
 97 432 97 432 121 448 c 128,-1,34
 145 464 145 464 173.5 472.5 c 128,-1,35
 202 481 202 481 231 481 c 0,36,37
 261 481 261 481 291.5 471.5 c 128,-1,38
 322 462 322 462 347 443.5 c 128,-1,39
 372 425 372 425 388 398 c 128,-1,40
 404 371 404 371 404 337 c 0,41,42
 404 307 404 307 388.5 283.5 c 128,-1,43
 373 260 373 260 348.5 241.5 c 128,-1,44
 324 223 324 223 293.5 208 c 128,-1,45
 263 193 263 193 232 179 c 0,46,47
 172 151 172 151 139 114.5 c 128,-1,48
 106 78 106 78 99 36 c 1,49,-1
 365 36 l 2,0,1
EndSplineSet
EndChar
StartChar: three
Encoding: 51 51 20
Width: 460
Flags: W
Fore
85 381 m 0,0,1
 88 399 88 399 99.5 417 c 128,-1,2
 111 435 111 435 130 449 c 128,-1,3
 149 463 149 463 174.5 472 c 128,-1,4
 200 481 200 481 230 481 c 256,5,6
 260 481 260 481 287 471.5 c 128,-1,7
 314 462 314 462 334 445.5 c 128,-1,8
 354 429 354 429 365.5 407.5 c 128,-1,9
 377 386 377 386 377 361 c 0,10,11
 377 329 377 329 358.5 303 c 128,-1,12
 340 277 340 277 310 260 c 1,13,14
 352 243 352 243 378 209.5 c 128,-1,15
 404 176 404 176 404 135 c 0,16,17
 404 106 404 106 390.5 80 c 128,-1,18
 377 54 377 54 353 35 c 128,-1,19
 329 16 329 16 297.5 5 c 128,-1,20
 266 -6 266 -6 230 -6 c 256,21,22
 194 -6 194 -6 163.5 4.5 c 128,-1,23
 133 15 133 15 110.5 32.5 c 128,-1,24
 88 50 88 50 74.5 71.5 c 128,-1,25
 61 93 61 93 59 115 c 0,26,27
 57 134 57 134 66 145 c 128,-1,28
 75 156 75 156 98 155 c 1,29,30
 97 150 97 150 96.5 145 c 128,-1,31
 96 140 96 140 96 135 c 0,32,33
 96 113 96 113 106.5 94 c 128,-1,34
 117 75 117 75 135 60.5 c 128,-1,35
 153 46 153 46 177.5 38 c 128,-1,36
 202 30 202 30 230 30 c 256,37,38
 258 30 258 30 282.5 38 c 128,-1,39
 307 46 307 46 325 60.5 c 128,-1,40
 343 75 343 75 353.5 94 c 128,-1,41
 364 113 364 113 364 135 c 256,42,43
 364 157 364 157 353.5 176 c 128,-1,44
 343 195 343 195 325 209 c 128,-1,45
 307 223 307 223 282.5 231.5 c 128,-1,46
 258 240 258 240 230 240 c 0,47,48
 222 240 222 240 216 245.5 c 128,-1,49
 210 251 210 251 210 259 c 256,50,51
 210 267 210 267 216 272 c 128,-1,52
 222 277 222 277 230 277 c 0,53,54
 252 277 252 277 271.5 283.5 c 128,-1,55
 291 290 291 290 305.5 301.5 c 128,-1,56
 320 313 320 313 328.5 328.5 c 128,-1,57
 337 344 337 344 337 361 c 256,58,59
 337 378 337 378 328.5 393.5 c 128,-1,60
 320 409 320 409 305.5 420.5 c 128,-1,61
 291 432 291 432 271.5 438.5 c 128,-1,62
 252 445 252 445 230 445 c 256,63,64
 208 445 208 445 188.5 438.5 c 128,-1,65
 169 432 169 432 154.5 420.5 c 128,-1,66
 140 409 140 409 131.5 393.5 c 128,-1,67
 123 378 123 378 123 361 c 0,68,69
 123 358 123 358 123 352 c 128,-1,70
 123 346 123 346 125 341 c 1,71,72
 108 339 108 339 94.5 350 c 128,-1,73
 81 361 81 361 85 381 c 0,0,1
EndSplineSet
EndChar
StartChar: four
Encoding: 52 52 21
Width: 460
Flags: W
Fore
431 155 m 1,0,1
 431 119 431 119 395 119 c 2,2,-1
 329 119 l 1,3,-1
 332 118 l 1,4,-1
 350 116 l 1,5,-1
 350 34 l 2,6,7
 350 -6 350 -6 310 -6 c 1,8,-1
 310 119 l 1,9,-1
 54 119 l 2,10,11
 42 119 42 119 36.5 128.5 c 128,-1,12
 31 138 31 138 39 149 c 2,13,-1
 316 475 l 2,14,15
 325 485 325 485 337 480.5 c 128,-1,16
 349 476 349 476 350 462 c 2,17,-1
 350 155 l 1,18,-1
 431 155 l 1,0,1
310 155 m 1,19,-1
 310 406 l 1,20,-1
 326 427 l 1,21,-1
 325 430 l 1,22,-1
 92 155 l 1,23,-1
 310 155 l 1,19,-1
EndSplineSet
EndChar
StartChar: five
Encoding: 53 53 22
Width: 460
Flags: W
Fore
149 327 m 1,0,1
 143 323 143 323 139 320 c 128,-1,2
 135 317 135 317 130 313 c 1,3,-1
 133 312 l 1,4,5
 177 342 177 342 230 342 c 0,6,7
 266 342 266 342 297.5 328.5 c 128,-1,8
 329 315 329 315 353 291 c 128,-1,9
 377 267 377 267 390.5 235.5 c 128,-1,10
 404 204 404 204 404 168 c 256,11,12
 404 132 404 132 390.5 100.5 c 128,-1,13
 377 69 377 69 353 45 c 128,-1,14
 329 21 329 21 297.5 7.5 c 128,-1,15
 266 -6 266 -6 230 -6 c 256,16,17
 194 -6 194 -6 164 6.5 c 128,-1,18
 134 19 134 19 111.5 40.5 c 128,-1,19
 89 62 89 62 75.5 90 c 128,-1,20
 62 118 62 118 59 148 c 0,21,22
 57 167 57 167 66 178 c 128,-1,23
 75 189 75 189 98 188 c 1,24,25
 97 183 97 183 96.5 178 c 128,-1,26
 96 173 96 173 96 168 c 0,27,28
 96 139 96 139 106.5 114 c 128,-1,29
 117 89 117 89 135 70.5 c 128,-1,30
 153 52 153 52 177.5 41 c 128,-1,31
 202 30 202 30 230 30 c 256,32,33
 258 30 258 30 282.5 41 c 128,-1,34
 307 52 307 52 325 70.5 c 128,-1,35
 343 89 343 89 353.5 114 c 128,-1,36
 364 139 364 139 364 168 c 0,37,38
 364 196 364 196 353.5 221.5 c 128,-1,39
 343 247 343 247 325 265.5 c 128,-1,40
 307 284 307 284 282.5 295 c 128,-1,41
 258 306 258 306 230 306 c 0,42,43
 198 306 198 306 171.5 292 c 128,-1,44
 145 278 145 278 126 255 c 0,45,46
 120 249 120 249 113 248.5 c 128,-1,47
 106 248 106 248 100.5 251 c 128,-1,48
 95 254 95 254 92 260.5 c 128,-1,49
 89 267 89 267 92 275 c 2,50,-1
 154 460 l 2,51,52
 157 475 157 475 173 475 c 2,53,-1
 372 475 l 1,54,55
 372 439 372 439 336 439 c 2,56,-1
 186 439 l 1,57,58
 177 412 177 412 169 389 c 0,59,60
 162 369 162 369 156.5 351 c 128,-1,61
 151 333 151 333 149 327 c 1,0,1
EndSplineSet
EndChar
StartChar: six
Encoding: 54 54 23
Width: 460
Flags: W
Fore
182 335 m 1,0,1
 193 338 193 338 205.5 340 c 128,-1,2
 218 342 218 342 230 342 c 0,3,4
 266 342 266 342 297.5 328.5 c 128,-1,5
 329 315 329 315 353 291 c 128,-1,6
 377 267 377 267 390.5 235.5 c 128,-1,7
 404 204 404 204 404 168 c 256,8,9
 404 132 404 132 390.5 100.5 c 128,-1,10
 377 69 377 69 353 45 c 128,-1,11
 329 21 329 21 297.5 7.5 c 128,-1,12
 266 -6 266 -6 230 -6 c 256,13,14
 194 -6 194 -6 162.5 7.5 c 128,-1,15
 131 21 131 21 107 45 c 128,-1,16
 83 69 83 69 69.5 100.5 c 128,-1,17
 56 132 56 132 56 168 c 0,18,19
 56 205 56 205 71 236.5 c 128,-1,20
 86 268 86 268 109 293 c 2,21,-1
 272 468 l 2,22,23
 296 494 296 494 323 470 c 1,24,-1
 206 344 l 1,25,26
 191 341 191 341 179 337 c 1,27,-1
 182 335 l 1,0,1
364 168 m 0,28,29
 364 196 364 196 353.5 221.5 c 128,-1,30
 343 247 343 247 325 265.5 c 128,-1,31
 307 284 307 284 282.5 295 c 128,-1,32
 258 306 258 306 230 306 c 256,33,34
 202 306 202 306 177.5 295 c 128,-1,35
 153 284 153 284 135 265.5 c 128,-1,36
 117 247 117 247 106.5 221.5 c 128,-1,37
 96 196 96 196 96 168 c 0,38,39
 96 139 96 139 106.5 114 c 128,-1,40
 117 89 117 89 135 70.5 c 128,-1,41
 153 52 153 52 177.5 41 c 128,-1,42
 202 30 202 30 230 30 c 256,43,44
 258 30 258 30 282.5 41 c 128,-1,45
 307 52 307 52 325 70.5 c 128,-1,46
 343 89 343 89 353.5 114 c 128,-1,47
 364 139 364 139 364 168 c 0,28,29
EndSplineSet
EndChar
StartChar: seven
Encoding: 55 55 24
Width: 460
Flags: W
Fore
362 439 m 1,0,-1
 99 439 l 2,1,2
 63 439 63 439 63 475 c 1,3,-1
 390 475 l 2,4,5
 400 475 400 475 406.5 466 c 128,-1,6
 413 457 413 457 408 446 c 2,7,-1
 186 14 l 2,8,9
 170 -17 170 -17 137 0 c 1,10,-1
 362 439 l 1,0,-1
EndSplineSet
EndChar
StartChar: eight
Encoding: 56 56 25
Width: 460
Flags: W
Fore
83 361 m 0,0,1
 83 386 83 386 94.5 407.5 c 128,-1,2
 106 429 106 429 126 445.5 c 128,-1,3
 146 462 146 462 173 471.5 c 128,-1,4
 200 481 200 481 230 481 c 256,5,6
 260 481 260 481 287 471.5 c 128,-1,7
 314 462 314 462 334 445.5 c 128,-1,8
 354 429 354 429 365.5 407.5 c 128,-1,9
 377 386 377 386 377 361 c 0,10,11
 377 329 377 329 358.5 303 c 128,-1,12
 340 277 340 277 310 260 c 1,13,14
 352 243 352 243 378 209.5 c 128,-1,15
 404 176 404 176 404 135 c 0,16,17
 404 106 404 106 390.5 80 c 128,-1,18
 377 54 377 54 353 35 c 128,-1,19
 329 16 329 16 297.5 5 c 128,-1,20
 266 -6 266 -6 230 -6 c 256,21,22
 194 -6 194 -6 162.5 5 c 128,-1,23
 131 16 131 16 107 35 c 128,-1,24
 83 54 83 54 69.5 80 c 128,-1,25
 56 106 56 106 56 135 c 0,26,27
 56 176 56 176 82 209.5 c 128,-1,28
 108 243 108 243 150 260 c 1,29,30
 119 277 119 277 101 303 c 128,-1,31
 83 329 83 329 83 361 c 0,0,1
96 135 m 256,32,33
 96 113 96 113 106.5 94 c 128,-1,34
 117 75 117 75 135 60.5 c 128,-1,35
 153 46 153 46 177.5 38 c 128,-1,36
 202 30 202 30 230 30 c 256,37,38
 258 30 258 30 282.5 38 c 128,-1,39
 307 46 307 46 325 60.5 c 128,-1,40
 343 75 343 75 353.5 94 c 128,-1,41
 364 113 364 113 364 135 c 256,42,43
 364 157 364 157 353.5 176 c 128,-1,44
 343 195 343 195 325 209 c 128,-1,45
 307 223 307 223 282.5 231.5 c 128,-1,46
 258 240 258 240 230 240 c 256,47,48
 202 240 202 240 177.5 231.5 c 128,-1,49
 153 223 153 223 135 209 c 128,-1,50
 117 195 117 195 106.5 176 c 128,-1,51
 96 157 96 157 96 135 c 256,32,33
123 361 m 256,52,53
 123 344 123 344 131.5 328.5 c 128,-1,54
 140 313 140 313 154.5 301.5 c 128,-1,55
 169 290 169 290 188.5 283.5 c 128,-1,56
 208 277 208 277 230 277 c 256,57,58
 252 277 252 277 271.5 283.5 c 128,-1,59
 291 290 291 290 305.5 301.5 c 128,-1,60
 320 313 320 313 328.5 328.5 c 128,-1,61
 337 344 337 344 337 361 c 256,62,63
 337 378 337 378 328.5 393.5 c 128,-1,64
 320 409 320 409 305.5 420.5 c 128,-1,65
 291 432 291 432 271.5 438.5 c 128,-1,66
 252 445 252 445 230 445 c 256,67,68
 208 445 208 445 188.5 438.5 c 128,-1,69
 169 432 169 432 154.5 420.5 c 128,-1,70
 140 409 140 409 131.5 393.5 c 128,-1,71
 123 378 123 378 123 361 c 256,52,53
EndSplineSet
EndChar
StartChar: nine
Encoding: 57 57 26
Width: 460
Flags: W
Fore
278 140 m 1,0,1
 267 137 267 137 254.5 135 c 128,-1,2
 242 133 242 133 230 133 c 0,3,4
 194 133 194 133 162.5 146.5 c 128,-1,5
 131 160 131 160 107 184 c 128,-1,6
 83 208 83 208 69.5 239.5 c 128,-1,7
 56 271 56 271 56 307 c 256,8,9
 56 343 56 343 69.5 374.5 c 128,-1,10
 83 406 83 406 107 430 c 128,-1,11
 131 454 131 454 162.5 467.5 c 128,-1,12
 194 481 194 481 230 481 c 256,13,14
 266 481 266 481 297.5 467.5 c 128,-1,15
 329 454 329 454 353 430 c 128,-1,16
 377 406 377 406 390.5 374.5 c 128,-1,17
 404 343 404 343 404 307 c 0,18,19
 404 270 404 270 389 238.5 c 128,-1,20
 374 207 374 207 351 182 c 2,21,-1
 188 7 l 2,22,23
 164 -19 164 -19 137 5 c 1,24,-1
 254 131 l 1,25,26
 269 134 269 134 281 138 c 1,27,-1
 278 140 l 1,0,1
96 307 m 0,28,29
 96 278 96 278 106.5 253 c 128,-1,30
 117 228 117 228 135 209.5 c 128,-1,31
 153 191 153 191 177.5 180 c 128,-1,32
 202 169 202 169 230 169 c 256,33,34
 258 169 258 169 282.5 180 c 128,-1,35
 307 191 307 191 325 209.5 c 128,-1,36
 343 228 343 228 353.5 253 c 128,-1,37
 364 278 364 278 364 307 c 0,38,39
 364 335 364 335 353.5 360.5 c 128,-1,40
 343 386 343 386 325 404.5 c 128,-1,41
 307 423 307 423 282.5 434 c 128,-1,42
 258 445 258 445 230 445 c 256,43,44
 202 445 202 445 177.5 434 c 128,-1,45
 153 423 153 423 135 404.5 c 128,-1,46
 117 386 117 386 106.5 360.5 c 128,-1,47
 96 335 96 335 96 307 c 0,28,29
EndSplineSet
EndChar
StartChar: less
Encoding: 60 60 29
Width: 400
Flags: W
Fore
40 211 m 2,0,-1
 367 391 l 1,1,2
 380 360 380 360 355 346 c 2,3,-1
 86 198 l 1,4,-1
 355 50 l 2,5,6
 380 36 380 36 367 5 c 1,7,-1
 40 185 l 2,8,9
 32 190 32 190 32 198 c 256,10,11
 32 206 32 206 40 211 c 2,0,-1
EndSplineSet
EndChar
StartChar: equal
Encoding: 61 61 30
Width: 400
Flags: W
Fore
30 241 m 1,0,1
 30 275 30 275 64 275 c 2,2,-1
 370 275 l 1,3,4
 370 241 370 241 336 241 c 2,5,-1
 30 241 l 1,0,1
30 121 m 1,6,7
 30 155 30 155 64 155 c 2,8,-1
 370 155 l 1,9,10
 370 121 370 121 336 121 c 2,11,-1
 30 121 l 1,6,7
EndSplineSet
EndChar
StartChar: question
Encoding: 63 63 32
Width: 334
Flags: W
Fore
182 134 m 2,0,1
 182 96 182 96 144 96 c 1,2,-1
 144 155 l 2,3,4
 144 179 144 179 153 196 c 128,-1,5
 162 213 162 213 175.5 227 c 128,-1,6
 189 241 189 241 204.5 253 c 128,-1,7
 220 265 220 265 233.5 278.5 c 128,-1,8
 247 292 247 292 256 309 c 128,-1,9
 265 326 265 326 265 349 c 0,10,11
 265 391 265 391 236.5 419 c 128,-1,12
 208 447 208 447 163 447 c 0,13,14
 121 447 121 447 91 420.5 c 128,-1,15
 61 394 61 394 61 349 c 0,16,17
 61 343 61 343 61 339.5 c 128,-1,18
 61 336 61 336 62 330 c 1,19,20
 46 330 46 330 34 341 c 128,-1,21
 22 352 22 352 24 368 c 0,22,23
 31 420 31 420 70 450.5 c 128,-1,24
 109 481 109 481 163 481 c 0,25,26
 191 481 191 481 216.5 472 c 128,-1,27
 242 463 242 463 261 446 c 128,-1,28
 280 429 280 429 291.5 404.5 c 128,-1,29
 303 380 303 380 303 349 c 0,30,31
 303 308 303 308 284 282.5 c 128,-1,32
 265 257 265 257 242.5 238 c 128,-1,33
 220 219 220 219 201 200.5 c 128,-1,34
 182 182 182 182 182 155 c 2,35,-1
 182 134 l 2,0,1
126 31 m 256,36,37
 126 47 126 47 136.5 58 c 128,-1,38
 147 69 147 69 163 69 c 256,39,40
 179 69 179 69 190 58 c 128,-1,41
 201 47 201 47 201 31 c 256,42,43
 201 15 201 15 190 4.5 c 128,-1,44
 179 -6 179 -6 163 -6 c 256,45,46
 147 -6 147 -6 136.5 4.5 c 128,-1,47
 126 15 126 15 126 31 c 256,36,37
EndSplineSet
EndChar
StartChar: at
Encoding: 64 64 33
Width: 562
Flags: W
Fore
240 123 m 0,0,1
 263 123 263 123 283.5 140 c 128,-1,2
 304 157 304 157 319 182 c 128,-1,3
 334 207 334 207 342.5 235 c 128,-1,4
 351 263 351 263 351 286 c 0,5,6
 351 297 351 297 347 309 c 128,-1,7
 343 321 343 321 335.5 330 c 128,-1,8
 328 339 328 339 318.5 344 c 128,-1,9
 309 349 309 349 299 349 c 0,10,11
 273 349 273 349 251.5 334 c 128,-1,12
 230 319 230 319 215 295 c 128,-1,13
 200 271 200 271 191 243.5 c 128,-1,14
 182 216 182 216 182 191 c 0,15,16
 182 161 182 161 198 142 c 128,-1,17
 214 123 214 123 240 123 c 0,0,1
390 369 m 1,18,-1
 424 369 l 1,19,-1
 362 176 l 2,20,21
 358 165 358 165 355 156 c 128,-1,22
 352 147 352 147 352 139 c 0,23,24
 352 121 352 121 371 121 c 256,25,26
 390 121 390 121 408.5 135 c 128,-1,27
 427 149 427 149 442.5 172 c 128,-1,28
 458 195 458 195 468 224 c 128,-1,29
 478 253 478 253 478 281 c 0,30,31
 478 321 478 321 462.5 351.5 c 128,-1,32
 447 382 447 382 422 404.5 c 128,-1,33
 397 427 397 427 363 439.5 c 128,-1,34
 329 452 329 452 292 452 c 0,35,36
 247 452 247 452 209 434.5 c 128,-1,37
 171 417 171 417 143.5 387.5 c 128,-1,38
 116 358 116 358 100 319 c 128,-1,39
 84 280 84 280 84 235 c 0,40,41
 84 191 84 191 100.5 153 c 128,-1,42
 117 115 117 115 144.5 86.5 c 128,-1,43
 172 58 172 58 210.5 41 c 128,-1,44
 249 24 249 24 293 24 c 0,45,46
 344 24 344 24 391 48 c 128,-1,47
 438 72 438 72 467 115 c 0,48,49
 483 137 483 137 501 115 c 1,50,51
 485 87 485 87 463 65 c 128,-1,52
 441 43 441 43 414 27 c 128,-1,53
 387 11 387 11 356 2.5 c 128,-1,54
 325 -6 325 -6 293 -6 c 0,55,56
 240 -6 240 -6 196.5 13.5 c 128,-1,57
 153 33 153 33 120.5 67 c 128,-1,58
 88 101 88 101 69 145 c 128,-1,59
 50 189 50 189 50 240 c 0,60,61
 50 290 50 290 69.5 333.5 c 128,-1,62
 89 377 89 377 122 410 c 128,-1,63
 155 443 155 443 198 462 c 128,-1,64
 241 481 241 481 291 481 c 0,65,66
 338 481 338 481 377.5 466 c 128,-1,67
 417 451 417 451 447.5 424 c 128,-1,68
 478 397 478 397 495 360.5 c 128,-1,69
 512 324 512 324 512 280 c 0,70,71
 512 241 512 241 498 206.5 c 128,-1,72
 484 172 484 172 462.5 145.5 c 128,-1,73
 441 119 441 119 415 105 c 128,-1,74
 389 91 389 91 364 91 c 0,75,76
 346 91 346 91 333 103 c 128,-1,77
 320 115 320 115 319 136 c 1,78,-1
 318 136 l 1,79,80
 302 119 302 119 279 105 c 128,-1,81
 256 91 256 91 231 91 c 0,82,83
 188 91 188 91 164.5 120 c 128,-1,84
 141 149 141 149 141 187 c 0,85,86
 141 223 141 223 153 258 c 128,-1,87
 165 293 165 293 185 320.5 c 128,-1,88
 205 348 205 348 235.5 365 c 128,-1,89
 266 382 266 382 302 382 c 0,90,91
 324 382 324 382 343 370 c 128,-1,92
 362 358 362 358 373 327 c 1,93,-1
 390 369 l 1,18,-1
EndSplineSet
EndChar
StartChar: A
Encoding: 65 65 34
Width: 420
Flags: W
Fore
397 46 m 2,0,1
 403 30 403 30 396 15 c 128,-1,2
 389 0 389 0 374 -6 c 1,3,-1
 312 155 l 1,4,-1
 109 155 l 1,5,-1
 46 -6 l 1,6,7
 30 0 30 0 23.5 15 c 128,-1,8
 17 30 17 30 23 46 c 2,9,-1
 191 469 l 2,10,11
 195 481 195 481 210 481 c 0,12,13
 224 481 224 481 229 469 c 2,14,-1
 397 46 l 2,0,1
123 191 m 1,15,-1
 298 191 l 1,16,-1
 203 436 l 1,17,-1
 202 433 l 1,18,-1
 208 413 l 1,19,-1
 123 191 l 1,15,-1
EndSplineSet
EndChar
StartChar: B
Encoding: 66 66 35
Width: 465
Flags: W
Fore
340 250 m 1,0,1
 385 240 385 240 410 206 c 128,-1,2
 435 172 435 172 435 129 c 0,3,4
 435 103 435 103 427 79.5 c 128,-1,5
 419 56 419 56 403.5 38.5 c 128,-1,6
 388 21 388 21 365.5 10.5 c 128,-1,7
 343 0 343 0 315 0 c 2,8,-1
 80 0 l 2,9,10
 72 0 72 0 66 6 c 128,-1,11
 60 12 60 12 60 20 c 2,12,-1
 60 455 l 2,13,14
 60 464 60 464 66 469.5 c 128,-1,15
 72 475 72 475 80 475 c 2,16,-1
 275 475 l 2,17,18
 300 475 300 475 322 464.5 c 128,-1,19
 344 454 344 454 360 436.5 c 128,-1,20
 376 419 376 419 385.5 396 c 128,-1,21
 395 373 395 373 395 348 c 0,22,23
 395 321 395 321 380.5 292.5 c 128,-1,24
 366 264 366 264 340 250 c 1,0,1
100 256 m 1,25,-1
 275 256 l 2,26,27
 292 256 292 256 306.5 264.5 c 128,-1,28
 321 273 321 273 332 286 c 128,-1,29
 343 299 343 299 349 315.5 c 128,-1,30
 355 332 355 332 355 348 c 256,31,32
 355 364 355 364 349 380.5 c 128,-1,33
 343 397 343 397 332 410 c 128,-1,34
 321 423 321 423 306.5 431 c 128,-1,35
 292 439 292 439 275 439 c 2,36,-1
 100 439 l 1,37,-1
 100 256 l 1,25,-1
315 36 m 2,38,39
 349 36 349 36 372 60.5 c 128,-1,40
 395 85 395 85 395 129 c 0,41,42
 395 171 395 171 372 195.5 c 128,-1,43
 349 220 349 220 315 220 c 2,44,-1
 100 220 l 1,45,-1
 100 36 l 1,46,-1
 315 36 l 2,38,39
EndSplineSet
EndChar
StartChar: C
Encoding: 67 67 36
Width: 464
Flags: W
Fore
90 150 m 2,0,1
 90 126 90 126 101.5 104 c 128,-1,2
 113 82 113 82 133 65.5 c 128,-1,3
 153 49 153 49 179.5 39.5 c 128,-1,4
 206 30 206 30 237 30 c 256,5,6
 268 30 268 30 295 39.5 c 128,-1,7
 322 49 322 49 342 65.5 c 128,-1,8
 362 82 362 82 373.5 104 c 128,-1,9
 385 126 385 126 385 150 c 0,10,11
 385 160 l 128,-1,12
 385 165 385 165 384 170 c 1,13,14
 400 170 400 170 413.5 159 c 128,-1,15
 427 148 427 148 422 122 c 0,16,17
 416 92 416 92 398 68 c 128,-1,18
 380 44 380 44 354.5 27.5 c 128,-1,19
 329 11 329 11 298.5 2.5 c 128,-1,20
 268 -6 268 -6 237 -6 c 0,21,22
 204 -6 204 -6 171 4.5 c 128,-1,23
 138 15 138 15 111 35 c 128,-1,24
 84 55 84 55 67 84 c 128,-1,25
 50 113 50 113 50 150 c 2,26,-1
 50 326 l 2,27,28
 50 362 50 362 66.5 390.5 c 128,-1,29
 83 419 83 419 109.5 439 c 128,-1,30
 136 459 136 459 169.5 470 c 128,-1,31
 203 481 203 481 237 481 c 0,32,33
 267 481 267 481 296.5 473.5 c 128,-1,34
 326 466 326 466 351.5 450 c 128,-1,35
 377 434 377 434 395.5 410.5 c 128,-1,36
 414 387 414 387 422 355 c 0,37,38
 428 328 428 328 414 317 c 128,-1,39
 400 306 400 306 384 306 c 1,40,41
 385 311 385 311 385 316 c 128,-1,42
 385 326 l 0,43,44
 385 350 385 350 373.5 372 c 128,-1,45
 362 394 362 394 342 410 c 128,-1,46
 322 426 322 426 295 435.5 c 128,-1,47
 268 445 268 445 237 445 c 256,48,49
 206 445 206 445 179.5 435.5 c 128,-1,50
 153 426 153 426 133 410 c 128,-1,51
 113 394 113 394 101.5 372 c 128,-1,52
 90 350 90 350 90 326 c 2,53,-1
 90 150 l 2,0,1
EndSplineSet
EndChar
StartChar: D
Encoding: 68 68 37
Width: 484
Flags: W
Fore
247 475 m 2,0,1
 280 475 280 475 313 464.5 c 128,-1,2
 346 454 346 454 373 434.5 c 128,-1,3
 400 415 400 415 417 386 c 128,-1,4
 434 357 434 357 434 320 c 2,5,-1
 434 156 l 2,6,7
 434 120 434 120 417.5 91.5 c 128,-1,8
 401 63 401 63 374.5 42.5 c 128,-1,9
 348 22 348 22 314.5 11 c 128,-1,10
 281 0 281 0 247 0 c 2,11,-1
 80 0 l 2,12,13
 71 0 71 0 65.5 6 c 128,-1,14
 60 12 60 12 60 20 c 2,15,-1
 60 455 l 2,16,17
 60 475 60 475 80 475 c 2,18,-1
 247 475 l 2,0,1
100 439 m 1,19,-1
 100 36 l 1,20,-1
 247 36 l 2,21,22
 277 36 277 36 304 45.5 c 128,-1,23
 331 55 331 55 351.5 71.5 c 128,-1,24
 372 88 372 88 383.5 110 c 128,-1,25
 395 132 395 132 395 156 c 2,26,-1
 395 320 l 2,27,28
 395 344 395 344 383.5 366 c 128,-1,29
 372 388 372 388 351.5 404 c 128,-1,30
 331 420 331 420 304 429.5 c 128,-1,31
 277 439 277 439 247 439 c 2,32,-1
 100 439 l 1,19,-1
EndSplineSet
EndChar
StartChar: E
Encoding: 69 69 38
Width: 464
Flags: W
Fore
90 256 m 1,0,-1
 288 256 l 1,1,2
 288 220 288 220 252 220 c 2,3,-1
 90 220 l 1,4,-1
 90 150 l 2,5,6
 90 126 90 126 101.5 104 c 128,-1,7
 113 82 113 82 133 65.5 c 128,-1,8
 153 49 153 49 179.5 39.5 c 128,-1,9
 206 30 206 30 237 30 c 256,10,11
 268 30 268 30 295 39.5 c 128,-1,12
 322 49 322 49 342 65.5 c 128,-1,13
 362 82 362 82 373.5 104 c 128,-1,14
 385 126 385 126 385 150 c 0,15,16
 385 160 l 128,-1,17
 385 165 385 165 384 170 c 1,18,19
 400 170 400 170 413.5 159 c 128,-1,20
 427 148 427 148 422 122 c 0,21,22
 416 92 416 92 398 68 c 128,-1,23
 380 44 380 44 354.5 27.5 c 128,-1,24
 329 11 329 11 298.5 2.5 c 128,-1,25
 268 -6 268 -6 237 -6 c 0,26,27
 204 -6 204 -6 171 4.5 c 128,-1,28
 138 15 138 15 111 35 c 128,-1,29
 84 55 84 55 67 84 c 128,-1,30
 50 113 50 113 50 150 c 2,31,-1
 50 326 l 2,32,33
 50 362 50 362 66.5 390.5 c 128,-1,34
 83 419 83 419 109.5 439 c 128,-1,35
 136 459 136 459 169.5 470 c 128,-1,36
 203 481 203 481 237 481 c 0,37,38
 267 481 267 481 296.5 473.5 c 128,-1,39
 326 466 326 466 351.5 450 c 128,-1,40
 377 434 377 434 395.5 410.5 c 128,-1,41
 414 387 414 387 422 355 c 0,42,43
 428 328 428 328 414 317 c 128,-1,44
 400 306 400 306 384 306 c 1,45,46
 385 311 385 311 385 316 c 128,-1,47
 385 326 l 0,48,49
 385 350 385 350 373.5 372 c 128,-1,50
 362 394 362 394 342 410 c 128,-1,51
 322 426 322 426 295 435.5 c 128,-1,52
 268 445 268 445 237 445 c 256,53,54
 206 445 206 445 179.5 435.5 c 128,-1,55
 153 426 153 426 133 410 c 128,-1,56
 113 394 113 394 101.5 372 c 128,-1,57
 90 350 90 350 90 326 c 2,58,-1
 90 256 l 1,0,-1
EndSplineSet
EndChar
StartChar: F
Encoding: 70 70 39
Width: 464
Flags: W
Fore
50 326 m 2,0,1
 50 362 50 362 66.5 390.5 c 128,-1,2
 83 419 83 419 109.5 439 c 128,-1,3
 136 459 136 459 169.5 470 c 128,-1,4
 203 481 203 481 237 481 c 0,5,6
 267 481 267 481 296 473.5 c 128,-1,7
 325 466 325 466 350.5 450 c 128,-1,8
 376 434 376 434 394.5 410.5 c 128,-1,9
 413 387 413 387 422 355 c 0,10,11
 427 328 427 328 413.5 317 c 128,-1,12
 400 306 400 306 384 306 c 1,13,14
 385 311 385 311 385 316 c 128,-1,15
 385 326 l 0,16,17
 385 350 385 350 373.5 372 c 128,-1,18
 362 394 362 394 342 410 c 128,-1,19
 322 426 322 426 295 435.5 c 128,-1,20
 268 445 268 445 237 445 c 256,21,22
 206 445 206 445 179.5 435.5 c 128,-1,23
 153 426 153 426 133 410 c 128,-1,24
 113 394 113 394 101.5 372 c 128,-1,25
 90 350 90 350 90 326 c 2,26,-1
 90 256 l 1,27,-1
 288 256 l 1,28,29
 288 220 288 220 252 220 c 2,30,-1
 90 220 l 1,31,-1
 90 34 l 2,32,33
 90 -6 90 -6 50 -6 c 1,34,-1
 50 326 l 2,0,1
EndSplineSet
EndChar
StartChar: G
Encoding: 71 71 40
Width: 474
Flags: W
Fore
424 150 m 1,0,1
 424 113 424 113 407 84 c 128,-1,2
 390 55 390 55 363 35 c 128,-1,3
 336 15 336 15 303 4.5 c 128,-1,4
 270 -6 270 -6 237 -6 c 256,5,6
 204 -6 204 -6 171 4.5 c 128,-1,7
 138 15 138 15 111 35 c 128,-1,8
 84 55 84 55 67 84 c 128,-1,9
 50 113 50 113 50 150 c 2,10,-1
 50 326 l 2,11,12
 50 362 50 362 66.5 390.5 c 128,-1,13
 83 419 83 419 109.5 439 c 128,-1,14
 136 459 136 459 169.5 470 c 128,-1,15
 203 481 203 481 237 481 c 0,16,17
 267 481 267 481 296.5 473.5 c 128,-1,18
 326 466 326 466 351.5 450 c 128,-1,19
 377 434 377 434 395.5 410.5 c 128,-1,20
 414 387 414 387 422 355 c 0,21,22
 428 328 428 328 414 317 c 128,-1,23
 400 306 400 306 384 306 c 1,24,25
 385 311 385 311 385 316 c 128,-1,26
 385 326 l 0,27,28
 385 350 385 350 373.5 372 c 128,-1,29
 362 394 362 394 342 410 c 128,-1,30
 322 426 322 426 295 435.5 c 128,-1,31
 268 445 268 445 237 445 c 256,32,33
 206 445 206 445 179.5 435.5 c 128,-1,34
 153 426 153 426 133 410 c 128,-1,35
 113 394 113 394 101.5 372 c 128,-1,36
 90 350 90 350 90 326 c 2,37,-1
 90 150 l 2,38,39
 90 126 90 126 101.5 104 c 128,-1,40
 113 82 113 82 133 65.5 c 128,-1,41
 153 49 153 49 179.5 39.5 c 128,-1,42
 206 30 206 30 237 30 c 256,43,44
 268 30 268 30 294.5 39.5 c 128,-1,45
 321 49 321 49 341 65.5 c 128,-1,46
 361 82 361 82 372.5 104 c 128,-1,47
 384 126 384 126 384 150 c 2,48,-1
 384 220 l 1,49,-1
 238 220 l 1,50,51
 238 256 238 256 274 256 c 2,52,-1
 404 256 l 2,53,54
 412 256 412 256 418 250 c 128,-1,55
 424 244 424 244 424 236 c 2,56,-1
 424 150 l 1,57,-1
 424 150 l 1,0,1
EndSplineSet
EndChar
StartChar: H
Encoding: 72 72 41
Width: 494
Flags: W
Fore
434 34 m 2,0,1
 434 -6 434 -6 394 -6 c 1,2,-1
 394 220 l 1,3,-1
 100 220 l 1,4,-1
 100 34 l 2,5,6
 100 -6 100 -6 60 -6 c 1,7,-1
 60 441 l 2,8,9
 60 481 60 481 100 481 c 1,10,-1
 100 256 l 1,11,-1
 394 256 l 1,12,-1
 394 441 l 2,13,14
 394 481 394 481 434 481 c 1,15,-1
 434 34 l 2,0,1
EndSplineSet
EndChar
StartChar: I
Encoding: 73 73 42
Width: 160
Flags: W
Fore
100 34 m 2,0,1
 100 -6 100 -6 60 -6 c 1,2,-1
 60 441 l 2,3,4
 60 481 60 481 100 481 c 1,5,-1
 100 34 l 2,0,1
EndSplineSet
EndChar
StartChar: J
Encoding: 74 74 43
Width: 425
Flags: W
Fore
80 150 m 0,0,1
 80 126 80 126 90 104 c 128,-1,2
 100 82 100 82 117.5 65.5 c 128,-1,3
 135 49 135 49 158 39.5 c 128,-1,4
 181 30 181 30 208 30 c 0,5,6
 234 30 234 30 257 39.5 c 128,-1,7
 280 49 280 49 297.5 65.5 c 128,-1,8
 315 82 315 82 325 104 c 128,-1,9
 335 126 335 126 335 150 c 2,10,-1
 335 439 l 1,11,-1
 241 439 l 2,12,13
 205 439 205 439 205 475 c 1,14,-1
 356 475 l 2,15,16
 375 475 375 475 375 455 c 2,17,-1
 375 150 l 2,18,19
 375 118 375 118 362 89.5 c 128,-1,20
 349 61 349 61 326 40 c 128,-1,21
 303 19 303 19 272.5 6.5 c 128,-1,22
 242 -6 242 -6 208 -6 c 0,23,24
 177 -6 177 -6 149.5 3.5 c 128,-1,25
 122 13 122 13 100 30.5 c 128,-1,26
 78 48 78 48 63.5 71.5 c 128,-1,27
 49 95 49 95 43 122 c 0,28,29
 38 148 38 148 51.5 159 c 128,-1,30
 65 170 65 170 82 170 c 1,31,32
 81 165 81 165 80.5 160 c 128,-1,33
 80 155 80 155 80 150 c 0,0,1
EndSplineSet
EndChar
StartChar: K
Encoding: 75 75 44
Width: 454
Flags: W
Fore
60 441 m 2,0,1
 60 481 60 481 100 481 c 1,2,-1
 100 227 l 1,3,-1
 366 481 l 1,4,5
 391 456 391 456 365 430 c 2,6,-1
 213 285 l 1,7,8
 201 281 201 281 193 277.5 c 128,-1,9
 185 274 185 274 179 270 c 1,10,-1
 182 269 l 1,11,12
 192 274 192 274 204 277 c 128,-1,13
 216 280 216 280 227 280 c 0,14,15
 261 280 261 280 291.5 267.5 c 128,-1,16
 322 255 322 255 345 234 c 128,-1,17
 368 213 368 213 381 184.5 c 128,-1,18
 394 156 394 156 394 124 c 2,19,-1
 394 34 l 2,20,21
 394 -6 394 -6 354 -6 c 1,22,-1
 354 124 l 2,23,24
 354 148 354 148 344 170 c 128,-1,25
 334 192 334 192 316.5 208.5 c 128,-1,26
 299 225 299 225 276 234.5 c 128,-1,27
 253 244 253 244 227 244 c 256,28,29
 201 244 201 244 177.5 234.5 c 128,-1,30
 154 225 154 225 137 208.5 c 128,-1,31
 120 192 120 192 110 170 c 128,-1,32
 100 148 100 148 100 124 c 2,33,-1
 100 34 l 2,34,35
 100 -6 100 -6 60 -6 c 1,36,-1
 60 441 l 2,0,1
EndSplineSet
EndChar
StartChar: L
Encoding: 76 76 45
Width: 414
Flags: W
Fore
358 36 m 2,0,1
 394 36 394 36 394 0 c 1,2,-1
 80 0 l 2,3,4
 71 0 71 0 65.5 6 c 128,-1,5
 60 12 60 12 60 20 c 2,6,-1
 60 441 l 2,7,8
 60 481 60 481 100 481 c 1,9,-1
 100 36 l 1,10,-1
 358 36 l 2,0,1
EndSplineSet
EndChar
StartChar: M
Encoding: 77 77 46
Width: 568
Flags: W
Fore
60 441 m 2,0,1
 60 481 60 481 100 481 c 1,2,-1
 282 62 l 1,3,-1
 276 44 l 1,4,-1
 277 41 l 1,5,-1
 468 481 l 1,6,7
 508 481 508 481 508 441 c 2,8,-1
 508 34 l 2,9,10
 508 -6 508 -6 468 -6 c 1,11,-1
 468 377 l 1,12,-1
 479 411 l 1,13,-1
 478 414 l 1,14,-1
 302 7 l 2,15,16
 300 2 300 2 295 -2 c 128,-1,17
 290 -6 290 -6 284 -6 c 256,18,19
 278 -6 278 -6 273 -2 c 128,-1,20
 268 2 268 2 266 7 c 2,21,-1
 90 414 l 1,22,-1
 89 411 l 1,23,-1
 100 377 l 1,24,-1
 100 34 l 2,25,26
 100 -6 100 -6 60 -6 c 1,27,-1
 60 441 l 2,0,1
EndSplineSet
EndChar
StartChar: N
Encoding: 78 78 47
Width: 494
Flags: W
Fore
60 441 m 2,0,1
 60 481 60 481 100 481 c 1,2,3
 113 462 l 130,-1,4
 126 443 126 443 147.5 412 c 128,-1,5
 169 381 169 381 196 342 c 128,-1,6
 223 303 223 303 252 262 c 2,7,-1
 404 44 l 1,8,-1
 405 47 l 1,9,-1
 394 68 l 1,10,-1
 394 481 l 1,11,12
 434 481 434 481 434 441 c 2,13,-1
 434 34 l 2,14,15
 434 -6 434 -6 394 -6 c 1,16,17
 380.5 12.5 l 130,-1,18
 367 31 367 31 346 61.5 c 128,-1,19
 325 92 325 92 297.5 131.5 c 128,-1,20
 270 171 270 171 242 212 c 0,21,22
 175 308 175 308 90 431 c 1,23,-1
 89 428 l 1,24,-1
 100 407 l 1,25,-1
 100 34 l 2,26,27
 100 -6 100 -6 60 -6 c 1,28,-1
 60 441 l 2,0,1
EndSplineSet
EndChar
StartChar: O
Encoding: 79 79 48
Width: 567
Flags: W
Fore
40 237 m 256,0,1
 40 288 40 288 59 332.5 c 128,-1,2
 78 377 78 377 111 410 c 128,-1,3
 144 443 144 443 188 462 c 128,-1,4
 232 481 232 481 283 481 c 256,5,6
 334 481 334 481 378.5 462 c 128,-1,7
 423 443 423 443 456 410 c 128,-1,8
 489 377 489 377 508 332.5 c 128,-1,9
 527 288 527 288 527 237 c 256,10,11
 527 186 527 186 508 142 c 128,-1,12
 489 98 489 98 456 65 c 128,-1,13
 423 32 423 32 378.5 13 c 128,-1,14
 334 -6 334 -6 283 -6 c 256,15,16
 232 -6 232 -6 188 13 c 128,-1,17
 144 32 144 32 111 65 c 128,-1,18
 78 98 78 98 59 142 c 128,-1,19
 40 186 40 186 40 237 c 256,0,1
80 237 m 256,20,21
 80 194 80 194 96 156 c 128,-1,22
 112 118 112 118 139.5 90 c 128,-1,23
 167 62 167 62 204 46 c 128,-1,24
 241 30 241 30 283 30 c 256,25,26
 325 30 325 30 362.5 46 c 128,-1,27
 400 62 400 62 427.5 90 c 128,-1,28
 455 118 455 118 471 156 c 128,-1,29
 487 194 487 194 487 237 c 256,30,31
 487 280 487 280 471 318 c 128,-1,32
 455 356 455 356 427.5 384 c 128,-1,33
 400 412 400 412 362.5 428.5 c 128,-1,34
 325 445 325 445 283 445 c 256,35,36
 241 445 241 445 204 428.5 c 128,-1,37
 167 412 167 412 139.5 384 c 128,-1,38
 112 356 112 356 96 318 c 128,-1,39
 80 280 80 280 80 237 c 256,20,21
EndSplineSet
EndChar
StartChar: P
Encoding: 80 80 49
Width: 474
Flags: W
Fore
60 455 m 2,0,1
 60 475 60 475 80 475 c 2,2,-1
 314 475 l 2,3,4
 339 475 339 475 361 464.5 c 128,-1,5
 383 454 383 454 399 436.5 c 128,-1,6
 415 419 415 419 424.5 396 c 128,-1,7
 434 373 434 373 434 348 c 256,8,9
 434 323 434 323 424.5 300 c 128,-1,10
 415 277 415 277 399 259 c 128,-1,11
 383 241 383 241 361 230.5 c 128,-1,12
 339 220 339 220 314 220 c 2,13,-1
 100 220 l 1,14,-1
 100 34 l 2,15,16
 100 -6 100 -6 60 -6 c 1,17,-1
 60 455 l 2,0,1
314 256 m 2,18,19
 331 256 331 256 345.5 264.5 c 128,-1,20
 360 273 360 273 371 286 c 128,-1,21
 382 299 382 299 388 315.5 c 128,-1,22
 394 332 394 332 394 348 c 256,23,24
 394 364 394 364 388 380.5 c 128,-1,25
 382 397 382 397 371 410 c 128,-1,26
 360 423 360 423 345.5 431 c 128,-1,27
 331 439 331 439 314 439 c 2,28,-1
 100 439 l 1,29,-1
 100 256 l 1,30,-1
 314 256 l 2,18,19
EndSplineSet
EndChar
StartChar: Q
Encoding: 81 81 50
Width: 567
Flags: W
Fore
527 25 m 1,0,1
 527 -17 527 -17 483 -3 c 0,2,3
 466 2 466 2 450.5 12.5 c 128,-1,4
 435 23 435 23 420 35 c 1,5,6
 391 15 391 15 356 4.5 c 128,-1,7
 321 -6 321 -6 283 -6 c 0,8,9
 232 -6 232 -6 188 13 c 128,-1,10
 144 32 144 32 111 65 c 128,-1,11
 78 98 78 98 59 142 c 128,-1,12
 40 186 40 186 40 237 c 256,13,14
 40 288 40 288 59 332.5 c 128,-1,15
 78 377 78 377 111 410 c 128,-1,16
 144 443 144 443 188 462 c 128,-1,17
 232 481 232 481 283 481 c 256,18,19
 334 481 334 481 378.5 462 c 128,-1,20
 423 443 423 443 456 410 c 128,-1,21
 489 377 489 377 508 332.5 c 128,-1,22
 527 288 527 288 527 237 c 0,23,24
 527 183 527 183 506 137.5 c 128,-1,25
 485 92 485 92 450 59 c 1,26,27
 468 45 468 45 487 35 c 128,-1,28
 506 25 506 25 527 25 c 1,0,1
80 237 m 0,29,30
 80 207 80 207 87 183 c 1,31,32
 129 198 129 198 176 198 c 0,33,34
 259 198 259 198 333 152 c 0,35,36
 356 138 356 138 373.5 123.5 c 128,-1,37
 391 109 391 109 408 95 c 0,38,39
 414 89 l 128,-1,40
 417 86 417 86 421 84 c 1,41,42
 451 112 451 112 469 151.5 c 128,-1,43
 487 191 487 191 487 237 c 0,44,45
 487 280 487 280 471 318 c 128,-1,46
 455 356 455 356 427.5 384 c 128,-1,47
 400 412 400 412 362.5 428.5 c 128,-1,48
 325 445 325 445 283 445 c 256,49,50
 241 445 241 445 204 428.5 c 128,-1,51
 167 412 167 412 139.5 384 c 128,-1,52
 112 356 112 356 96 318 c 128,-1,53
 80 280 80 280 80 237 c 0,29,30
283 30 m 0,54,55
 341 30 341 30 391 61 c 1,56,-1
 384 67 l 2,57,58
 367 81 367 81 348.5 96 c 128,-1,59
 330 111 330 111 313 122 c 0,60,61
 282 141 282 141 246.5 151.5 c 128,-1,62
 211 162 211 162 176 162 c 0,63,64
 157 162 157 162 138 158.5 c 128,-1,65
 119 155 119 155 100 146 c 1,66,67
 124 94 124 94 173 62 c 128,-1,68
 222 30 222 30 283 30 c 0,54,55
EndSplineSet
EndChar
StartChar: R
Encoding: 82 82 51
Width: 485
Flags: W
Fore
314 256 m 2,0,1
 331 256 331 256 345.5 264.5 c 128,-1,2
 360 273 360 273 371 286 c 128,-1,3
 382 299 382 299 388 315.5 c 128,-1,4
 394 332 394 332 394 348 c 256,5,6
 394 364 394 364 388 380.5 c 128,-1,7
 382 397 382 397 371 410 c 128,-1,8
 360 423 360 423 345.5 431 c 128,-1,9
 331 439 331 439 314 439 c 2,10,-1
 100 439 l 1,11,-1
 100 256 l 1,12,-1
 314 256 l 2,0,1
100 34 m 2,13,14
 100 -6 100 -6 60 -6 c 1,15,-1
 60 455 l 2,16,17
 60 475 60 475 80 475 c 2,18,-1
 314 475 l 2,19,20
 339 475 339 475 361 464.5 c 128,-1,21
 383 454 383 454 399 436.5 c 128,-1,22
 415 419 415 419 424.5 396 c 128,-1,23
 434 373 434 373 434 348 c 0,24,25
 434 315 434 315 415 283 c 128,-1,26
 396 251 396 251 370 236 c 1,27,28
 400 222 400 222 417.5 192.5 c 128,-1,29
 435 163 435 163 435 129 c 2,30,-1
 435 34 l 2,31,32
 435 -6 435 -6 395 -6 c 1,33,-1
 395 129 l 2,34,35
 395 171 395 171 371.5 195.5 c 128,-1,36
 348 220 348 220 314 220 c 2,37,-1
 100 220 l 1,38,-1
 100 34 l 2,13,14
EndSplineSet
EndChar
StartChar: S
Encoding: 83 83 52
Width: 454
Flags: W
Fore
78 150 m 0,0,1
 78 126 78 126 89.5 104 c 128,-1,2
 101 82 101 82 121 65.5 c 128,-1,3
 141 49 141 49 168 39.5 c 128,-1,4
 195 30 195 30 226 30 c 0,5,6
 256 30 256 30 283.5 40 c 128,-1,7
 311 50 311 50 331.5 66.5 c 128,-1,8
 352 83 352 83 363 104 c 128,-1,9
 374 125 374 125 373 148 c 0,10,11
 371 166 371 166 359 178 c 128,-1,12
 347 190 347 190 327 199 c 128,-1,13
 307 208 307 208 280 214.5 c 128,-1,14
 253 221 253 221 222 227 c 0,15,16
 184 234 184 234 155 242.5 c 128,-1,17
 126 251 126 251 105.5 263.5 c 128,-1,18
 85 276 85 276 74 294 c 128,-1,19
 63 312 63 312 60 339 c 256,20,21
 57 366 57 366 68 392 c 128,-1,22
 79 418 79 418 100.5 437.5 c 128,-1,23
 122 457 122 457 154 469 c 128,-1,24
 186 481 186 481 226 481 c 0,25,26
 297 481 297 481 339 444.5 c 128,-1,27
 381 408 381 408 389 353 c 0,28,29
 393 328 393 328 379 317 c 128,-1,30
 365 306 365 306 350 306 c 1,31,32
 351 311 351 311 351 316 c 128,-1,33
 351 326 l 0,34,35
 351 350 351 350 342.5 371.5 c 128,-1,36
 334 393 334 393 318 409.5 c 128,-1,37
 302 426 302 426 279 435.5 c 128,-1,38
 256 445 256 445 226 445 c 256,39,40
 196 445 196 445 172 436 c 128,-1,41
 148 427 148 427 131.5 413 c 128,-1,42
 115 399 115 399 106.5 380.5 c 128,-1,43
 98 362 98 362 100 343 c 0,44,45
 103 307 103 307 134 291.5 c 128,-1,46
 165 276 165 276 230 263 c 0,47,48
 269 255 269 255 301.5 248 c 128,-1,49
 334 241 334 241 358 229 c 128,-1,50
 382 217 382 217 396.5 199 c 128,-1,51
 411 181 411 181 413 151 c 0,52,53
 415 120 415 120 400.5 91.5 c 128,-1,54
 386 63 386 63 360 41.5 c 128,-1,55
 334 20 334 20 299.5 7 c 128,-1,56
 265 -6 265 -6 226 -6 c 0,57,58
 191 -6 191 -6 160.5 3.5 c 128,-1,59
 130 13 130 13 105 30.5 c 128,-1,60
 80 48 80 48 63.5 71.5 c 128,-1,61
 47 95 47 95 41 122 c 0,62,63
 36 148 36 148 49.5 159 c 128,-1,64
 63 170 63 170 79 170 c 1,65,66
 78 165 78 165 78 160 c 128,-1,67
 78 150 l 0,0,1
EndSplineSet
EndChar
StartChar: T
Encoding: 84 84 53
Width: 373
Flags: W
Fore
373 475 m 1,0,1
 373 439 373 439 337 439 c 2,2,-1
 207 439 l 1,3,-1
 207 34 l 2,4,5
 207 -6 207 -6 167 -6 c 1,6,-1
 167 439 l 1,7,-1
 0 439 l 1,8,9
 0 475 0 475 36 475 c 2,10,-1
 373 475 l 1,0,1
EndSplineSet
EndChar
StartChar: U
Encoding: 85 85 54
Width: 494
Flags: W
Fore
100 150 m 2,0,1
 100 126 100 126 111.5 104 c 128,-1,2
 123 82 123 82 143 65.5 c 128,-1,3
 163 49 163 49 189.5 39.5 c 128,-1,4
 216 30 216 30 247 30 c 256,5,6
 278 30 278 30 304.5 39.5 c 128,-1,7
 331 49 331 49 351 65.5 c 128,-1,8
 371 82 371 82 382.5 104 c 128,-1,9
 394 126 394 126 394 150 c 2,10,-1
 394 441 l 2,11,12
 394 481 394 481 434 481 c 1,13,-1
 434 150 l 2,14,15
 434 113 434 113 417 84 c 128,-1,16
 400 55 400 55 373 35 c 128,-1,17
 346 15 346 15 313 4.5 c 128,-1,18
 280 -6 280 -6 247 -6 c 256,19,20
 214 -6 214 -6 181 4.5 c 128,-1,21
 148 15 148 15 121 35 c 128,-1,22
 94 55 94 55 77 84 c 128,-1,23
 60 113 60 113 60 150 c 2,24,-1
 60 441 l 2,25,26
 60 481 60 481 100 481 c 1,27,-1
 100 150 l 2,0,1
EndSplineSet
EndChar
StartChar: V
Encoding: 86 86 55
Width: 432
Flags: W
Fore
214 62 m 1,0,-1
 208 42 l 1,1,-1
 209 39 l 1,2,-1
 370 456 l 2,3,4
 376 472 376 472 391 479 c 128,-1,5
 406 486 406 486 422 479 c 1,6,-1
 235 6 l 2,7,8
 230 -6 230 -6 216 -6 c 256,9,10
 202 -6 202 -6 197 6 c 2,11,-1
 10 479 l 1,12,13
 26 486 26 486 41 479 c 128,-1,14
 56 472 56 472 62 456 c 2,15,-1
 214 62 l 1,0,-1
EndSplineSet
EndChar
StartChar: W
Encoding: 87 87 56
Width: 638
Flags: W
Fore
200 -6 m 1,0,1
 171 -6 171 -6 160 27 c 2,2,-1
 10 480 l 1,3,4
 26 485 26 485 41 477.5 c 128,-1,5
 56 470 56 470 61 454 c 2,6,-1
 184 73 l 1,7,-1
 179 52 l 1,8,-1
 180 49 l 1,9,-1
 299 422 l 2,10,11
 304 435 304 435 318 435 c 256,12,13
 332 435 332 435 337 422 c 2,14,-1
 448 73 l 1,15,-1
 443 52 l 1,16,-1
 444 49 l 1,17,-1
 575 454 l 2,18,19
 580 470 580 470 595 477.5 c 128,-1,20
 610 485 610 485 626 480 c 1,21,-1
 476 27 l 2,22,23
 465 -6 465 -6 436 -6 c 1,24,-1
 312 381 l 1,25,-1
 311 378 l 1,26,-1
 316 356 l 1,27,-1
 200 -6 l 1,0,1
EndSplineSet
EndChar
StartChar: X
Encoding: 88 88 57
Width: 420
Flags: W
Fore
20 475 m 1,0,1
 34 485 34 485 48.5 481.5 c 128,-1,2
 63 478 63 478 72 465 c 2,3,-1
 210 275 l 1,4,-1
 348 465 l 2,5,6
 357 478 357 478 371.5 481.5 c 128,-1,7
 386 485 386 485 400 475 c 1,8,-1
 232 245 l 1,9,-1
 410 1 l 1,10,11
 396 -9 396 -9 382 -5.5 c 128,-1,12
 368 -2 368 -2 358 12 c 2,13,-1
 210 215 l 1,14,-1
 62 12 l 2,15,16
 52 -2 52 -2 38 -5.5 c 128,-1,17
 24 -9 24 -9 10 1 c 1,18,-1
 188 245 l 1,19,-1
 20 475 l 1,0,1
EndSplineSet
EndChar
StartChar: Y
Encoding: 89 89 58
Width: 400
Flags: W
Fore
220 34 m 2,0,1
 220 -6 220 -6 180 -6 c 1,2,-1
 180 242 l 1,3,-1
 10 475 l 1,4,5
 24 485 24 485 38.5 481.5 c 128,-1,6
 53 478 53 478 62 465 c 2,7,-1
 200 275 l 1,8,-1
 338 465 l 2,9,10
 347 478 347 478 361.5 481.5 c 128,-1,11
 376 485 376 485 390 475 c 1,12,-1
 220 242 l 1,13,-1
 220 34 l 2,0,1
EndSplineSet
EndChar
StartChar: Z
Encoding: 90 90 59
Width: 420
Flags: W
Fore
56 439 m 2,0,1
 20 439 20 439 20 475 c 1,2,-1
 380 475 l 2,3,4
 392 475 392 475 397.5 464 c 128,-1,5
 403 453 403 453 396 444 c 2,6,-1
 63 22 l 1,7,-1
 66 23 l 1,8,-1
 78 36 l 1,9,-1
 364 36 l 2,10,11
 400 36 400 36 400 0 c 1,12,-1
 40 0 l 2,13,14
 28 0 28 0 22.5 11 c 128,-1,15
 17 22 17 22 24 31 c 2,16,-1
 357 453 l 1,17,-1
 354 452 l 1,18,-1
 342 439 l 1,19,-1
 56 439 l 2,0,1
EndSplineSet
EndChar
StartChar: bracketleft
Encoding: 91 91 60
Width: 191
Flags: W
Fore
60 -86 m 1,0,-1
 60 493 l 1,1,-1
 196 493 l 1,2,3
 196 457 196 457 160 457 c 2,4,-1
 98 457 l 1,5,-1
 98 -50 l 1,6,-1
 160 -50 l 2,7,8
 196 -50 196 -50 196 -86 c 1,9,-1
 60 -86 l 1,0,-1
EndSplineSet
EndChar
StartChar: backslash
Encoding: 92 92 61
Width: 279
Flags: W
Fore
289 -20 m 1,0,1
 257 -37 257 -37 241 -4 c 2,2,-1
 -10 495 l 1,3,4
 23 511 23 511 38 479 c 2,5,-1
 289 -20 l 1,0,1
EndSplineSet
EndChar
StartChar: asciicircum
Encoding: 94 94 63
Width: 426
Flags: W
Fore
212 478 m 1,0,1
 226 478 226 478 231 467 c 2,2,-1
 378 140 l 1,3,4
 366 134 366 134 351.5 138 c 128,-1,5
 337 142 337 142 332 154 c 2,6,-1
 213 423 l 1,7,-1
 94 154 l 2,8,9
 89 142 89 142 74.5 138 c 128,-1,10
 60 134 60 134 48 140 c 1,11,-1
 195 467 l 2,12,13
 200 478 200 478 214 478 c 1,14,-1
 212 478 l 1,0,1
EndSplineSet
EndChar
StartChar: underscore
Encoding: 95 95 64
Width: 360
Flags: W
Fore
0 -187 m 1,0,-1
 0 -155 l 1,1,-1
 360 -155 l 1,2,-1
 360 -187 l 1,3,-1
 0 -187 l 1,0,-1
EndSplineSet
EndChar
StartChar: grave
Encoding: 96 96 65
Width: 216
Flags: W
Fore
169 373 m 1,0,1
 152 373 152 373 143 375.5 c 128,-1,2
 134 378 134 378 127 384 c 2,3,-1
 43 477 l 1,4,-1
 66 477 l 2,5,6
 101 477 101 477 113 459 c 2,7,-1
 169 373 l 1,0,1
EndSplineSet
EndChar
StartChar: a
Encoding: 97 97 66
Width: 370
Flags: W
Fore
175 221 m 0,0,1
 210 221 210 221 239 208 c 128,-1,2
 268 195 268 195 286 172 c 1,3,-1
 287 175 l 1,4,5
 285 178 285 178 281 182.5 c 128,-1,6
 277 187 277 187 274 189 c 1,7,-1
 274 232 l 2,8,9
 274 264 274 264 245.5 288 c 128,-1,10
 217 312 217 312 175 312 c 0,11,12
 142 312 142 312 114.5 293 c 128,-1,13
 87 274 87 274 73 247 c 1,14,15
 61 256 61 256 57.5 270.5 c 128,-1,16
 54 285 54 285 65 297 c 0,17,18
 84 320 84 320 113 332.5 c 128,-1,19
 142 345 142 345 175 345 c 0,20,21
 199 345 199 345 223 337.5 c 128,-1,22
 247 330 247 330 266.5 315.5 c 128,-1,23
 286 301 286 301 298 280 c 128,-1,24
 310 259 310 259 310 232 c 2,25,-1
 310 30 l 2,26,27
 310 -6 310 -6 274 -6 c 1,28,-1
 274 26 l 1,29,30
 277 28 277 28 281 32.5 c 128,-1,31
 285 37 285 37 287 40 c 1,32,-1
 286 43 l 1,33,34
 268 20 268 20 239 7 c 128,-1,35
 210 -6 210 -6 175 -6 c 0,36,37
 147 -6 147 -6 122.5 3 c 128,-1,38
 98 12 98 12 79.5 27 c 128,-1,39
 61 42 61 42 50.5 62.5 c 128,-1,40
 40 83 40 83 40 107 c 256,41,42
 40 131 40 131 50.5 151.5 c 128,-1,43
 61 172 61 172 79.5 187.5 c 128,-1,44
 98 203 98 203 122.5 212 c 128,-1,45
 147 221 147 221 175 221 c 0,0,1
175 27 m 256,46,47
 218 27 218 27 246 51 c 128,-1,48
 274 75 274 75 274 107 c 0,49,50
 274 123 274 123 266.5 137.5 c 128,-1,51
 259 152 259 152 246 163.5 c 128,-1,52
 233 175 233 175 214.5 181.5 c 128,-1,53
 196 188 196 188 175 188 c 256,54,55
 154 188 154 188 135.5 181.5 c 128,-1,56
 117 175 117 175 104 163.5 c 128,-1,57
 91 152 91 152 83.5 137.5 c 128,-1,58
 76 123 76 123 76 107 c 0,59,60
 76 75 76 75 104 51 c 128,-1,61
 132 27 132 27 175 27 c 256,46,47
EndSplineSet
Substitution: 0 65534 'L026' uni0E38
Substitution: 0 65534 'L026' uni0E38
EndChar
StartChar: b
Encoding: 98 98 67
Width: 380
Flags: W
Fore
96 108 m 2,0,1
 96 92 96 92 103.5 77.5 c 128,-1,2
 111 63 111 63 124 51.5 c 128,-1,3
 137 40 137 40 155.5 33.5 c 128,-1,4
 174 27 174 27 195 27 c 256,5,6
 216 27 216 27 234.5 33.5 c 128,-1,7
 253 40 253 40 266 51.5 c 128,-1,8
 279 63 279 63 286.5 77.5 c 128,-1,9
 294 92 294 92 294 108 c 2,10,-1
 294 232 l 2,11,12
 294 264 294 264 266 288 c 128,-1,13
 238 312 238 312 195 312 c 256,14,15
 152 312 152 312 124 288 c 128,-1,16
 96 264 96 264 96 232 c 2,17,-1
 96 108 l 2,0,1
96 313 m 1,18,19
 93 311 93 311 89 306.5 c 128,-1,20
 85 302 85 302 83 299 c 1,21,-1
 84 296 l 1,22,23
 102 319 102 319 131 332 c 128,-1,24
 160 345 160 345 195 345 c 0,25,26
 223 345 223 345 247.5 336 c 128,-1,27
 272 327 272 327 290.5 312 c 128,-1,28
 309 297 309 297 319.5 276.5 c 128,-1,29
 330 256 330 256 330 232 c 2,30,-1
 330 108 l 2,31,32
 330 84 330 84 319.5 63.5 c 128,-1,33
 309 43 309 43 290.5 27.5 c 128,-1,34
 272 12 272 12 247.5 3 c 128,-1,35
 223 -6 223 -6 195 -6 c 0,36,37
 160 -6 160 -6 131 7 c 128,-1,38
 102 20 102 20 84 43 c 1,39,-1
 83 40 l 1,40,41
 85 37 85 37 89 32.5 c 128,-1,42
 93 28 93 28 96 26 c 1,43,44
 95 11 95 11 87.5 2.5 c 128,-1,45
 80 -6 80 -6 60 -6 c 1,46,-1
 60 445 l 2,47,48
 60 481 60 481 96 481 c 1,49,-1
 96 313 l 1,18,19
EndSplineSet
Substitution: 0 65534 'L026' uni0E39
Substitution: 0 65534 'L026' uni0E39
EndChar
StartChar: c
Encoding: 99 99 68
Width: 344
Flags: W
Fore
185 345 m 0,0,1
 228 345 228 345 261.5 325.5 c 128,-1,2
 295 306 295 306 310 274 c 0,3,4
 314 265 314 265 312.5 257 c 128,-1,5
 311 249 311 249 306.5 243.5 c 128,-1,6
 302 238 302 238 296 234.5 c 128,-1,7
 290 231 290 231 284 231 c 1,8,9
 284 247 284 247 276.5 261.5 c 128,-1,10
 269 276 269 276 256 287.5 c 128,-1,11
 243 299 243 299 224.5 305.5 c 128,-1,12
 206 312 206 312 185 312 c 256,13,14
 164 312 164 312 145.5 305.5 c 128,-1,15
 127 299 127 299 114 287.5 c 128,-1,16
 101 276 101 276 93.5 261.5 c 128,-1,17
 86 247 86 247 86 231 c 2,18,-1
 86 107 l 2,19,20
 86 75 86 75 114 51 c 128,-1,21
 142 27 142 27 185 27 c 0,22,23
 206 27 206 27 224.5 33.5 c 128,-1,24
 243 40 243 40 256 51.5 c 128,-1,25
 269 63 269 63 276.5 77.5 c 128,-1,26
 284 92 284 92 284 108 c 1,27,28
 290 108 290 108 296 104.5 c 128,-1,29
 302 101 302 101 306.5 95.5 c 128,-1,30
 311 90 311 90 312.5 82 c 128,-1,31
 314 74 314 74 310 65 c 0,32,33
 295 33 295 33 261.5 13.5 c 128,-1,34
 228 -6 228 -6 185 -6 c 0,35,36
 157 -6 157 -6 132.5 3 c 128,-1,37
 108 12 108 12 89.5 27 c 128,-1,38
 71 42 71 42 60.5 62.5 c 128,-1,39
 50 83 50 83 50 107 c 2,40,-1
 50 231 l 2,41,42
 50 255 50 255 60.5 275.5 c 128,-1,43
 71 296 71 296 89.5 311.5 c 128,-1,44
 108 327 108 327 132.5 336 c 128,-1,45
 157 345 157 345 185 345 c 0,0,1
EndSplineSet
Substitution: 0 65534 'L026' uni0E3A
Substitution: 0 65534 'L026' uni0E3A
EndChar
StartChar: d
Encoding: 100 100 69
Width: 380
Flags: W
Fore
284 231 m 2,0,1
 284 247 284 247 276.5 261.5 c 128,-1,2
 269 276 269 276 256 287.5 c 128,-1,3
 243 299 243 299 224.5 305.5 c 128,-1,4
 206 312 206 312 185 312 c 256,5,6
 164 312 164 312 145.5 305.5 c 128,-1,7
 127 299 127 299 114 287.5 c 128,-1,8
 101 276 101 276 93.5 261.5 c 128,-1,9
 86 247 86 247 86 231 c 2,10,-1
 86 107 l 2,11,12
 86 75 86 75 114 51 c 128,-1,13
 142 27 142 27 185 27 c 256,14,15
 228 27 228 27 256 51 c 128,-1,16
 284 75 284 75 284 107 c 2,17,-1
 284 231 l 2,0,1
284 445 m 2,18,19
 284 481 284 481 320 481 c 1,20,-1
 320 30 l 2,21,22
 320 -6 320 -6 284 -6 c 1,23,-1
 284 26 l 1,24,25
 287 28 287 28 291 32.5 c 128,-1,26
 295 37 295 37 297 40 c 1,27,-1
 296 43 l 1,28,29
 278 20 278 20 249 7 c 128,-1,30
 220 -6 220 -6 185 -6 c 0,31,32
 157 -6 157 -6 132.5 3 c 128,-1,33
 108 12 108 12 89.5 27 c 128,-1,34
 71 42 71 42 60.5 62.5 c 128,-1,35
 50 83 50 83 50 107 c 2,36,-1
 50 231 l 2,37,38
 50 255 50 255 60.5 275.5 c 128,-1,39
 71 296 71 296 89.5 311.5 c 128,-1,40
 108 327 108 327 132.5 336 c 128,-1,41
 157 345 157 345 185 345 c 0,42,43
 220 345 220 345 249 332 c 128,-1,44
 278 319 278 319 296 296 c 1,45,-1
 297 299 l 1,46,47
 295 302 295 302 291 306.5 c 128,-1,48
 287 311 287 311 284 313 c 1,49,-1
 284 445 l 2,18,19
EndSplineSet
EndChar
StartChar: e
Encoding: 101 101 70
Width: 370
Flags: W
Fore
86 107 m 2,0,1
 86 75 86 75 114 51 c 128,-1,2
 142 27 142 27 185 27 c 0,3,4
 206 27 206 27 224.5 33.5 c 128,-1,5
 243 40 243 40 256 51.5 c 128,-1,6
 269 63 269 63 276.5 77.5 c 128,-1,7
 284 92 284 92 284 108 c 1,8,9
 290 108 290 108 296 104.5 c 128,-1,10
 302 101 302 101 306.5 95.5 c 128,-1,11
 311 90 311 90 312.5 82 c 128,-1,12
 314 74 314 74 310 65 c 0,13,14
 295 33 295 33 261.5 13.5 c 128,-1,15
 228 -6 228 -6 185 -6 c 0,16,17
 157 -6 157 -6 132.5 3 c 128,-1,18
 108 12 108 12 89.5 27 c 128,-1,19
 71 42 71 42 60.5 62.5 c 128,-1,20
 50 83 50 83 50 107 c 2,21,-1
 50 231 l 2,22,23
 50 255 50 255 60.5 275.5 c 128,-1,24
 71 296 71 296 89.5 311.5 c 128,-1,25
 108 327 108 327 132.5 336 c 128,-1,26
 157 345 157 345 185 345 c 256,27,28
 213 345 213 345 237.5 336 c 128,-1,29
 262 327 262 327 280.5 311.5 c 128,-1,30
 299 296 299 296 309.5 275.5 c 128,-1,31
 320 255 320 255 320 231 c 2,32,-1
 320 195 l 2,33,34
 320 187 320 187 314.5 182 c 128,-1,35
 309 177 309 177 302 177 c 2,36,-1
 86 177 l 1,37,-1
 86 107 l 2,0,1
86 210 m 1,38,-1
 284 210 l 1,39,-1
 284 231 l 2,40,41
 284 247 284 247 276.5 261.5 c 128,-1,42
 269 276 269 276 256 287.5 c 128,-1,43
 243 299 243 299 224.5 305.5 c 128,-1,44
 206 312 206 312 185 312 c 256,45,46
 164 312 164 312 145.5 305.5 c 128,-1,47
 127 299 127 299 114 287.5 c 128,-1,48
 101 276 101 276 93.5 261.5 c 128,-1,49
 86 247 86 247 86 231 c 2,50,-1
 86 210 l 1,38,-1
EndSplineSet
EndChar
StartChar: f
Encoding: 102 102 71
Width: 200
Flags: W
Fore
68 306 m 1,0,-1
 10 306 l 1,1,2
 10 339 10 339 43 339 c 2,3,-1
 68 339 l 1,4,-1
 68 390 l 2,5,6
 68 428 68 428 94.5 454.5 c 128,-1,7
 121 481 121 481 167 481 c 0,8,9
 187 481 187 481 195.5 468.5 c 128,-1,10
 204 456 204 456 196 442 c 1,11,12
 184 448 184 448 167 448 c 0,13,14
 136 448 136 448 120 431 c 128,-1,15
 104 414 104 414 104 390 c 2,16,-1
 104 339 l 1,17,-1
 167 339 l 1,18,19
 167 306 167 306 134 306 c 2,20,-1
 104 306 l 1,21,-1
 104 30 l 2,22,23
 104 -6 104 -6 68 -6 c 1,24,-1
 68 306 l 1,0,-1
EndSplineSet
EndChar
StartChar: g
Encoding: 103 103 72
Width: 380
Flags: W
Fore
284 231 m 2,0,1
 284 247 284 247 276.5 261.5 c 128,-1,2
 269 276 269 276 256 287.5 c 128,-1,3
 243 299 243 299 224.5 305.5 c 128,-1,4
 206 312 206 312 185 312 c 256,5,6
 164 312 164 312 145.5 305.5 c 128,-1,7
 127 299 127 299 114 287.5 c 128,-1,8
 101 276 101 276 93.5 261.5 c 128,-1,9
 86 247 86 247 86 231 c 2,10,-1
 86 107 l 2,11,12
 86 75 86 75 114 51 c 128,-1,13
 142 27 142 27 185 27 c 256,14,15
 228 27 228 27 256 51 c 128,-1,16
 284 75 284 75 284 107 c 2,17,-1
 284 231 l 2,0,1
284 26 m 1,18,19
 287 28 287 28 291 32.5 c 128,-1,20
 295 37 295 37 297 40 c 1,21,-1
 296 43 l 1,22,23
 278 20 278 20 249 7 c 128,-1,24
 220 -6 220 -6 185 -6 c 0,25,26
 157 -6 157 -6 132.5 3 c 128,-1,27
 108 12 108 12 89.5 27 c 128,-1,28
 71 42 71 42 60.5 62.5 c 128,-1,29
 50 83 50 83 50 107 c 2,30,-1
 50 231 l 2,31,32
 50 255 50 255 60.5 275.5 c 128,-1,33
 71 296 71 296 89.5 311.5 c 128,-1,34
 108 327 108 327 132.5 336 c 128,-1,35
 157 345 157 345 185 345 c 0,36,37
 220 345 220 345 249 332 c 128,-1,38
 278 319 278 319 296 296 c 1,39,-1
 297 299 l 1,40,41
 295 302 295 302 291 306.5 c 128,-1,42
 287 311 287 311 284 313 c 1,43,44
 285 328 285 328 292.5 336.5 c 128,-1,45
 300 345 300 345 320 345 c 1,46,-1
 320 -29 l 2,47,48
 320 -53 320 -53 309.5 -73.5 c 128,-1,49
 299 -94 299 -94 280.5 -109 c 128,-1,50
 262 -124 262 -124 237.5 -133 c 128,-1,51
 213 -142 213 -142 185 -142 c 0,52,53
 142 -142 142 -142 108.5 -122.5 c 128,-1,54
 75 -103 75 -103 60 -71 c 0,55,56
 56 -62 56 -62 57.5 -54 c 128,-1,57
 59 -46 59 -46 63.5 -40.5 c 128,-1,58
 68 -35 68 -35 74 -31.5 c 128,-1,59
 80 -28 80 -28 86 -28 c 1,60,61
 86 -44 86 -44 93.5 -58.5 c 128,-1,62
 101 -73 101 -73 114 -84.5 c 128,-1,63
 127 -96 127 -96 145.5 -102.5 c 128,-1,64
 164 -109 164 -109 185 -109 c 0,65,66
 228 -109 228 -109 256 -85 c 128,-1,67
 284 -61 284 -61 284 -29 c 2,68,-1
 284 26 l 1,18,19
EndSplineSet
EndChar
StartChar: h
Encoding: 104 104 73
Width: 390
Flags: W
Fore
60 445 m 2,0,1
 60 481 60 481 96 481 c 1,2,-1
 96 313 l 1,3,4
 93 311 93 311 89 306.5 c 128,-1,5
 85 302 85 302 83 299 c 1,6,-1
 84 296 l 1,7,8
 102 319 102 319 131 332 c 128,-1,9
 160 345 160 345 195 345 c 0,10,11
 223 345 223 345 247.5 336 c 128,-1,12
 272 327 272 327 290.5 311.5 c 128,-1,13
 309 296 309 296 319.5 275.5 c 128,-1,14
 330 255 330 255 330 231 c 2,15,-1
 330 30 l 2,16,17
 330 -6 330 -6 294 -6 c 1,18,-1
 294 231 l 2,19,20
 294 247 294 247 286.5 261.5 c 128,-1,21
 279 276 279 276 266 287.5 c 128,-1,22
 253 299 253 299 234.5 305.5 c 128,-1,23
 216 312 216 312 195 312 c 256,24,25
 174 312 174 312 155.5 305.5 c 128,-1,26
 137 299 137 299 124 287.5 c 128,-1,27
 111 276 111 276 103.5 261.5 c 128,-1,28
 96 247 96 247 96 231 c 2,29,-1
 96 30 l 2,30,31
 96 -6 96 -6 60 -6 c 1,32,-1
 60 445 l 2,0,1
EndSplineSet
EndChar
StartChar: i
Encoding: 105 105 74
Width: 156
Flags: W
Fore
60 309 m 2,0,1
 60 345 60 345 96 345 c 1,2,-1
 96 30 l 2,3,4
 96 -6 96 -6 60 -6 c 1,5,-1
 60 309 l 2,0,1
44 433 m 256,6,7
 44 447 44 447 54 457 c 128,-1,8
 64 467 64 467 78 467 c 256,9,10
 92 467 92 467 102 457 c 128,-1,11
 112 447 112 447 112 433 c 256,12,13
 112 419 112 419 102 409 c 128,-1,14
 92 399 92 399 78 399 c 256,15,16
 64 399 64 399 54 409 c 128,-1,17
 44 419 44 419 44 433 c 256,6,7
EndSplineSet
EndChar
StartChar: j
Encoding: 106 106 75
Width: 156
Flags: W
Fore
96 -51 m 2,0,1
 96 -89 96 -89 69.5 -115.5 c 128,-1,2
 43 -142 43 -142 -3 -142 c 0,3,4
 -23 -142 -23 -142 -31.5 -129.5 c 128,-1,5
 -40 -117 -40 -117 -32 -103 c 1,6,7
 -20 -109 -20 -109 -3 -109 c 0,8,9
 28 -109 28 -109 44 -92 c 128,-1,10
 60 -75 60 -75 60 -51 c 2,11,-1
 60 309 l 2,12,13
 60 345 60 345 96 345 c 1,14,-1
 96 -51 l 2,0,1
44 433 m 256,15,16
 44 447 44 447 54 457 c 128,-1,17
 64 467 64 467 78 467 c 256,18,19
 92 467 92 467 102 457 c 128,-1,20
 112 447 112 447 112 433 c 256,21,22
 112 419 112 419 102 409 c 128,-1,23
 92 399 92 399 78 399 c 256,24,25
 64 399 64 399 54 409 c 128,-1,26
 44 419 44 419 44 433 c 256,15,16
EndSplineSet
EndChar
StartChar: k
Encoding: 107 107 76
Width: 380
Flags: W
Fore
60 445 m 2,0,1
 60 481 60 481 96 481 c 1,2,-1
 96 209 l 1,3,-1
 308 344 l 1,4,5
 327 311 327 311 296 294 c 2,6,-1
 217 244 l 1,7,8
 209 244 209 244 204.5 244 c 128,-1,9
 200 244 200 244 192 242 c 2,10,-1
 189 241 l 1,11,-1
 195 241 l 2,12,13
 223 241 223 241 247.5 232 c 128,-1,14
 272 223 272 223 290.5 207.5 c 128,-1,15
 309 192 309 192 319.5 171.5 c 128,-1,16
 330 151 330 151 330 127 c 2,17,-1
 330 30 l 2,18,19
 330 -6 330 -6 294 -6 c 1,20,-1
 294 127 l 2,21,22
 294 143 294 143 286.5 157.5 c 128,-1,23
 279 172 279 172 266 183.5 c 128,-1,24
 253 195 253 195 234.5 201.5 c 128,-1,25
 216 208 216 208 195 208 c 256,26,27
 174 208 174 208 155.5 201.5 c 128,-1,28
 137 195 137 195 124 183.5 c 128,-1,29
 111 172 111 172 103.5 157.5 c 128,-1,30
 96 143 96 143 96 127 c 2,31,-1
 96 30 l 2,32,33
 96 -6 96 -6 60 -6 c 1,34,-1
 60 445 l 2,0,1
EndSplineSet
EndChar
StartChar: l
Encoding: 108 108 77
Width: 192
Flags: W
Fore
159 -6 m 0,0,1
 113 -6 113 -6 86.5 20.5 c 128,-1,2
 60 47 60 47 60 85 c 2,3,-1
 60 445 l 2,4,5
 60 481 60 481 96 481 c 1,6,-1
 96 85 l 2,7,8
 96 61 96 61 112 44 c 128,-1,9
 128 27 128 27 159 27 c 0,10,11
 176 27 176 27 188 33 c 1,12,13
 196 19 196 19 187.5 6.5 c 128,-1,14
 179 -6 179 -6 159 -6 c 0,0,1
EndSplineSet
EndChar
StartChar: m
Encoding: 109 109 78
Width: 522
Flags: W
Fore
243 254 m 2,0,1
 243 278 243 278 221.5 295 c 128,-1,2
 200 312 200 312 169 312 c 256,3,4
 138 312 138 312 117 295 c 128,-1,5
 96 278 96 278 96 254 c 2,6,-1
 96 30 l 2,7,8
 96 -6 96 -6 60 -6 c 1,9,-1
 60 309 l 2,10,11
 60 345 60 345 96 345 c 1,12,-1
 96 327 l 1,13,14
 93 325 93 325 88 320.5 c 128,-1,15
 83 316 83 316 81 313 c 1,16,-1
 84 312 l 1,17,18
 99 327 99 327 121 336 c 128,-1,19
 143 345 143 345 169 345 c 0,20,21
 196 345 196 345 219.5 335 c 128,-1,22
 243 325 243 325 258 308 c 1,23,24
 252 300 252 300 250 292 c 1,25,-1
 251 289 l 1,26,27
 263 314 263 314 290 329.5 c 128,-1,28
 317 345 317 345 352 345 c 0,29,30
 375 345 375 345 395 338 c 128,-1,31
 415 331 415 331 430 318.5 c 128,-1,32
 445 306 445 306 453.5 289.5 c 128,-1,33
 462 273 462 273 462 254 c 2,34,-1
 462 30 l 2,35,36
 462 -6 462 -6 426 -6 c 1,37,-1
 426 254 l 2,38,39
 426 278 426 278 404.5 295 c 128,-1,40
 383 312 383 312 352 312 c 256,41,42
 321 312 321 312 300 295 c 128,-1,43
 279 278 279 278 279 254 c 2,44,-1
 279 30 l 2,45,46
 279 -6 279 -6 243 -6 c 1,47,-1
 243 254 l 2,0,1
EndSplineSet
EndChar
StartChar: n
Encoding: 110 110 79
Width: 390
Flags: W
Fore
60 309 m 2,0,1
 60 345 60 345 96 345 c 1,2,-1
 96 313 l 1,3,4
 93 311 93 311 89 306.5 c 128,-1,5
 85 302 85 302 83 299 c 1,6,-1
 84 296 l 1,7,8
 102 319 102 319 131 332 c 128,-1,9
 160 345 160 345 195 345 c 0,10,11
 223 345 223 345 247.5 336 c 128,-1,12
 272 327 272 327 290.5 311.5 c 128,-1,13
 309 296 309 296 319.5 275.5 c 128,-1,14
 330 255 330 255 330 231 c 2,15,-1
 330 30 l 2,16,17
 330 -6 330 -6 294 -6 c 1,18,-1
 294 231 l 2,19,20
 294 247 294 247 286.5 261.5 c 128,-1,21
 279 276 279 276 266 287.5 c 128,-1,22
 253 299 253 299 234.5 305.5 c 128,-1,23
 216 312 216 312 195 312 c 256,24,25
 174 312 174 312 155.5 305.5 c 128,-1,26
 137 299 137 299 124 287.5 c 128,-1,27
 111 276 111 276 103.5 261.5 c 128,-1,28
 96 247 96 247 96 231 c 2,29,-1
 96 30 l 2,30,31
 96 -6 96 -6 60 -6 c 1,32,-1
 60 309 l 2,0,1
EndSplineSet
EndChar
StartChar: o
Encoding: 111 111 80
Width: 431
Flags: W
Fore
40 169 m 256,0,1
 40 205 40 205 53.5 237 c 128,-1,2
 67 269 67 269 91 293 c 128,-1,3
 115 317 115 317 147 331 c 128,-1,4
 179 345 179 345 215 345 c 256,5,6
 251 345 251 345 283 331 c 128,-1,7
 315 317 315 317 339 293 c 128,-1,8
 363 269 363 269 377 237 c 128,-1,9
 391 205 391 205 391 169 c 256,10,11
 391 133 391 133 377 101 c 128,-1,12
 363 69 363 69 339 45 c 128,-1,13
 315 21 315 21 283 7.5 c 128,-1,14
 251 -6 251 -6 215 -6 c 256,15,16
 179 -6 179 -6 147 7.5 c 128,-1,17
 115 21 115 21 91 45 c 128,-1,18
 67 69 67 69 53.5 101 c 128,-1,19
 40 133 40 133 40 169 c 256,0,1
76 169 m 256,20,21
 76 139 76 139 87 113.5 c 128,-1,22
 98 88 98 88 116.5 68.5 c 128,-1,23
 135 49 135 49 160.5 38 c 128,-1,24
 186 27 186 27 215 27 c 256,25,26
 244 27 244 27 269.5 38 c 128,-1,27
 295 49 295 49 314 68.5 c 128,-1,28
 333 88 333 88 344 113.5 c 128,-1,29
 355 139 355 139 355 169 c 256,30,31
 355 199 355 199 344 225 c 128,-1,32
 333 251 333 251 314 270.5 c 128,-1,33
 295 290 295 290 269.5 301 c 128,-1,34
 244 312 244 312 215 312 c 256,35,36
 186 312 186 312 160.5 301 c 128,-1,37
 135 290 135 290 116.5 270.5 c 128,-1,38
 98 251 98 251 87 225 c 128,-1,39
 76 199 76 199 76 169 c 256,20,21
EndSplineSet
EndChar
StartChar: p
Encoding: 112 112 81
Width: 380
Flags: W
Fore
96 107 m 2,0,1
 96 75 96 75 124 51 c 128,-1,2
 152 27 152 27 195 27 c 256,3,4
 238 27 238 27 266 51 c 128,-1,5
 294 75 294 75 294 107 c 2,6,-1
 294 231 l 2,7,8
 294 247 294 247 286.5 261.5 c 128,-1,9
 279 276 279 276 266 287.5 c 128,-1,10
 253 299 253 299 234.5 305.5 c 128,-1,11
 216 312 216 312 195 312 c 256,12,13
 174 312 174 312 155.5 305.5 c 128,-1,14
 137 299 137 299 124 287.5 c 128,-1,15
 111 276 111 276 103.5 261.5 c 128,-1,16
 96 247 96 247 96 231 c 2,17,-1
 96 107 l 2,0,1
60 309 m 2,18,19
 60 345 60 345 96 345 c 1,20,-1
 96 313 l 1,21,22
 93 311 93 311 89 306.5 c 128,-1,23
 85 302 85 302 83 299 c 1,24,-1
 84 296 l 1,25,26
 102 319 102 319 131 332 c 128,-1,27
 160 345 160 345 195 345 c 0,28,29
 223 345 223 345 247.5 336 c 128,-1,30
 272 327 272 327 290.5 311.5 c 128,-1,31
 309 296 309 296 319.5 275.5 c 128,-1,32
 330 255 330 255 330 231 c 2,33,-1
 330 107 l 2,34,35
 330 83 330 83 319.5 62.5 c 128,-1,36
 309 42 309 42 290.5 27 c 128,-1,37
 272 12 272 12 247.5 3 c 128,-1,38
 223 -6 223 -6 195 -6 c 0,39,40
 160 -6 160 -6 131 7 c 128,-1,41
 102 20 102 20 84 43 c 1,42,-1
 83 40 l 1,43,44
 85 37 85 37 89 32.5 c 128,-1,45
 93 28 93 28 96 26 c 1,46,-1
 96 -106 l 2,47,48
 96 -142 96 -142 60 -142 c 1,49,-1
 60 309 l 2,18,19
EndSplineSet
EndChar
StartChar: q
Encoding: 113 113 82
Width: 380
Flags: W
Fore
284 231 m 2,0,1
 284 247 284 247 276.5 261.5 c 128,-1,2
 269 276 269 276 256 287.5 c 128,-1,3
 243 299 243 299 224.5 305.5 c 128,-1,4
 206 312 206 312 185 312 c 256,5,6
 164 312 164 312 145.5 305.5 c 128,-1,7
 127 299 127 299 114 287.5 c 128,-1,8
 101 276 101 276 93.5 261.5 c 128,-1,9
 86 247 86 247 86 231 c 2,10,-1
 86 107 l 2,11,12
 86 75 86 75 114 51 c 128,-1,13
 142 27 142 27 185 27 c 256,14,15
 228 27 228 27 256 51 c 128,-1,16
 284 75 284 75 284 107 c 2,17,-1
 284 231 l 2,0,1
284 26 m 1,18,19
 287 28 287 28 291 32.5 c 128,-1,20
 295 37 295 37 297 40 c 1,21,-1
 296 43 l 1,22,23
 278 20 278 20 249 7 c 128,-1,24
 220 -6 220 -6 185 -6 c 0,25,26
 157 -6 157 -6 132.5 3 c 128,-1,27
 108 12 108 12 89.5 27 c 128,-1,28
 71 42 71 42 60.5 62.5 c 128,-1,29
 50 83 50 83 50 107 c 2,30,-1
 50 231 l 2,31,32
 50 255 50 255 60.5 275.5 c 128,-1,33
 71 296 71 296 89.5 311.5 c 128,-1,34
 108 327 108 327 132.5 336 c 128,-1,35
 157 345 157 345 185 345 c 0,36,37
 220 345 220 345 249 332 c 128,-1,38
 278 319 278 319 296 296 c 1,39,-1
 297 299 l 1,40,41
 295 302 295 302 291 306.5 c 128,-1,42
 287 311 287 311 284 313 c 1,43,44
 285 328 285 328 292.5 336.5 c 128,-1,45
 300 345 300 345 320 345 c 1,46,-1
 320 -106 l 2,47,48
 320 -142 320 -142 284 -142 c 1,49,-1
 284 26 l 1,18,19
EndSplineSet
EndChar
StartChar: r
Encoding: 114 114 83
Width: 251
Flags: W
Fore
231 341 m 1,0,1
 228 309 228 309 195 312 c 0,2,3
 174 312 174 312 155.5 305.5 c 128,-1,4
 137 299 137 299 124 287.5 c 128,-1,5
 111 276 111 276 103.5 261.5 c 128,-1,6
 96 247 96 247 96 231 c 2,7,-1
 96 30 l 2,8,9
 96 -6 96 -6 60 -6 c 1,10,-1
 60 309 l 2,11,12
 60 345 60 345 96 345 c 1,13,-1
 96 311 l 1,14,15
 92 307 92 307 88.5 302.5 c 128,-1,16
 85 298 85 298 83 294 c 1,17,-1
 84 291 l 1,18,19
 102 317 102 317 131 331 c 128,-1,20
 160 345 160 345 195 345 c 0,21,22
 204 345 204 345 213.5 344 c 128,-1,23
 223 343 223 343 231 341 c 1,0,1
EndSplineSet
EndChar
StartChar: s
Encoding: 115 115 84
Width: 329
Flags: W
Fore
283 250 m 0,0,1
 286 231 286 231 275 221.5 c 128,-1,2
 264 212 264 212 247 214 c 1,3,4
 251 233 251 233 246.5 250.5 c 128,-1,5
 242 268 242 268 230.5 281.5 c 128,-1,6
 219 295 219 295 201.5 303.5 c 128,-1,7
 184 312 184 312 164 312 c 256,8,9
 144 312 144 312 128.5 306 c 128,-1,10
 113 300 113 300 101.5 290.5 c 128,-1,11
 90 281 90 281 84.5 268.5 c 128,-1,12
 79 256 79 256 80 244 c 0,13,14
 82 220 82 220 102 210 c 128,-1,15
 122 200 122 200 167 191 c 0,16,17
 195 185 195 185 219 179.5 c 128,-1,18
 243 174 243 174 260 165 c 128,-1,19
 277 156 277 156 287 142.5 c 128,-1,20
 297 129 297 129 299 107 c 256,21,22
 301 85 301 85 290.5 64.5 c 128,-1,23
 280 44 280 44 261.5 28.5 c 128,-1,24
 243 13 243 13 217.5 3.5 c 128,-1,25
 192 -6 192 -6 164 -6 c 0,26,27
 114 -6 114 -6 76.5 20.5 c 128,-1,28
 39 47 39 47 31 88 c 0,29,30
 28 105 28 105 37 115.5 c 128,-1,31
 46 126 46 126 66 124 c 1,32,33
 61 103 61 103 68 85.5 c 128,-1,34
 75 68 75 68 90 55 c 128,-1,35
 105 42 105 42 124.5 34.5 c 128,-1,36
 144 27 144 27 164 27 c 0,37,38
 185 27 185 27 203.5 33.5 c 128,-1,39
 222 40 222 40 235.5 51 c 128,-1,40
 249 62 249 62 256.5 76 c 128,-1,41
 264 90 264 90 263 105 c 0,42,43
 261 128 261 128 233 138.5 c 128,-1,44
 205 149 205 149 161 158 c 0,45,46
 132 164 132 164 110.5 169.5 c 128,-1,47
 89 175 89 175 75 184 c 128,-1,48
 61 193 61 193 53.5 206 c 128,-1,49
 46 219 46 219 44 240 c 0,50,51
 42 260 42 260 50 279 c 128,-1,52
 58 298 58 298 73.5 312.5 c 128,-1,53
 89 327 89 327 112 336 c 128,-1,54
 135 345 135 345 164 345 c 0,55,56
 216 345 216 345 246 318 c 128,-1,57
 276 291 276 291 283 250 c 0,0,1
EndSplineSet
EndChar
StartChar: t
Encoding: 116 116 85
Width: 200
Flags: W
Fore
167 -6 m 0,0,1
 121 -6 121 -6 94.5 20.5 c 128,-1,2
 68 47 68 47 68 85 c 2,3,-1
 68 306 l 1,4,-1
 10 306 l 1,5,6
 10 339 10 339 43 339 c 2,7,-1
 68 339 l 1,8,-1
 68 445 l 2,9,10
 68 481 68 481 104 481 c 1,11,-1
 104 339 l 1,12,-1
 167 339 l 1,13,14
 167 306 167 306 134 306 c 2,15,-1
 104 306 l 1,16,-1
 104 85 l 2,17,18
 104 61 104 61 120 44 c 128,-1,19
 136 27 136 27 167 27 c 0,20,21
 184 27 184 27 196 33 c 1,22,23
 204 19 204 19 195.5 6.5 c 128,-1,24
 187 -6 187 -6 167 -6 c 0,0,1
EndSplineSet
EndChar
StartChar: u
Encoding: 117 117 86
Width: 390
Flags: W
Fore
330 30 m 2,0,1
 330 -6 330 -6 294 -6 c 1,2,-1
 294 26 l 1,3,4
 297 28 297 28 301 32.5 c 128,-1,5
 305 37 305 37 307 40 c 1,6,-1
 306 43 l 1,7,8
 288 20 288 20 259 7 c 128,-1,9
 230 -6 230 -6 195 -6 c 0,10,11
 167 -6 167 -6 142.5 3 c 128,-1,12
 118 12 118 12 99.5 27.5 c 128,-1,13
 81 43 81 43 70.5 63.5 c 128,-1,14
 60 84 60 84 60 108 c 2,15,-1
 60 309 l 2,16,17
 60 345 60 345 96 345 c 1,18,-1
 96 108 l 2,19,20
 96 92 96 92 103.5 77.5 c 128,-1,21
 111 63 111 63 124 51.5 c 128,-1,22
 137 40 137 40 155.5 33.5 c 128,-1,23
 174 27 174 27 195 27 c 256,24,25
 216 27 216 27 234.5 33.5 c 128,-1,26
 253 40 253 40 266 51.5 c 128,-1,27
 279 63 279 63 286.5 77.5 c 128,-1,28
 294 92 294 92 294 108 c 2,29,-1
 294 309 l 2,30,31
 294 345 294 345 330 345 c 1,32,-1
 330 30 l 2,0,1
EndSplineSet
EndChar
StartChar: v
Encoding: 118 118 87
Width: 336
Flags: W
Fore
168 -6 m 256,0,1
 156 -6 156 -6 152 5 c 2,2,-1
 15 342 l 1,3,4
 29 348 29 348 41 342.5 c 128,-1,5
 53 337 53 337 58 324 c 2,6,-1
 166 55 l 1,7,-1
 160 35 l 1,8,-1
 161 32 l 1,9,-1
 278 324 l 2,10,11
 283 337 283 337 295 342.5 c 128,-1,12
 307 348 307 348 321 342 c 1,13,-1
 184 5 l 2,14,15
 180 -6 180 -6 168 -6 c 256,0,1
EndSplineSet
EndChar
StartChar: w
Encoding: 119 119 88
Width: 484
Flags: W
Fore
240 243 m 1,0,-1
 159 -6 l 1,1,2
 145 -6 145 -6 137.5 1 c 128,-1,3
 130 8 130 8 125 21 c 2,4,-1
 15 342 l 1,5,6
 46 352 46 352 57 321 c 2,7,-1
 146 61 l 1,8,-1
 142 42 l 1,9,-1
 143 39 l 1,10,-1
 225 296 l 2,11,12
 230 309 230 309 242 309 c 256,13,14
 254 309 254 309 259 296 c 2,15,-1
 334 61 l 1,16,-1
 330 42 l 1,17,-1
 331 39 l 1,18,-1
 427 321 l 2,19,20
 437 352 437 352 469 342 c 1,21,-1
 359 21 l 2,22,23
 354 8 354 8 346.5 1 c 128,-1,24
 339 -6 339 -6 325 -6 c 1,25,-1
 237 264 l 1,26,-1
 236 261 l 1,27,-1
 240 243 l 1,0,-1
EndSplineSet
EndChar
StartChar: x
Encoding: 120 120 89
Width: 338
Flags: W
Fore
323 3 m 1,0,1
 297 -17 297 -17 277 9 c 2,2,-1
 169 153 l 1,3,-1
 61 9 l 2,4,5
 41 -17 41 -17 15 3 c 1,6,-1
 148 181 l 1,7,-1
 31 337 l 1,8,9
 58 356 58 356 78 330 c 2,10,-1
 169 209 l 1,11,-1
 260 330 l 2,12,13
 280 356 280 356 307 337 c 1,14,-1
 190 181 l 1,15,-1
 323 3 l 1,0,1
EndSplineSet
EndChar
StartChar: y
Encoding: 121 121 90
Width: 336
Flags: W
Fore
57 -140 m 0,0,1
 18 -149 18 -149 15 -113 c 1,2,3
 22 -113 22 -113 27 -112.5 c 128,-1,4
 32 -112 32 -112 40 -110 c 0,5,6
 76 -102 76 -102 97.5 -83 c 128,-1,7
 119 -64 119 -64 135 -26 c 2,8,-1
 150 10 l 1,9,-1
 15 342 l 1,10,11
 29 348 29 348 41 342.5 c 128,-1,12
 53 337 53 337 58 324 c 2,13,-1
 166 55 l 1,14,-1
 160 35 l 1,15,-1
 161 32 l 1,16,-1
 278 324 l 2,17,18
 283 337 283 337 295 342.5 c 128,-1,19
 307 348 307 348 321 342 c 1,20,-1
 167 -36 l 2,21,22
 149 -81 149 -81 123.5 -105.5 c 128,-1,23
 98 -130 98 -130 57 -140 c 0,0,1
EndSplineSet
EndChar
StartChar: z
Encoding: 122 122 91
Width: 302
Flags: W
Fore
48 306 m 2,0,1
 15 306 15 306 15 339 c 1,2,-1
 269 339 l 2,3,4
 280 339 280 339 285.5 328.5 c 128,-1,5
 291 318 291 318 283 309 c 2,6,-1
 52 19 l 1,7,-1
 55 20 l 1,8,-1
 67 33 l 1,9,-1
 254 33 l 2,10,11
 287 33 287 33 287 0 c 1,12,-1
 33 0 l 2,13,14
 22 0 22 0 16.5 10.5 c 128,-1,15
 11 21 11 21 19 30 c 2,16,-1
 250 320 l 1,17,-1
 247 319 l 1,18,-1
 235 306 l 1,19,-1
 48 306 l 2,0,1
EndSplineSet
EndChar
StartChar: braceleft
Encoding: 123 123 92
Width: 191
Flags: W
Fore
24 204 m 256,0,1
 24 217 24 217 36 217 c 0,2,3
 62 217 62 217 72 233.5 c 128,-1,4
 82 250 82 250 82 279 c 2,5,-1
 82 406 l 2,6,7
 82 448 82 448 99.5 470.5 c 128,-1,8
 117 493 117 493 149 493 c 2,9,-1
 196 493 l 1,10,11
 196 461 196 461 164 461 c 2,12,-1
 158 461 l 2,13,14
 143 461 143 461 132.5 452 c 128,-1,15
 122 443 122 443 122 415 c 2,16,-1
 122 286 l 2,17,18
 122 248 122 248 110.5 229.5 c 128,-1,19
 99 211 99 211 73 204 c 1,20,21
 99 197 99 197 110.5 178.5 c 128,-1,22
 122 160 122 160 122 122 c 2,23,-1
 122 -7 l 2,24,25
 122 -35 122 -35 132.5 -44 c 128,-1,26
 143 -53 143 -53 158 -53 c 2,27,-1
 164 -53 l 2,28,29
 196 -53 196 -53 196 -85 c 1,30,-1
 149 -85 l 2,31,32
 117 -85 117 -85 99.5 -62.5 c 128,-1,33
 82 -40 82 -40 82 2 c 2,34,-1
 82 129 l 2,35,36
 82 158 82 158 72 174.5 c 128,-1,37
 62 191 62 191 36 191 c 0,38,39
 24 191 24 191 24 204 c 256,0,1
EndSplineSet
EndChar
StartChar: bar
Encoding: 124 124 93
Width: 154
Flags: W
Fore
60 493 m 2,0,1
 60 527 60 527 94 527 c 1,2,-1
 94 -70 l 2,3,4
 94 -104 94 -104 60 -104 c 1,5,-1
 60 493 l 2,0,1
EndSplineSet
EndChar
StartChar: asciitilde
Encoding: 126 126 95
Width: 433
Flags: W
Fore
43 176 m 1,0,1
 19 209 19 209 52 227 c 0,2,3
 81 240 81 240 118 240 c 0,4,5
 160 240 160 240 216 215.5 c 128,-1,6
 272 191 272 191 303 191 c 0,7,8
 352 191 352 191 390 234 c 1,9,10
 404 223 404 223 404.5 210 c 128,-1,11
 405 197 405 197 391 186 c 0,12,13
 355 156 355 156 303 156 c 0,14,15
 264 156 264 156 200 183 c 0,16,17
 176 194 176 194 155.5 199 c 128,-1,18
 135 204 135 204 118 204 c 0,19,20
 93 204 93 204 74.5 196 c 128,-1,21
 56 188 56 188 43 176 c 1,0,1
EndSplineSet
EndChar
StartChar: quotedbl
Encoding: 34 34 97
Width: 232
Flags: W
Fore
50 433 m 2,0,1
 48 458 48 458 61.5 469.5 c 128,-1,2
 75 481 75 481 98 481 c 1,3,-1
 92 375 l 2,4,5
 92 361 92 361 82 349 c 128,-1,6
 72 337 72 337 56 337 c 1,7,-1
 50 433 l 2,0,1
137 433 m 2,8,9
 135 458 135 458 148.5 469.5 c 128,-1,10
 162 481 162 481 185 481 c 1,11,-1
 179 375 l 2,12,13
 179 361 179 361 169 349 c 128,-1,14
 159 337 159 337 143 337 c 1,15,-1
 137 433 l 2,8,9
EndSplineSet
EndChar
StartChar: exclam
Encoding: 33 33 98
Width: 147
Flags: W
Fore
46 426 m 2,0,1
 45 452 45 452 60 466.5 c 128,-1,2
 75 481 75 481 104 481 c 1,3,-1
 92 134 l 2,4,5
 90 96 90 96 56 96 c 1,6,-1
 46 426 l 2,0,1
36 31 m 256,7,8
 36 47 36 47 46.5 58 c 128,-1,9
 57 69 57 69 73 69 c 256,10,11
 89 69 89 69 100 58 c 128,-1,12
 111 47 111 47 111 31 c 256,13,14
 111 15 111 15 100 4.5 c 128,-1,15
 89 -6 89 -6 73 -6 c 256,16,17
 57 -6 57 -6 46.5 4.5 c 128,-1,18
 36 15 36 15 36 31 c 256,7,8
EndSplineSet
EndChar
StartChar: exclamdown
Encoding: 161 161 100
Width: 147
Flags: W
Fore
102 -87 m 2,0,1
 103 -113 103 -113 88 -127.5 c 128,-1,2
 73 -142 73 -142 44 -142 c 1,3,-1
 56 205 l 2,4,5
 58 243 58 243 92 243 c 1,6,-1
 102 -87 l 2,0,1
112 308 m 256,7,8
 112 292 112 292 101.5 281 c 128,-1,9
 91 270 91 270 75 270 c 256,10,11
 59 270 59 270 48 281 c 128,-1,12
 37 292 37 292 37 308 c 256,13,14
 37 324 37 324 48 334.5 c 128,-1,15
 59 345 59 345 75 345 c 256,16,17
 91 345 91 345 101.5 334.5 c 128,-1,18
 112 324 112 324 112 308 c 256,7,8
EndSplineSet
EndChar
StartChar: cent
Encoding: 162 162 101
Width: 344
Flags: W
Fore
168 361 m 2,0,1
 168 395 168 395 202 395 c 1,2,-1
 202 344 l 1,3,4
 239 340 239 340 267.5 321.5 c 128,-1,5
 296 303 296 303 310 274 c 0,6,7
 314 265 314 265 312.5 257 c 128,-1,8
 311 249 311 249 306.5 243.5 c 128,-1,9
 302 238 302 238 296 234.5 c 128,-1,10
 290 231 290 231 284 231 c 1,11,12
 284 260 284 260 261 283 c 128,-1,13
 238 306 238 306 202 311 c 1,14,-1
 202 28 l 1,15,16
 238 33 238 33 261 56 c 128,-1,17
 284 79 284 79 284 108 c 1,18,19
 290 108 290 108 296 104.5 c 128,-1,20
 302 101 302 101 306.5 95.5 c 128,-1,21
 311 90 311 90 312.5 82 c 128,-1,22
 314 74 314 74 310 65 c 0,23,24
 296 36 296 36 267.5 17.5 c 128,-1,25
 239 -1 239 -1 202 -5 c 1,26,-1
 202 -22 l 2,27,28
 202 -56 202 -56 168 -56 c 1,29,-1
 168 -5 l 1,30,31
 117 0 117 0 83.5 31.5 c 128,-1,32
 50 63 50 63 50 107 c 2,33,-1
 50 231 l 2,34,35
 50 275 50 275 83.5 307 c 128,-1,36
 117 339 117 339 168 344 c 1,37,-1
 168 361 l 2,0,1
86 231 m 2,38,-1
 86 107 l 2,39,40
 86 78 86 78 109 55.5 c 128,-1,41
 132 33 132 33 168 28 c 1,42,-1
 168 311 l 1,43,44
 132 306 132 306 109 283 c 128,-1,45
 86 260 86 260 86 231 c 2,38,-1
EndSplineSet
EndChar
StartChar: sterling
Encoding: 163 163 102
Width: 382
Flags: W
Fore
41 220 m 1,0,1
 41 256 41 256 77 256 c 2,2,-1
 125 256 l 1,3,4
 122 279 122 279 120 300.5 c 128,-1,5
 118 322 118 322 118 345 c 0,6,7
 118 375 118 375 128 400 c 128,-1,8
 138 425 138 425 155.5 443 c 128,-1,9
 173 461 173 461 197 471 c 128,-1,10
 221 481 221 481 250 481 c 0,11,12
 276 481 276 481 295.5 475 c 128,-1,13
 315 469 315 469 326 459 c 0,14,15
 336 451 336 451 335.5 439.5 c 128,-1,16
 335 428 335 428 327 421 c 1,17,18
 299 446 299 446 247 446 c 0,19,20
 202 446 202 446 179.5 419 c 128,-1,21
 157 392 157 392 157 344 c 0,22,23
 157 328 157 328 158.5 304.5 c 128,-1,24
 160 281 160 281 162 256 c 1,25,-1
 279 256 l 1,26,27
 279 220 279 220 243 220 c 2,28,-1
 166 220 l 1,29,30
 168 197 168 197 170 179 c 128,-1,31
 172 161 172 161 172 153 c 0,32,33
 172 110 172 110 158 83 c 128,-1,34
 144 56 144 56 115 36 c 1,35,-1
 315 36 l 2,36,37
 351 36 351 36 351 0 c 1,38,-1
 51 0 l 1,39,40
 51 12 51 12 55 22 c 128,-1,41
 59 32 59 32 67 37 c 0,42,43
 78 44 78 44 90 54.5 c 128,-1,44
 102 65 102 65 112 79 c 128,-1,45
 122 93 122 93 128.5 110 c 128,-1,46
 135 127 135 127 135 146 c 256,47,48
 135 165 135 165 133.5 183.5 c 128,-1,49
 132 202 132 202 130 220 c 1,50,-1
 41 220 l 1,0,1
EndSplineSet
EndChar
StartChar: currency
Encoding: 164 164 103
Width: 493
Flags: W
Fore
100 124 m 1,0,1
 60 174 60 174 60 238 c 0,2,3
 60 269 60 269 69.5 299 c 128,-1,4
 79 329 79 329 100 354 c 1,5,-1
 60 395 l 1,6,-1
 90 426 l 1,7,-1
 131 384 l 1,8,9
 156 404 156 404 186.5 414.5 c 128,-1,10
 217 425 217 425 246 425 c 0,11,12
 311 425 311 425 363 384 c 1,13,-1
 406 426 l 1,14,-1
 435 395 l 1,15,-1
 394 354 l 1,16,17
 414 331 414 331 423.5 300.5 c 128,-1,18
 433 270 433 270 433 238 c 0,19,20
 433 208 433 208 423.5 178.5 c 128,-1,21
 414 149 414 149 394 124 c 1,22,-1
 435 82 l 1,23,-1
 405 52 l 1,24,-1
 363 95 l 1,25,26
 339 73 339 73 308.5 62.5 c 128,-1,27
 278 52 278 52 246 52 c 256,28,29
 214 52 214 52 185 62 c 128,-1,30
 156 72 156 72 131 95 c 1,31,-1
 90 52 l 1,32,-1
 60 82 l 1,33,-1
 100 124 l 1,0,1
100 238 m 256,34,35
 100 207 100 207 111.5 179.5 c 128,-1,36
 123 152 123 152 142.5 131.5 c 128,-1,37
 162 111 162 111 189 99 c 128,-1,38
 216 87 216 87 246 87 c 256,39,40
 276 87 276 87 303 99 c 128,-1,41
 330 111 330 111 349.5 131.5 c 128,-1,42
 369 152 369 152 380.5 179.5 c 128,-1,43
 392 207 392 207 392 238 c 256,44,45
 392 269 392 269 380.5 296.5 c 128,-1,46
 369 324 369 324 349.5 344.5 c 128,-1,47
 330 365 330 365 303 377 c 128,-1,48
 276 389 276 389 246 389 c 256,49,50
 216 389 216 389 189 377 c 128,-1,51
 162 365 162 365 142.5 344.5 c 128,-1,52
 123 324 123 324 111.5 296.5 c 128,-1,53
 100 269 100 269 100 238 c 256,34,35
EndSplineSet
EndChar
StartChar: yen
Encoding: 165 165 104
Width: 400
Flags: W
Fore
56 265 m 1,0,1
 56 301 56 301 92 301 c 2,2,-1
 137 301 l 1,3,-1
 10 475 l 1,4,5
 24 485 24 485 38.5 481.5 c 128,-1,6
 53 478 53 478 62 465 c 2,7,-1
 200 275 l 1,8,-1
 338 465 l 2,9,10
 347 478 347 478 361.5 481.5 c 128,-1,11
 376 485 376 485 390 475 c 1,12,-1
 263 301 l 1,13,-1
 344 301 l 1,14,15
 344 265 344 265 308 265 c 2,16,-1
 237 265 l 1,17,-1
 220 242 l 1,18,-1
 220 211 l 1,19,-1
 344 211 l 1,20,21
 344 175 344 175 308 175 c 2,22,-1
 220 175 l 1,23,-1
 220 34 l 2,24,25
 220 -6 220 -6 180 -6 c 1,26,-1
 180 175 l 1,27,-1
 56 175 l 1,28,29
 56 211 56 211 92 211 c 2,30,-1
 180 211 l 1,31,-1
 180 242 l 1,32,-1
 163 265 l 1,33,-1
 56 265 l 1,0,1
EndSplineSet
EndChar
StartChar: brokenbar
Encoding: 166 166 105
Width: 154
Flags: W
Fore
60 493 m 2,0,1
 60 527 60 527 94 527 c 1,2,-1
 94 281 l 2,3,4
 94 247 94 247 60 247 c 1,5,-1
 60 493 l 2,0,1
60 142 m 2,6,7
 60 176 60 176 94 176 c 1,8,-1
 94 -70 l 2,9,10
 94 -104 94 -104 60 -104 c 1,11,-1
 60 142 l 2,6,7
EndSplineSet
EndChar
StartChar: section
Encoding: 167 167 106
Width: 393
Flags: W
Fore
333 229 m 0,0,1
 333 204 333 204 322 184.5 c 128,-1,2
 311 165 311 165 293 148 c 1,3,4
 301 140 301 140 308 125 c 128,-1,5
 315 110 315 110 315 92 c 0,6,7
 315 45 315 45 278 19.5 c 128,-1,8
 241 -6 241 -6 185 -6 c 0,9,10
 161 -6 161 -6 139 -1 c 128,-1,11
 117 4 117 4 104 12 c 0,12,13
 93 20 93 20 90 32 c 128,-1,14
 87 44 87 44 95 58 c 1,15,16
 109 44 109 44 132 36 c 128,-1,17
 155 28 155 28 187 28 c 0,18,19
 227 28 227 28 252.5 43.5 c 128,-1,20
 278 59 278 59 278 88 c 0,21,22
 278 115 278 115 258 131.5 c 128,-1,23
 238 148 238 148 181 165 c 0,24,25
 120 183 120 183 90 204.5 c 128,-1,26
 60 226 60 226 60 266 c 0,27,28
 60 283 60 283 69 301.5 c 128,-1,29
 78 320 78 320 104 340 c 1,30,31
 94 349 94 349 89.5 362 c 128,-1,32
 85 375 85 375 85 389 c 0,33,34
 85 431 85 431 119.5 456 c 128,-1,35
 154 481 154 481 208 481 c 0,36,37
 231 481 231 481 253 476 c 128,-1,38
 275 471 275 471 289 461 c 0,39,40
 297 456 297 456 297 444 c 128,-1,41
 297 432 297 432 291 424 c 1,42,43
 277 433 277 433 254 441.5 c 128,-1,44
 231 450 231 450 203 450 c 0,45,46
 170 450 170 450 146.5 435 c 128,-1,47
 123 420 123 420 123 395 c 0,48,49
 123 368 123 368 151 354 c 128,-1,50
 179 340 179 340 224 327 c 0,51,52
 247 319 247 319 267 310.5 c 128,-1,53
 287 302 287 302 301.5 290.5 c 128,-1,54
 316 279 316 279 324.5 264 c 128,-1,55
 333 249 333 249 333 229 c 0,0,1
293 224 m 0,56,57
 293 244 293 244 276 261 c 128,-1,58
 259 278 259 278 217 292 c 0,59,60
 198 298 198 298 174 306.5 c 128,-1,61
 150 315 150 315 133 324 c 1,62,63
 115 310 115 310 106.5 295 c 128,-1,64
 98 280 98 280 98 268 c 0,65,66
 98 251 98 251 115.5 233 c 128,-1,67
 133 215 133 215 187 199 c 0,68,69
 219 188 219 188 237 181 c 128,-1,70
 255 174 255 174 267 167 c 1,71,72
 278 179 278 179 285.5 194 c 128,-1,73
 293 209 293 209 293 224 c 0,56,57
EndSplineSet
EndChar
StartChar: dieresis
Encoding: 168 168 107
Width: 215
Flags: W
Fore
8 436 m 256,0,1
 8 450 8 450 18 460 c 128,-1,2
 28 470 28 470 42 470 c 256,3,4
 56 470 56 470 66 460 c 128,-1,5
 76 450 76 450 76 436 c 256,6,7
 76 422 76 422 66 412 c 128,-1,8
 56 402 56 402 42 402 c 256,9,10
 28 402 28 402 18 412 c 128,-1,11
 8 422 8 422 8 436 c 256,0,1
139 436 m 256,12,13
 139 450 139 450 149 460 c 128,-1,14
 159 470 159 470 173 470 c 256,15,16
 187 470 187 470 197 460 c 128,-1,17
 207 450 207 450 207 436 c 256,18,19
 207 422 207 422 197 412 c 128,-1,20
 187 402 187 402 173 402 c 256,21,22
 159 402 159 402 149 412 c 128,-1,23
 139 422 139 422 139 436 c 256,12,13
EndSplineSet
EndChar
StartChar: copyright
Encoding: 169 169 108
Width: 547
Flags: W
Fore
30 237 m 256,0,1
 30 288 30 288 49 332.5 c 128,-1,2
 68 377 68 377 101 410 c 128,-1,3
 134 443 134 443 178 462 c 128,-1,4
 222 481 222 481 273 481 c 256,5,6
 324 481 324 481 368.5 462 c 128,-1,7
 413 443 413 443 446 410 c 128,-1,8
 479 377 479 377 498 332.5 c 128,-1,9
 517 288 517 288 517 237 c 256,10,11
 517 186 517 186 498 142 c 128,-1,12
 479 98 479 98 446 65 c 128,-1,13
 413 32 413 32 368.5 13 c 128,-1,14
 324 -6 324 -6 273 -6 c 256,15,16
 222 -6 222 -6 178 13 c 128,-1,17
 134 32 134 32 101 65 c 128,-1,18
 68 98 68 98 49 142 c 128,-1,19
 30 186 30 186 30 237 c 256,0,1
66 236 m 256,20,21
 66 192 66 192 82.5 154 c 128,-1,22
 99 116 99 116 127 87.5 c 128,-1,23
 155 59 155 59 192.5 42.5 c 128,-1,24
 230 26 230 26 273 26 c 256,25,26
 316 26 316 26 354 42.5 c 128,-1,27
 392 59 392 59 420 87.5 c 128,-1,28
 448 116 448 116 464.5 154 c 128,-1,29
 481 192 481 192 481 236 c 256,30,31
 481 280 481 280 464.5 319 c 128,-1,32
 448 358 448 358 420 387 c 128,-1,33
 392 416 392 416 354 432.5 c 128,-1,34
 316 449 316 449 273 449 c 256,35,36
 230 449 230 449 192.5 432.5 c 128,-1,37
 155 416 155 416 127 387 c 128,-1,38
 99 358 99 358 82.5 319 c 128,-1,39
 66 280 66 280 66 236 c 256,20,21
276 352 m 256,40,41
 244 352 244 352 221.5 333 c 128,-1,42
 199 314 199 314 199 289 c 2,43,-1
 199 187 l 2,44,45
 199 161 199 161 221.5 142.5 c 128,-1,46
 244 124 244 124 276 124 c 256,47,48
 308 124 308 124 331.5 144 c 128,-1,49
 355 164 355 164 355 191 c 1,50,51
 372 193 372 193 381 184.5 c 128,-1,52
 390 176 390 176 385 158 c 0,53,54
 379 143 379 143 368 131 c 128,-1,55
 357 119 357 119 342 110.5 c 128,-1,56
 327 102 327 102 310 98 c 128,-1,57
 293 94 293 94 276 94 c 0,58,59
 257 94 257 94 237 100 c 128,-1,60
 217 106 217 106 201 118 c 128,-1,61
 185 130 185 130 174.5 147.5 c 128,-1,62
 164 165 164 165 164 187 c 2,63,-1
 164 289 l 2,64,65
 164 310 164 310 174 327 c 128,-1,66
 184 344 184 344 200 356 c 128,-1,67
 216 368 216 368 236 374.5 c 128,-1,68
 256 381 256 381 276 381 c 0,69,70
 293 381 293 381 310 377 c 128,-1,71
 327 373 327 373 342 365 c 128,-1,72
 357 357 357 357 368 345 c 128,-1,73
 379 333 379 333 385 318 c 0,74,75
 390 299 390 299 381 291 c 128,-1,76
 372 283 372 283 355 285 c 1,77,78
 355 311 355 311 331.5 331.5 c 128,-1,79
 308 352 308 352 276 352 c 256,40,41
EndSplineSet
EndChar
StartChar: ordfeminine
Encoding: 170 170 109
Width: 272
Flags: W
Fore
116 236 m 0,0,1
 148 236 148 236 168 253.5 c 128,-1,2
 188 271 188 271 188 294 c 0,3,4
 188 318 188 318 168 336 c 128,-1,5
 148 354 148 354 116 354 c 0,6,7
 85 354 85 354 64.5 336 c 128,-1,8
 44 318 44 318 44 294 c 0,9,10
 44 271 44 271 64.5 253.5 c 128,-1,11
 85 236 85 236 116 236 c 0,0,1
188 390 m 2,12,13
 188 413 188 413 167.5 430.5 c 128,-1,14
 147 448 147 448 116 448 c 0,15,16
 92 448 92 448 71 433 c 128,-1,17
 50 418 50 418 39 398 c 1,18,19
 28 406 28 406 25 418 c 128,-1,20
 22 430 22 430 30 440 c 0,21,22
 45 459 45 459 67.5 468.5 c 128,-1,23
 90 478 90 478 116 478 c 0,24,25
 135 478 135 478 154 472 c 128,-1,26
 173 466 173 466 188 454.5 c 128,-1,27
 203 443 203 443 212.5 426.5 c 128,-1,28
 222 410 222 410 222 390 c 2,29,-1
 222 236 l 2,30,31
 222 206 222 206 188 206 c 1,32,-1
 188 225 l 1,33,34
 195 231 195 231 202 239 c 1,35,-1
 201 242 l 1,36,37
 187 225 187 225 164.5 215.5 c 128,-1,38
 142 206 142 206 116 206 c 0,39,40
 94 206 94 206 74.5 213 c 128,-1,41
 55 220 55 220 41 232 c 128,-1,42
 27 244 27 244 18.5 260 c 128,-1,43
 10 276 10 276 10 294 c 256,44,45
 10 312 10 312 18.5 328.5 c 128,-1,46
 27 345 27 345 41 357.5 c 128,-1,47
 55 370 55 370 74.5 377 c 128,-1,48
 94 384 94 384 116 384 c 0,49,50
 142 384 142 384 164.5 374.5 c 128,-1,51
 187 365 187 365 201 348 c 1,52,-1
 202 351 l 1,53,54
 195 359 195 359 188 365 c 1,55,-1
 188 390 l 2,12,13
EndSplineSet
EndChar
StartChar: logicalnot
Encoding: 172 172 111
Width: 400
Flags: W
Fore
370 275 m 1,0,-1
 370 155 l 2,1,2
 370 121 370 121 336 121 c 1,3,-1
 336 241 l 1,4,-1
 30 241 l 1,5,6
 30 275 30 275 64 275 c 2,7,-1
 370 275 l 1,0,-1
EndSplineSet
EndChar
StartChar: registered
Encoding: 174 174 112
Width: 546
Flags: W
Fore
316 252 m 2,0,1
 333 252 333 252 344.5 267.5 c 128,-1,2
 356 283 356 283 356 299 c 0,3,4
 356 316 356 316 344.5 331 c 128,-1,5
 333 346 333 346 316 346 c 2,6,-1
 201 346 l 1,7,-1
 201 252 l 1,8,-1
 316 252 l 2,0,1
201 122 m 2,9,10
 201 95 201 95 167 95 c 1,11,-1
 167 360 l 2,12,13
 167 366 167 366 171.5 370.5 c 128,-1,14
 176 375 176 375 184 375 c 2,15,-1
 316 375 l 2,16,17
 348 375 348 375 368.5 352.5 c 128,-1,18
 389 330 389 330 389 299 c 0,19,20
 389 282 389 282 380.5 265 c 128,-1,21
 372 248 372 248 357 237 c 1,22,23
 391 218 391 218 391 175 c 2,24,-1
 391 122 l 2,25,26
 391 95 391 95 357 95 c 1,27,-1
 357 175 l 2,28,29
 357 198 357 198 345 210 c 128,-1,30
 333 222 333 222 316 222 c 2,31,-1
 201 222 l 1,32,-1
 201 122 l 2,9,10
30 237 m 256,33,34
 30 288 30 288 49 332.5 c 128,-1,35
 68 377 68 377 101 410 c 128,-1,36
 134 443 134 443 178 462 c 128,-1,37
 222 481 222 481 273 481 c 256,38,39
 324 481 324 481 368.5 462 c 128,-1,40
 413 443 413 443 446 410 c 128,-1,41
 479 377 479 377 498 332.5 c 128,-1,42
 517 288 517 288 517 237 c 256,43,44
 517 186 517 186 498 142 c 128,-1,45
 479 98 479 98 446 65 c 128,-1,46
 413 32 413 32 368.5 13 c 128,-1,47
 324 -6 324 -6 273 -6 c 256,48,49
 222 -6 222 -6 178 13 c 128,-1,50
 134 32 134 32 101 65 c 128,-1,51
 68 98 68 98 49 142 c 128,-1,52
 30 186 30 186 30 237 c 256,33,34
66 236 m 256,53,54
 66 192 66 192 82.5 154 c 128,-1,55
 99 116 99 116 127 87.5 c 128,-1,56
 155 59 155 59 192.5 42.5 c 128,-1,57
 230 26 230 26 273 26 c 256,58,59
 316 26 316 26 354 42.5 c 128,-1,60
 392 59 392 59 420 87.5 c 128,-1,61
 448 116 448 116 464.5 154 c 128,-1,62
 481 192 481 192 481 236 c 256,63,64
 481 280 481 280 464.5 319 c 128,-1,65
 448 358 448 358 420 387 c 128,-1,66
 392 416 392 416 354 432.5 c 128,-1,67
 316 449 316 449 273 449 c 256,68,69
 230 449 230 449 192.5 432.5 c 128,-1,70
 155 416 155 416 127 387 c 128,-1,71
 99 358 99 358 82.5 319 c 128,-1,72
 66 280 66 280 66 236 c 256,53,54
EndSplineSet
EndChar
StartChar: macron
Encoding: 175 175 113
Width: 216
Flags: W
Fore
28 422 m 1,0,-1
 28 454 l 1,1,-1
 187 454 l 1,2,-1
 187 422 l 1,3,-1
 28 422 l 1,0,-1
EndSplineSet
EndChar
StartChar: degree
Encoding: 176 176 114
Width: 216
Flags: W
Fore
15 390 m 256,0,1
 15 409 15 409 22 425.5 c 128,-1,2
 29 442 29 442 41.5 454.5 c 128,-1,3
 54 467 54 467 71 474 c 128,-1,4
 88 481 88 481 107 481 c 256,5,6
 126 481 126 481 143 474 c 128,-1,7
 160 467 160 467 172.5 454.5 c 128,-1,8
 185 442 185 442 192 425.5 c 128,-1,9
 199 409 199 409 199 390 c 256,10,11
 199 371 199 371 192 354.5 c 128,-1,12
 185 338 185 338 172.5 325.5 c 128,-1,13
 160 313 160 313 143 306 c 128,-1,14
 126 299 126 299 107 299 c 256,15,16
 88 299 88 299 71 306 c 128,-1,17
 54 313 54 313 41.5 325.5 c 128,-1,18
 29 338 29 338 22 354.5 c 128,-1,19
 15 371 15 371 15 390 c 256,0,1
52 390 m 256,20,21
 52 365 52 365 68 348 c 128,-1,22
 84 331 84 331 107 331 c 256,23,24
 130 331 130 331 146 348 c 128,-1,25
 162 365 162 365 162 390 c 256,26,27
 162 415 162 415 146 432 c 128,-1,28
 130 449 130 449 107 449 c 256,29,30
 84 449 84 449 68 432 c 128,-1,31
 52 415 52 415 52 390 c 256,20,21
EndSplineSet
EndChar
StartChar: plusminus
Encoding: 177 177 115
Width: 400
Flags: W
Fore
182 181 m 1,0,-1
 30 181 l 1,1,2
 30 215 30 215 64 215 c 2,3,-1
 182 215 l 1,4,-1
 182 303 l 2,5,6
 182 339 182 339 218 339 c 1,7,-1
 218 215 l 1,8,-1
 370 215 l 1,9,10
 370 181 370 181 336 181 c 2,11,-1
 218 181 l 1,12,-1
 218 93 l 2,13,14
 218 57 218 57 182 57 c 1,15,-1
 182 181 l 1,0,-1
30 -1 m 1,16,17
 30 16 30 16 39.5 25.5 c 128,-1,18
 49 35 49 35 66 35 c 2,19,-1
 370 35 l 1,20,21
 370 18 370 18 360.5 8.5 c 128,-1,22
 351 -1 351 -1 334 -1 c 2,23,-1
 30 -1 l 1,16,17
EndSplineSet
EndChar
StartChar: twosuperior
Encoding: 178 178 116
Width: 278
Flags: W
Fore
212 238 m 2,0,1
 238 238 238 238 238 208 c 1,2,-1
 56 208 l 2,3,4
 50 208 50 208 45 211.5 c 128,-1,5
 40 215 40 215 40 222 c 0,6,7
 40 256 40 256 62 285 c 128,-1,8
 84 314 84 314 129 333 c 0,9,10
 159 346 159 346 182.5 359.5 c 128,-1,11
 206 373 206 373 206 395 c 0,12,13
 206 416 206 416 186.5 432.5 c 128,-1,14
 167 449 167 449 139 449 c 0,15,16
 112 449 112 449 92 432.5 c 128,-1,17
 72 416 72 416 72 395 c 0,18,19
 72 393 72 393 72 390 c 128,-1,20
 72 387 72 387 74 379 c 1,21,22
 61 379 61 379 50 388 c 128,-1,23
 39 397 39 397 41 406 c 0,24,25
 44 422 44 422 54 435.5 c 128,-1,26
 64 449 64 449 77.5 458.5 c 128,-1,27
 91 468 91 468 107 473 c 128,-1,28
 123 478 123 478 139 478 c 0,29,30
 156 478 156 478 173.5 472.5 c 128,-1,31
 191 467 191 467 205.5 456.5 c 128,-1,32
 220 446 220 446 229 430.5 c 128,-1,33
 238 415 238 415 238 395 c 0,34,35
 238 378 238 378 230 364.5 c 128,-1,36
 222 351 222 351 208.5 340.5 c 128,-1,37
 195 330 195 330 177.5 321.5 c 128,-1,38
 160 313 160 313 142 305 c 0,39,40
 113 293 113 293 96.5 275.5 c 128,-1,41
 80 258 80 258 75 238 c 1,42,-1
 212 238 l 2,0,1
EndSplineSet
EndChar
StartChar: threesuperior
Encoding: 179 179 117
Width: 278
Flags: W
Fore
55 420 m 0,0,1
 58 441 58 441 81 459.5 c 128,-1,2
 104 478 104 478 139 478 c 0,3,4
 156 478 156 478 171.5 472.5 c 128,-1,5
 187 467 187 467 198.5 457.5 c 128,-1,6
 210 448 210 448 217 435.5 c 128,-1,7
 224 423 224 423 224 408 c 0,8,9
 224 392 224 392 215.5 378 c 128,-1,10
 207 364 207 364 193 354 c 1,11,12
 214 343 214 343 226 325 c 128,-1,13
 238 307 238 307 238 286 c 0,14,15
 238 252 238 252 209.5 228.5 c 128,-1,16
 181 205 181 205 139 205 c 0,17,18
 118 205 118 205 100.5 211.5 c 128,-1,19
 83 218 83 218 70 228 c 128,-1,20
 57 238 57 238 49.5 250.5 c 128,-1,21
 42 263 42 263 41 275 c 0,22,23
 39 302 39 302 73 302 c 1,24,25
 72 297 72 297 72 293.5 c 128,-1,26
 72 290 72 290 72 286 c 0,27,28
 72 264 72 264 91.5 249 c 128,-1,29
 111 234 111 234 139 234 c 0,30,31
 166 234 166 234 185.5 249 c 128,-1,32
 205 264 205 264 205 286 c 0,33,34
 205 307 205 307 185.5 322.5 c 128,-1,35
 166 338 166 338 139 338 c 0,36,37
 132 338 132 338 127 342 c 128,-1,38
 122 346 122 346 122 352 c 0,39,40
 122 359 122 359 127 363 c 128,-1,41
 132 367 132 367 139 367 c 0,42,43
 160 367 160 367 175.5 379 c 128,-1,44
 191 391 191 391 191 408 c 256,45,46
 191 425 191 425 175.5 437 c 128,-1,47
 160 449 160 449 139 449 c 0,48,49
 117 449 117 449 102 437 c 128,-1,50
 87 425 87 425 87 408 c 0,51,52
 87 406 87 406 87.5 402.5 c 128,-1,53
 88 399 88 399 90 394 c 1,54,55
 74 392 74 392 63 399 c 128,-1,56
 52 406 52 406 55 420 c 0,0,1
EndSplineSet
EndChar
StartChar: acute
Encoding: 180 180 118
Width: 212
Flags: W
Fore
99 459 m 2,0,1
 111 477 111 477 146 477 c 2,2,-1
 169 477 l 1,3,-1
 85 384 l 2,4,5
 78 378 78 378 69 375.5 c 128,-1,6
 60 373 60 373 43 373 c 1,7,-1
 99 459 l 2,0,1
EndSplineSet
EndChar
StartChar: mu
Encoding: 181 181 119
Width: 390
Flags: W
Fore
195 -6 m 256,0,1
 160 -6 160 -6 131 7 c 128,-1,2
 102 20 102 20 84 43 c 1,3,-1
 83 40 l 1,4,5
 85 37 85 37 89 32.5 c 128,-1,6
 93 28 93 28 96 26 c 1,7,-1
 96 -106 l 2,8,9
 96 -142 96 -142 60 -142 c 1,10,-1
 60 309 l 2,11,12
 60 345 60 345 96 345 c 1,13,-1
 96 108 l 2,14,15
 96 92 96 92 103.5 77.5 c 128,-1,16
 111 63 111 63 124 51.5 c 128,-1,17
 137 40 137 40 155.5 33.5 c 128,-1,18
 174 27 174 27 195 27 c 256,19,20
 216 27 216 27 234.5 33.5 c 128,-1,21
 253 40 253 40 266 51.5 c 128,-1,22
 279 63 279 63 286.5 77.5 c 128,-1,23
 294 92 294 92 294 108 c 2,24,-1
 294 309 l 2,25,26
 294 345 294 345 330 345 c 1,27,-1
 330 30 l 2,28,29
 330 -6 330 -6 294 -6 c 1,30,-1
 294 26 l 1,31,32
 297 28 297 28 301 32.5 c 128,-1,33
 305 37 305 37 307 40 c 1,34,-1
 306 43 l 1,35,36
 288 20 288 20 259 7 c 128,-1,37
 230 -6 230 -6 195 -6 c 256,0,1
EndSplineSet
EndChar
StartChar: paragraph
Encoding: 182 182 120
Width: 371
Flags: W
Fore
311 -56 m 2,0,1
 311 -92 311 -92 273 -92 c 1,2,-1
 273 449 l 1,3,-1
 225 449 l 1,4,-1
 225 -56 l 2,5,6
 225 -92 225 -92 187 -92 c 1,7,-1
 187 180 l 1,8,-1
 183 180 l 2,9,10
 155 180 155 180 127 189 c 128,-1,11
 99 198 99 198 76 216 c 128,-1,12
 53 234 53 234 38.5 260.5 c 128,-1,13
 24 287 24 287 24 323 c 0,14,15
 24 350 24 350 33 378 c 128,-1,16
 42 406 42 406 64.5 429 c 128,-1,17
 87 452 87 452 126.5 466.5 c 128,-1,18
 166 481 166 481 228 481 c 0,19,20
 261 481 261 481 280.5 479.5 c 128,-1,21
 300 478 300 478 311 476 c 1,22,-1
 311 -56 l 2,0,1
EndSplineSet
EndChar
StartChar: periodcentered
Encoding: 183 183 121
Width: 230
Flags: W
Fore
50 198 m 256,0,1
 50 225 50 225 69 244 c 128,-1,2
 88 263 88 263 115 263 c 256,3,4
 142 263 142 263 161 244 c 128,-1,5
 180 225 180 225 180 198 c 256,6,7
 180 171 180 171 161 152 c 128,-1,8
 142 133 142 133 115 133 c 256,9,10
 88 133 88 133 69 152 c 128,-1,11
 50 171 50 171 50 198 c 256,0,1
EndSplineSet
EndChar
StartChar: cedilla
Encoding: 184 184 122
Width: 175
Flags: W
Fore
150 -80 m 0,0,1
 150 -109 150 -109 126.5 -124.5 c 128,-1,2
 103 -140 103 -140 76 -140 c 0,3,4
 53 -140 53 -140 36 -129 c 0,5,6
 16 -115 16 -115 28 -97 c 1,7,8
 48 -113 48 -113 76 -113 c 0,9,10
 90 -113 90 -113 102 -105.5 c 128,-1,11
 114 -98 114 -98 114 -85 c 0,12,13
 114 -67 114 -67 92.5 -59.5 c 128,-1,14
 71 -52 71 -52 45 -54 c 1,15,-1
 85 7 l 1,16,-1
 115 7 l 1,17,-1
 87 -32 l 1,18,19
 113 -32 113 -32 131.5 -46 c 128,-1,20
 150 -60 150 -60 150 -80 c 0,0,1
EndSplineSet
EndChar
StartChar: onesuperior
Encoding: 185 185 123
Width: 278
Flags: W
Fore
154 475 m 1,0,1
 162 475 162 475 167.5 470 c 128,-1,2
 173 465 173 465 173 458 c 2,3,-1
 173 239 l 2,4,5
 173 205 173 205 139 205 c 1,6,-1
 139 445 l 1,7,-1
 128 445 l 2,8,9
 114 445 114 445 106 453 c 128,-1,10
 98 461 98 461 98 475 c 1,11,-1
 154 475 l 1,12,-1
 154 475 l 1,0,1
EndSplineSet
EndChar
StartChar: ordmasculine
Encoding: 186 186 124
Width: 294
Flags: W
Fore
0 341 m 0,0,1
 0 369 0 369 11 394 c 128,-1,2
 22 419 22 419 40.5 437.5 c 128,-1,3
 59 456 59 456 83.5 467 c 128,-1,4
 108 478 108 478 136 478 c 0,5,6
 165 478 165 478 190 467 c 128,-1,7
 215 456 215 456 234 437.5 c 128,-1,8
 253 419 253 419 263.5 394 c 128,-1,9
 274 369 274 369 274 341 c 0,10,11
 274 314 274 314 263.5 289.5 c 128,-1,12
 253 265 253 265 234 246.5 c 128,-1,13
 215 228 215 228 190 217 c 128,-1,14
 165 206 165 206 136 206 c 0,15,16
 108 206 108 206 83.5 217 c 128,-1,17
 59 228 59 228 40.5 246.5 c 128,-1,18
 22 265 22 265 11 289.5 c 128,-1,19
 0 314 0 314 0 341 c 0,0,1
34 341 m 256,20,21
 34 319 34 319 42 300 c 128,-1,22
 50 281 50 281 64 266.5 c 128,-1,23
 78 252 78 252 96.5 244 c 128,-1,24
 115 236 115 236 136 236 c 0,25,26
 180 236 180 236 210 266 c 128,-1,27
 240 296 240 296 240 341 c 0,28,29
 240 363 240 363 232 382.5 c 128,-1,30
 224 402 224 402 210 416.5 c 128,-1,31
 196 431 196 431 177 439.5 c 128,-1,32
 158 448 158 448 136 448 c 0,33,34
 115 448 115 448 96.5 439.5 c 128,-1,35
 78 431 78 431 64 416.5 c 128,-1,36
 50 402 50 402 42 382.5 c 128,-1,37
 34 363 34 363 34 341 c 256,20,21
EndSplineSet
EndChar
StartChar: onequarter
Encoding: 188 188 126
Width: 567
Flags: W
Fore
158 475 m 2,0,1
 166 475 166 475 171.5 470 c 128,-1,2
 177 465 177 465 177 458 c 2,3,-1
 177 239 l 2,4,5
 177 205 177 205 143 205 c 1,6,-1
 143 445 l 1,7,-1
 132 445 l 2,8,9
 118 445 118 445 110 453 c 128,-1,10
 102 461 102 461 102 475 c 1,11,-1
 158 475 l 2,0,1
535 94 m 1,12,13
 535 64 535 64 510 64 c 2,14,-1
 492 64 l 1,15,-1
 492 24 l 2,16,17
 492 -3 492 -3 458 -3 c 1,18,-1
 458 64 l 1,19,-1
 326 64 l 2,20,21
 315 64 315 64 310.5 72 c 128,-1,22
 306 80 306 80 313 89 c 2,23,-1
 462 264 l 2,24,25
 470 272 470 272 480 268.5 c 128,-1,26
 490 265 490 265 492 254 c 1,27,-1
 492 94 l 1,28,-1
 535 94 l 1,12,13
458 94 m 1,29,-1
 458 212 l 1,30,-1
 357 94 l 1,31,-1
 458 94 l 1,29,-1
385 479 m 2,32,33
 400 511 400 511 433 495 c 1,34,-1
 182 -4 l 2,35,36
 166 -37 166 -37 134 -20 c 1,37,-1
 385 479 l 2,32,33
EndSplineSet
Ligature: 0 0 'frac' one fraction four
Ligature: 0 0 'frac' one slash four
EndChar
StartChar: onehalf
Encoding: 189 189 127
Width: 567
Flags: W
Fore
158 475 m 2,0,1
 166 475 166 475 171.5 470 c 128,-1,2
 177 465 177 465 177 458 c 2,3,-1
 177 239 l 2,4,5
 177 205 177 205 143 205 c 1,6,-1
 143 445 l 1,7,-1
 132 445 l 2,8,9
 118 445 118 445 110 453 c 128,-1,10
 102 461 102 461 102 475 c 1,11,-1
 158 475 l 2,0,1
497 30 m 2,12,13
 523 30 523 30 523 0 c 1,14,-1
 341 0 l 2,15,16
 335 0 335 0 330 3.5 c 128,-1,17
 325 7 325 7 325 14 c 0,18,19
 325 48 325 48 347 77 c 128,-1,20
 369 106 369 106 414 125 c 0,21,22
 444 138 444 138 467.5 151.5 c 128,-1,23
 491 165 491 165 491 187 c 0,24,25
 491 208 491 208 471.5 224.5 c 128,-1,26
 452 241 452 241 424 241 c 0,27,28
 397 241 397 241 377 224.5 c 128,-1,29
 357 208 357 208 357 187 c 0,30,31
 357 185 357 185 357 182 c 128,-1,32
 357 179 357 179 359 171 c 1,33,34
 346 171 346 171 335 180 c 128,-1,35
 324 189 324 189 326 198 c 0,36,37
 329 214 329 214 339 227.5 c 128,-1,38
 349 241 349 241 362.5 250.5 c 128,-1,39
 376 260 376 260 392 265 c 128,-1,40
 408 270 408 270 424 270 c 0,41,42
 441 270 441 270 458.5 264.5 c 128,-1,43
 476 259 476 259 490.5 248.5 c 128,-1,44
 505 238 505 238 514 222.5 c 128,-1,45
 523 207 523 207 523 187 c 0,46,47
 523 170 523 170 515 156.5 c 128,-1,48
 507 143 507 143 493.5 132.5 c 128,-1,49
 480 122 480 122 462.5 113.5 c 128,-1,50
 445 105 445 105 427 97 c 0,51,52
 398 85 398 85 381.5 67.5 c 128,-1,53
 365 50 365 50 360 30 c 1,54,-1
 497 30 l 2,12,13
385 479 m 2,55,56
 400 511 400 511 433 495 c 1,57,-1
 182 -4 l 2,58,59
 166 -37 166 -37 134 -20 c 1,60,-1
 385 479 l 2,55,56
EndSplineSet
Ligature: 0 0 'frac' one fraction two
Ligature: 0 0 'frac' one slash two
EndChar
StartChar: threequarters
Encoding: 190 190 128
Width: 567
Flags: W
Fore
535 94 m 1,0,1
 535 64 535 64 510 64 c 2,2,-1
 492 64 l 1,3,-1
 492 24 l 2,4,5
 492 -3 492 -3 458 -3 c 1,6,-1
 458 64 l 1,7,-1
 326 64 l 2,8,9
 315 64 315 64 310.5 72 c 128,-1,10
 306 80 306 80 313 89 c 2,11,-1
 462 264 l 2,12,13
 470 272 470 272 480 268.5 c 128,-1,14
 490 265 490 265 492 254 c 1,15,-1
 492 94 l 1,16,-1
 535 94 l 1,0,1
458 94 m 1,17,-1
 458 212 l 1,18,-1
 357 94 l 1,19,-1
 458 94 l 1,17,-1
59 420 m 0,20,21
 62 441 62 441 85 459.5 c 128,-1,22
 108 478 108 478 143 478 c 0,23,24
 160 478 160 478 175.5 472.5 c 128,-1,25
 191 467 191 467 202.5 457.5 c 128,-1,26
 214 448 214 448 221 435.5 c 128,-1,27
 228 423 228 423 228 408 c 0,28,29
 228 392 228 392 219.5 378 c 128,-1,30
 211 364 211 364 197 354 c 1,31,32
 218 343 218 343 230 325 c 128,-1,33
 242 307 242 307 242 286 c 0,34,35
 242 252 242 252 213.5 228.5 c 128,-1,36
 185 205 185 205 143 205 c 0,37,38
 122 205 122 205 104.5 211.5 c 128,-1,39
 87 218 87 218 74 228 c 128,-1,40
 61 238 61 238 53.5 250.5 c 128,-1,41
 46 263 46 263 45 275 c 0,42,43
 43 302 43 302 77 302 c 1,44,45
 76 297 76 297 76 293.5 c 128,-1,46
 76 290 76 290 76 286 c 0,47,48
 76 264 76 264 95.5 249 c 128,-1,49
 115 234 115 234 143 234 c 0,50,51
 170 234 170 234 189.5 249 c 128,-1,52
 209 264 209 264 209 286 c 0,53,54
 209 307 209 307 189.5 322.5 c 128,-1,55
 170 338 170 338 143 338 c 0,56,57
 136 338 136 338 131 342 c 128,-1,58
 126 346 126 346 126 352 c 0,59,60
 126 359 126 359 131 363 c 128,-1,61
 136 367 136 367 143 367 c 0,62,63
 164 367 164 367 179.5 379 c 128,-1,64
 195 391 195 391 195 408 c 256,65,66
 195 425 195 425 179.5 437 c 128,-1,67
 164 449 164 449 143 449 c 0,68,69
 121 449 121 449 106 437 c 128,-1,70
 91 425 91 425 91 408 c 0,71,72
 91 406 91 406 91.5 402.5 c 128,-1,73
 92 399 92 399 94 394 c 1,74,75
 78 392 78 392 67 399 c 128,-1,76
 56 406 56 406 59 420 c 0,20,21
385 479 m 2,77,78
 400 511 400 511 433 495 c 1,79,-1
 182 -4 l 2,80,81
 166 -37 166 -37 134 -20 c 1,82,-1
 385 479 l 2,77,78
EndSplineSet
Ligature: 0 0 'frac' three fraction four
Ligature: 0 0 'frac' three slash four
EndChar
StartChar: questiondown
Encoding: 191 191 129
Width: 334
Flags: W
Fore
152 205 m 2,0,1
 152 243 152 243 190 243 c 1,2,-1
 190 184 l 2,3,4
 190 160 190 160 181 143 c 128,-1,5
 172 126 172 126 158.5 112 c 128,-1,6
 145 98 145 98 129.5 86 c 128,-1,7
 114 74 114 74 100.5 60.5 c 128,-1,8
 87 47 87 47 78 30 c 128,-1,9
 69 13 69 13 69 -10 c 0,10,11
 69 -52 69 -52 97.5 -80 c 128,-1,12
 126 -108 126 -108 171 -108 c 0,13,14
 213 -108 213 -108 243 -81.5 c 128,-1,15
 273 -55 273 -55 273 -10 c 0,16,17
 273 -4 273 -4 273 -0.5 c 128,-1,18
 273 3 273 3 272 9 c 1,19,20
 288 9 288 9 300 -2 c 128,-1,21
 312 -13 312 -13 310 -29 c 0,22,23
 303 -81 303 -81 264 -111.5 c 128,-1,24
 225 -142 225 -142 171 -142 c 0,25,26
 143 -142 143 -142 117.5 -133 c 128,-1,27
 92 -124 92 -124 73 -107 c 128,-1,28
 54 -90 54 -90 42.5 -65.5 c 128,-1,29
 31 -41 31 -41 31 -10 c 0,30,31
 31 31 31 31 50 56.5 c 128,-1,32
 69 82 69 82 91.5 101 c 128,-1,33
 114 120 114 120 133 138.5 c 128,-1,34
 152 157 152 157 152 184 c 2,35,-1
 152 205 l 2,0,1
208 308 m 256,36,37
 208 292 208 292 197.5 281 c 128,-1,38
 187 270 187 270 171 270 c 256,39,40
 155 270 155 270 144 281 c 128,-1,41
 133 292 133 292 133 308 c 256,42,43
 133 324 133 324 144 334.5 c 128,-1,44
 155 345 155 345 171 345 c 256,45,46
 187 345 187 345 197.5 334.5 c 128,-1,47
 208 324 208 324 208 308 c 256,36,37
EndSplineSet
EndChar
StartChar: AE
Encoding: 198 198 135
Width: 603
Flags: W
Fore
307 475 m 1,0,-1
 547 475 l 2,1,2
 583 475 583 475 583 439 c 1,3,-1
 345 439 l 1,4,-1
 366 256 l 1,5,-1
 563 256 l 1,6,7
 563 220 563 220 527 220 c 2,8,-1
 371 220 l 1,9,-1
 392 36 l 1,10,-1
 593 36 l 1,11,12
 593 0 593 0 557 0 c 2,13,-1
 353 0 l 1,14,-1
 337 155 l 1,15,-1
 134 155 l 1,16,-1
 26 -6 l 1,17,18
 12 0 12 0 9 15 c 128,-1,19
 6 30 6 30 17 46 c 2,20,-1
 307 475 l 1,0,-1
158 191 m 1,21,-1
 333 191 l 1,22,-1
 306 436 l 1,23,-1
 304 433 l 1,24,-1
 305 413 l 1,25,-1
 158 191 l 1,21,-1
EndSplineSet
EndChar
StartChar: Eth
Encoding: 208 208 145
Width: 484
Flags: W
Fore
247 475 m 2,0,1
 280 475 280 475 313 464.5 c 128,-1,2
 346 454 346 454 373 434.5 c 128,-1,3
 400 415 400 415 417 386 c 128,-1,4
 434 357 434 357 434 320 c 2,5,-1
 434 156 l 2,6,7
 434 120 434 120 417.5 91.5 c 128,-1,8
 401 63 401 63 374.5 42.5 c 128,-1,9
 348 22 348 22 314.5 11 c 128,-1,10
 281 0 281 0 247 0 c 2,11,-1
 80 0 l 2,12,13
 71 0 71 0 65.5 6 c 128,-1,14
 60 12 60 12 60 20 c 2,15,-1
 60 221 l 1,16,-1
 0 221 l 1,17,18
 0 255 0 255 34 255 c 2,19,-1
 60 255 l 1,20,-1
 60 455 l 2,21,22
 60 475 60 475 80 475 c 2,23,-1
 247 475 l 2,0,1
100 439 m 1,24,-1
 100 255 l 1,25,-1
 213 255 l 1,26,27
 213 221 213 221 179 221 c 2,28,-1
 100 221 l 1,29,-1
 100 36 l 1,30,-1
 247 36 l 2,31,32
 277 36 277 36 304 45.5 c 128,-1,33
 331 55 331 55 351.5 71.5 c 128,-1,34
 372 88 372 88 383.5 110 c 128,-1,35
 395 132 395 132 395 156 c 2,36,-1
 395 320 l 2,37,38
 395 344 395 344 383.5 366 c 128,-1,39
 372 388 372 388 351.5 404 c 128,-1,40
 331 420 331 420 304 429.5 c 128,-1,41
 277 439 277 439 247 439 c 2,42,-1
 100 439 l 1,24,-1
EndSplineSet
EndChar
StartChar: multiply
Encoding: 215 215 152
Width: 400
Flags: W
Fore
346 75 m 1,0,1
 321 52 321 52 298 75 c 2,2,-1
 53 320 l 1,3,4
 78 343 78 343 101 320 c 2,5,-1
 346 75 l 1,0,1
298 320 m 2,6,7
 321 343 321 343 346 320 c 1,8,-1
 101 75 l 2,9,10
 78 52 78 52 53 75 c 1,11,-1
 298 320 l 2,6,7
EndSplineSet
EndChar
StartChar: Thorn
Encoding: 222 222 159
Width: 395
Flags: W
Fore
358 267 m 0,0,1
 358 232 358 232 344 204 c 128,-1,2
 330 176 330 176 304.5 156.5 c 128,-1,3
 279 137 279 137 243.5 126.5 c 128,-1,4
 208 116 208 116 165 116 c 0,5,6
 150 116 150 116 132 116.5 c 128,-1,7
 114 117 114 117 99 120 c 1,8,-1
 99 33 l 2,9,10
 99 14 99 14 88.5 4 c 128,-1,11
 78 -6 78 -6 60 -6 c 1,12,-1
 60 441 l 2,13,14
 60 459 60 459 70.5 469.5 c 128,-1,15
 81 480 81 480 99 480 c 1,16,-1
 99 390 l 1,17,18
 119 395 119 395 142.5 396 c 128,-1,19
 166 397 166 397 183 397 c 0,20,21
 274 397 274 397 319 355 c 0,22,23
 358 319 358 319 358 267 c 0,0,1
319 262 m 0,24,25
 319 291 319 291 308 310.5 c 128,-1,26
 297 330 297 330 278 342 c 128,-1,27
 259 354 259 354 234.5 359 c 128,-1,28
 210 364 210 364 183 364 c 0,29,30
 157 364 157 364 134 361.5 c 128,-1,31
 111 359 111 359 99 355 c 1,32,-1
 99 156 l 1,33,34
 117 152 117 152 134 151 c 128,-1,35
 151 150 151 150 167 150 c 0,36,37
 241 150 241 150 280 179.5 c 128,-1,38
 319 209 319 209 319 262 c 0,24,25
EndSplineSet
EndChar
StartChar: uni00DF
Encoding: 223 223 160
Width: 371
Flags: W
Fore
60 354 m 2,0,1
 60 411 60 411 89 446 c 128,-1,2
 118 481 118 481 178 481 c 0,3,4
 203 481 203 481 224.5 471.5 c 128,-1,5
 246 462 246 462 260.5 446.5 c 128,-1,6
 275 431 275 431 283.5 409 c 128,-1,7
 292 387 292 387 292 361 c 0,8,9
 292 328 292 328 276.5 302.5 c 128,-1,10
 261 277 261 277 231 261 c 1,11,12
 276 247 276 247 298.5 214 c 128,-1,13
 321 181 321 181 321 134 c 0,14,15
 321 69 321 69 292 31.5 c 128,-1,16
 263 -6 263 -6 207 -6 c 0,17,18
 194 -6 194 -6 187 -4.5 c 128,-1,19
 180 -3 180 -3 174 -1 c 0,20,21
 146 9 146 9 161 39 c 1,22,23
 171 34 171 34 184 30 c 128,-1,24
 197 26 197 26 210 26 c 0,25,26
 245 26 245 26 263.5 52.5 c 128,-1,27
 282 79 282 79 282 129 c 0,28,29
 282 188 282 188 251.5 213.5 c 128,-1,30
 221 239 221 239 161 239 c 1,31,-1
 161 271 l 1,32,33
 204 273 204 273 227.5 293 c 128,-1,34
 251 313 251 313 251 363 c 0,35,36
 251 403 251 403 231.5 426 c 128,-1,37
 212 449 212 449 171 449 c 0,38,39
 149 449 149 449 135.5 441 c 128,-1,40
 122 433 122 433 114 419.5 c 128,-1,41
 106 406 106 406 102.5 390 c 128,-1,42
 99 374 99 374 99 357 c 2,43,-1
 99 -52 l 2,44,45
 99 -92 99 -92 60 -92 c 1,46,-1
 60 354 l 2,0,1
EndSplineSet
EndChar
StartChar: ae
Encoding: 230 230 167
Width: 594
Flags: W
Fore
274 210 m 1,0,-1
 274 232 l 2,1,2
 274 264 274 264 245.5 288 c 128,-1,3
 217 312 217 312 175 312 c 0,4,5
 142 312 142 312 114.5 293 c 128,-1,6
 87 274 87 274 73 247 c 1,7,8
 61 256 61 256 57.5 270.5 c 128,-1,9
 54 285 54 285 65 297 c 0,10,11
 84 320 84 320 113 332.5 c 128,-1,12
 142 345 142 345 175 345 c 0,13,14
 209 345 209 345 241.5 330 c 128,-1,15
 274 315 274 315 293 288 c 1,16,17
 310 314 310 314 340.5 329.5 c 128,-1,18
 371 345 371 345 409 345 c 0,19,20
 437 345 437 345 461.5 336 c 128,-1,21
 486 327 486 327 504.5 311.5 c 128,-1,22
 523 296 523 296 533.5 275.5 c 128,-1,23
 544 255 544 255 544 231 c 2,24,-1
 544 195 l 2,25,26
 544 187 544 187 538.5 182 c 128,-1,27
 533 177 533 177 526 177 c 2,28,-1
 310 177 l 1,29,-1
 310 107 l 2,30,31
 310 75 310 75 338 51 c 128,-1,32
 366 27 366 27 409 27 c 0,33,34
 430 27 430 27 448.5 33.5 c 128,-1,35
 467 40 467 40 480 51.5 c 128,-1,36
 493 63 493 63 500.5 77.5 c 128,-1,37
 508 92 508 92 508 108 c 1,38,39
 514 108 514 108 520 104.5 c 128,-1,40
 526 101 526 101 530.5 95.5 c 128,-1,41
 535 90 535 90 536.5 82 c 128,-1,42
 538 74 538 74 534 65 c 0,43,44
 519 33 519 33 485.5 13.5 c 128,-1,45
 452 -6 452 -6 409 -6 c 0,46,47
 371 -6 371 -6 340.5 9.5 c 128,-1,48
 310 25 310 25 293 51 c 1,49,50
 274 24 274 24 241.5 9 c 128,-1,51
 209 -6 209 -6 175 -6 c 0,52,53
 147 -6 147 -6 122.5 2 c 128,-1,54
 98 10 98 10 79.5 24.5 c 128,-1,55
 61 39 61 39 50.5 58.5 c 128,-1,56
 40 78 40 78 40 102 c 256,57,58
 40 126 40 126 50.5 145.5 c 128,-1,59
 61 165 61 165 79.5 179.5 c 128,-1,60
 98 194 98 194 122.5 202 c 128,-1,61
 147 210 147 210 175 210 c 2,62,-1
 274 210 l 1,0,-1
175 177 m 2,63,64
 132 177 132 177 104 155.5 c 128,-1,65
 76 134 76 134 76 102 c 256,66,67
 76 70 76 70 104 48.5 c 128,-1,68
 132 27 132 27 175 27 c 256,69,70
 218 27 218 27 246 51 c 128,-1,71
 274 75 274 75 274 107 c 2,72,-1
 274 177 l 1,73,-1
 175 177 l 2,63,64
310 210 m 1,74,-1
 508 210 l 1,75,-1
 508 231 l 2,76,77
 508 247 508 247 500.5 261.5 c 128,-1,78
 493 276 493 276 480 287.5 c 128,-1,79
 467 299 467 299 448.5 305.5 c 128,-1,80
 430 312 430 312 409 312 c 256,81,82
 388 312 388 312 370 305.5 c 128,-1,83
 352 299 352 299 338.5 288 c 128,-1,84
 325 277 325 277 317.5 262 c 128,-1,85
 310 247 310 247 310 231 c 2,86,-1
 310 210 l 1,74,-1
EndSplineSet
EndChar
StartChar: eth
Encoding: 240 240 177
Width: 418
Flags: W
Fore
105 367 m 1,0,1
 91 398 91 398 121 412 c 2,2,-1
 179 439 l 1,3,4
 161 450 161 450 142 459 c 128,-1,5
 123 468 123 468 103 476 c 1,6,-1
 118 507 l 1,7,8
 144 496 144 496 169.5 484 c 128,-1,9
 195 472 195 472 218 457 c 1,10,-1
 311 500 l 1,11,12
 325 469 325 469 295 455 c 2,13,-1
 250 434 l 1,14,15
 280 410 280 410 305 380 c 128,-1,16
 330 350 330 350 348 313 c 0,17,18
 363 282 363 282 370.5 249 c 128,-1,19
 378 216 378 216 378 178 c 0,20,21
 378 130 378 130 362.5 95 c 128,-1,22
 347 60 347 60 322.5 37.5 c 128,-1,23
 298 15 298 15 267.5 4.5 c 128,-1,24
 237 -6 237 -6 206 -6 c 0,25,26
 169 -6 169 -6 138.5 7 c 128,-1,27
 108 20 108 20 86 43 c 128,-1,28
 64 66 64 66 52 97 c 128,-1,29
 40 128 40 128 40 164 c 0,30,31
 40 206 40 206 54.5 239.5 c 128,-1,32
 69 273 69 273 93 296.5 c 128,-1,33
 117 320 117 320 147 332.5 c 128,-1,34
 177 345 177 345 209 345 c 0,35,36
 245 345 245 345 279 329 c 128,-1,37
 313 313 313 313 338 283 c 1,38,-1
 339 286 l 1,39,40
 335 291 335 291 329 298 c 128,-1,41
 323 305 323 305 315 311 c 1,42,43
 275 374 275 374 214 417 c 1,44,-1
 105 367 l 1,0,1
339 173 m 256,45,46
 339 209 339 209 330.5 233 c 128,-1,47
 322 257 322 257 307 274 c 1,48,49
 290 288 290 288 266.5 300.5 c 128,-1,50
 243 313 243 313 209 313 c 0,51,52
 174 313 174 313 149 299.5 c 128,-1,53
 124 286 124 286 108 264.5 c 128,-1,54
 92 243 92 243 84 216.5 c 128,-1,55
 76 190 76 190 76 165 c 0,56,57
 76 132 76 132 87.5 106 c 128,-1,58
 99 80 99 80 117 62 c 128,-1,59
 135 44 135 44 158 35 c 128,-1,60
 181 26 181 26 205 26 c 0,61,62
 233 26 233 26 257.5 35.5 c 128,-1,63
 282 45 282 45 300 63.5 c 128,-1,64
 318 82 318 82 328.5 109.5 c 128,-1,65
 339 137 339 137 339 173 c 256,45,46
EndSplineSet
EndChar
StartChar: divide
Encoding: 247 247 184
Width: 400
Flags: W
Fore
369 216 m 1,0,1
 369 199 369 199 359.5 189.5 c 128,-1,2
 350 180 350 180 333 180 c 2,3,-1
 30 180 l 1,4,5
 30 197 30 197 39.5 206.5 c 128,-1,6
 49 216 49 216 66 216 c 2,7,-1
 369 216 l 1,0,1
163 315 m 256,8,9
 163 330 163 330 174 341 c 128,-1,10
 185 352 185 352 200 352 c 256,11,12
 215 352 215 352 226 341 c 128,-1,13
 237 330 237 330 237 315 c 256,14,15
 237 300 237 300 226 289 c 128,-1,16
 215 278 215 278 200 278 c 256,17,18
 185 278 185 278 174 289 c 128,-1,19
 163 300 163 300 163 315 c 256,8,9
163 81 m 256,20,21
 163 96 163 96 174 107 c 128,-1,22
 185 118 185 118 200 118 c 256,23,24
 215 118 215 118 226 107 c 128,-1,25
 237 96 237 96 237 81 c 256,26,27
 237 66 237 66 226 55 c 128,-1,28
 215 44 215 44 200 44 c 256,29,30
 185 44 185 44 174 55 c 128,-1,31
 163 66 163 66 163 81 c 256,20,21
EndSplineSet
EndChar
StartChar: oslash
Encoding: 248 248 185
Width: 431
Flags: W
Fore
283 343 m 2,0,1
 298 375 298 375 331 359 c 1,2,-1
 148 -4 l 2,3,4
 132 -37 132 -37 100 -20 c 1,5,-1
 283 343 l 2,0,1
40 169 m 256,6,7
 40 205 40 205 53.5 237 c 128,-1,8
 67 269 67 269 91 293 c 128,-1,9
 115 317 115 317 147 331 c 128,-1,10
 179 345 179 345 215 345 c 256,11,12
 251 345 251 345 283 331 c 128,-1,13
 315 317 315 317 339 293 c 128,-1,14
 363 269 363 269 377 237 c 128,-1,15
 391 205 391 205 391 169 c 256,16,17
 391 133 391 133 377 101 c 128,-1,18
 363 69 363 69 339 45 c 128,-1,19
 315 21 315 21 283 7.5 c 128,-1,20
 251 -6 251 -6 215 -6 c 256,21,22
 179 -6 179 -6 147 7.5 c 128,-1,23
 115 21 115 21 91 45 c 128,-1,24
 67 69 67 69 53.5 101 c 128,-1,25
 40 133 40 133 40 169 c 256,6,7
76 169 m 256,26,27
 76 139 76 139 87 113.5 c 128,-1,28
 98 88 98 88 116.5 68.5 c 128,-1,29
 135 49 135 49 160.5 38 c 128,-1,30
 186 27 186 27 215 27 c 256,31,32
 244 27 244 27 269.5 38 c 128,-1,33
 295 49 295 49 314 68.5 c 128,-1,34
 333 88 333 88 344 113.5 c 128,-1,35
 355 139 355 139 355 169 c 256,36,37
 355 199 355 199 344 225 c 128,-1,38
 333 251 333 251 314 270.5 c 128,-1,39
 295 290 295 290 269.5 301 c 128,-1,40
 244 312 244 312 215 312 c 256,41,42
 186 312 186 312 160.5 301 c 128,-1,43
 135 290 135 290 116.5 270.5 c 128,-1,44
 98 251 98 251 87 225 c 128,-1,45
 76 199 76 199 76 169 c 256,26,27
EndSplineSet
EndChar
StartChar: thorn
Encoding: 254 254 191
Width: 390
Flags: W
Fore
96 108 m 2,0,1
 96 92 96 92 103.5 77.5 c 128,-1,2
 111 63 111 63 124 51.5 c 128,-1,3
 137 40 137 40 155.5 33.5 c 128,-1,4
 174 27 174 27 195 27 c 256,5,6
 216 27 216 27 234.5 33.5 c 128,-1,7
 253 40 253 40 266 51.5 c 128,-1,8
 279 63 279 63 286.5 77.5 c 128,-1,9
 294 92 294 92 294 108 c 2,10,-1
 294 232 l 2,11,12
 294 264 294 264 266 288 c 128,-1,13
 238 312 238 312 195 312 c 256,14,15
 152 312 152 312 124 288 c 128,-1,16
 96 264 96 264 96 232 c 2,17,-1
 96 108 l 2,0,1
96 -110 m 2,18,19
 96 -125 96 -125 88 -133.5 c 128,-1,20
 80 -142 80 -142 60 -142 c 1,21,-1
 60 445 l 2,22,23
 60 481 60 481 96 481 c 1,24,-1
 96 313 l 1,25,26
 93 311 93 311 89 306.5 c 128,-1,27
 85 302 85 302 83 299 c 1,28,-1
 84 296 l 1,29,30
 102 319 102 319 131 332 c 128,-1,31
 160 345 160 345 195 345 c 0,32,33
 223 345 223 345 247.5 336 c 128,-1,34
 272 327 272 327 290.5 312 c 128,-1,35
 309 297 309 297 319.5 276.5 c 128,-1,36
 330 256 330 256 330 232 c 2,37,-1
 330 108 l 2,38,39
 330 84 330 84 319.5 63.5 c 128,-1,40
 309 43 309 43 290.5 27.5 c 128,-1,41
 272 12 272 12 247.5 3 c 128,-1,42
 223 -6 223 -6 195 -6 c 0,43,44
 160 -6 160 -6 131 7 c 128,-1,45
 102 20 102 20 84 43 c 1,46,-1
 83 40 l 1,47,48
 85 37 85 37 89 32.5 c 128,-1,49
 93 28 93 28 96 26 c 1,50,-1
 96 -110 l 2,18,19
EndSplineSet
EndChar
StartChar: Lslash
Encoding: 321 321 193
Width: 414
Flags: W
Fore
358 36 m 2,0,1
 394 36 394 36 394 0 c 1,2,-1
 80 0 l 2,3,4
 71 0 71 0 65.5 6 c 128,-1,5
 60 12 60 12 60 20 c 2,6,-1
 60 200 l 1,7,-1
 7 166 l 1,8,9
 -10 194 -10 194 17 212 c 2,10,-1
 60 240 l 1,11,-1
 60 441 l 2,12,13
 60 481 60 481 100 481 c 1,14,-1
 100 267 l 1,15,-1
 213 341 l 1,16,17
 231 313 231 313 204 295 c 2,18,-1
 100 226 l 1,19,-1
 100 36 l 1,20,-1
 358 36 l 2,0,1
EndSplineSet
EndChar
StartChar: lslash
Encoding: 322 322 194
Width: 160
Flags: W
Fore
100 266 m 1,0,-1
 153 301 l 1,1,2
 171 273 171 273 144 255 c 2,3,-1
 100 226 l 1,4,-1
 100 34 l 2,5,6
 100 -6 100 -6 60 -6 c 1,7,-1
 60 200 l 1,8,-1
 7 166 l 1,9,10
 -10 194 -10 194 17 212 c 2,11,-1
 60 240 l 1,12,-1
 60 441 l 2,13,14
 60 481 60 481 100 481 c 1,15,-1
 100 266 l 1,0,-1
EndSplineSet
EndChar
StartChar: OE
Encoding: 338 338 195
Width: 799
Flags: W
Fore
425 256 m 1,0,-1
 623 256 l 1,1,2
 623 220 623 220 587 220 c 2,3,-1
 425 220 l 1,4,-1
 425 150 l 2,5,6
 425 126 425 126 436.5 104 c 128,-1,7
 448 82 448 82 468 65.5 c 128,-1,8
 488 49 488 49 514.5 39.5 c 128,-1,9
 541 30 541 30 572 30 c 256,10,11
 603 30 603 30 630 39.5 c 128,-1,12
 657 49 657 49 677 65.5 c 128,-1,13
 697 82 697 82 708.5 104 c 128,-1,14
 720 126 720 126 720 150 c 0,15,16
 720 160 l 128,-1,17
 720 165 720 165 719 170 c 1,18,19
 735 170 735 170 748.5 159 c 128,-1,20
 762 148 762 148 757 122 c 0,21,22
 751 92 751 92 733 68 c 128,-1,23
 715 44 715 44 689.5 27.5 c 128,-1,24
 664 11 664 11 633.5 2.5 c 128,-1,25
 603 -6 603 -6 572 -6 c 0,26,27
 524 -6 524 -6 477.5 15.5 c 128,-1,28
 431 37 431 37 405 78 c 1,29,30
 393 58 393 58 374.5 42.5 c 128,-1,31
 356 27 356 27 333.5 16 c 128,-1,32
 311 5 311 5 286.5 -0.5 c 128,-1,33
 262 -6 262 -6 237 -6 c 0,34,35
 204 -6 204 -6 171 4.5 c 128,-1,36
 138 15 138 15 111 35 c 128,-1,37
 84 55 84 55 67 84 c 128,-1,38
 50 113 50 113 50 150 c 2,39,-1
 50 326 l 2,40,41
 50 362 50 362 66.5 390.5 c 128,-1,42
 83 419 83 419 109.5 439 c 128,-1,43
 136 459 136 459 169.5 470 c 128,-1,44
 203 481 203 481 237 481 c 0,45,46
 286 481 286 481 332.5 460 c 128,-1,47
 379 439 379 439 405 396 c 1,48,49
 430 436 430 436 476.5 458.5 c 128,-1,50
 523 481 523 481 572 481 c 0,51,52
 602 481 602 481 631.5 473.5 c 128,-1,53
 661 466 661 466 686.5 450 c 128,-1,54
 712 434 712 434 730.5 410.5 c 128,-1,55
 749 387 749 387 757 355 c 0,56,57
 763 328 763 328 749 317 c 128,-1,58
 735 306 735 306 719 306 c 1,59,60
 720 311 720 311 720 316 c 128,-1,61
 720 326 l 0,62,63
 720 350 720 350 708.5 372 c 128,-1,64
 697 394 697 394 677 410 c 128,-1,65
 657 426 657 426 630 435.5 c 128,-1,66
 603 445 603 445 572 445 c 256,67,68
 541 445 541 445 514.5 435.5 c 128,-1,69
 488 426 488 426 468 410 c 128,-1,70
 448 394 448 394 436.5 372 c 128,-1,71
 425 350 425 350 425 326 c 2,72,-1
 425 256 l 1,0,-1
385 326 m 2,73,74
 385 350 385 350 373.5 372 c 128,-1,75
 362 394 362 394 342 410 c 128,-1,76
 322 426 322 426 295 435.5 c 128,-1,77
 268 445 268 445 237 445 c 256,78,79
 206 445 206 445 179.5 435.5 c 128,-1,80
 153 426 153 426 133 410 c 128,-1,81
 113 394 113 394 101.5 372 c 128,-1,82
 90 350 90 350 90 326 c 2,83,-1
 90 150 l 2,84,85
 90 126 90 126 101.5 104 c 128,-1,86
 113 82 113 82 133 65.5 c 128,-1,87
 153 49 153 49 179.5 39.5 c 128,-1,88
 206 30 206 30 237 30 c 256,89,90
 268 30 268 30 295 39.5 c 128,-1,91
 322 49 322 49 342 65.5 c 128,-1,92
 362 82 362 82 373.5 104 c 128,-1,93
 385 126 385 126 385 150 c 2,94,-1
 385 326 l 2,73,74
EndSplineSet
EndChar
StartChar: oe
Encoding: 339 339 196
Width: 604
Flags: W
Fore
320 107 m 2,0,1
 320 75 320 75 348 51 c 128,-1,2
 376 27 376 27 419 27 c 0,3,4
 440 27 440 27 458.5 33.5 c 128,-1,5
 477 40 477 40 490 51.5 c 128,-1,6
 503 63 503 63 510.5 77.5 c 128,-1,7
 518 92 518 92 518 108 c 1,8,9
 524 108 524 108 530 104.5 c 128,-1,10
 536 101 536 101 540.5 95.5 c 128,-1,11
 545 90 545 90 546.5 82 c 128,-1,12
 548 74 548 74 544 65 c 0,13,14
 529 33 529 33 495.5 13.5 c 128,-1,15
 462 -6 462 -6 419 -6 c 0,16,17
 381 -6 381 -6 349.5 9.5 c 128,-1,18
 318 25 318 25 301 51 c 1,19,20
 284 25 284 25 253.5 9.5 c 128,-1,21
 223 -6 223 -6 185 -6 c 0,22,23
 157 -6 157 -6 132.5 3 c 128,-1,24
 108 12 108 12 89.5 27 c 128,-1,25
 71 42 71 42 60.5 62.5 c 128,-1,26
 50 83 50 83 50 107 c 2,27,-1
 50 231 l 2,28,29
 50 255 50 255 60.5 275.5 c 128,-1,30
 71 296 71 296 89.5 311.5 c 128,-1,31
 108 327 108 327 132.5 336 c 128,-1,32
 157 345 157 345 185 345 c 0,33,34
 223 345 223 345 254 329.5 c 128,-1,35
 285 314 285 314 302 288 c 1,36,37
 319 314 319 314 350 329.5 c 128,-1,38
 381 345 381 345 419 345 c 0,39,40
 447 345 447 345 471.5 336 c 128,-1,41
 496 327 496 327 514.5 311.5 c 128,-1,42
 533 296 533 296 543.5 275.5 c 128,-1,43
 554 255 554 255 554 231 c 2,44,-1
 554 195 l 2,45,46
 554 187 554 187 548.5 182 c 128,-1,47
 543 177 543 177 536 177 c 2,48,-1
 320 177 l 1,49,-1
 320 107 l 2,0,1
185 312 m 256,50,51
 164 312 164 312 145.5 305.5 c 128,-1,52
 127 299 127 299 114 287.5 c 128,-1,53
 101 276 101 276 93.5 261.5 c 128,-1,54
 86 247 86 247 86 231 c 2,55,-1
 86 107 l 2,56,57
 86 75 86 75 114 51 c 128,-1,58
 142 27 142 27 185 27 c 0,59,60
 206 27 206 27 224 33.5 c 128,-1,61
 242 40 242 40 255.5 50.5 c 128,-1,62
 269 61 269 61 276.5 75.5 c 128,-1,63
 284 90 284 90 284 107 c 2,64,-1
 284 231 l 2,65,66
 284 247 284 247 276.5 261.5 c 128,-1,67
 269 276 269 276 256 287.5 c 128,-1,68
 243 299 243 299 224.5 305.5 c 128,-1,69
 206 312 206 312 185 312 c 256,50,51
320 210 m 1,70,-1
 518 210 l 1,71,-1
 518 231 l 2,72,73
 518 247 518 247 510.5 261.5 c 128,-1,74
 503 276 503 276 490 287.5 c 128,-1,75
 477 299 477 299 458.5 305.5 c 128,-1,76
 440 312 440 312 419 312 c 256,77,78
 398 312 398 312 379.5 305.5 c 128,-1,79
 361 299 361 299 348 287.5 c 128,-1,80
 335 276 335 276 327.5 261.5 c 128,-1,81
 320 247 320 247 320 231 c 2,82,-1
 320 210 l 1,70,-1
EndSplineSet
EndChar
StartChar: florin
Encoding: 402 402 202
Width: 382
Flags: W
Fore
350 436 m 1,0,1
 339 442 339 442 324.5 445.5 c 128,-1,2
 310 449 310 449 298 449 c 0,3,4
 275 449 275 449 258.5 438.5 c 128,-1,5
 242 428 242 428 230.5 410.5 c 128,-1,6
 219 393 219 393 213 370.5 c 128,-1,7
 207 348 207 348 205 323 c 2,8,-1
 201 289 l 1,9,-1
 305 289 l 1,10,11
 305 257 305 257 273 257 c 2,12,-1
 198 257 l 1,13,14
 195 227 195 227 191 199 c 0,15,16
 188 175 188 175 185.5 149 c 128,-1,17
 183 123 183 123 181 105 c 0,18,19
 173 31 173 31 145 -13 c 128,-1,20
 117 -57 117 -57 59 -57 c 0,21,22
 44 -57 44 -57 32 -53 c 0,23,24
 20 -48 20 -48 15 -38.5 c 128,-1,25
 10 -29 10 -29 16 -14 c 1,26,27
 29 -21 29 -21 39 -23 c 128,-1,28
 49 -25 49 -25 63 -25 c 0,29,30
 82 -25 82 -25 96 -15.5 c 128,-1,31
 110 -6 110 -6 119 10 c 128,-1,32
 128 26 128 26 133.5 46.5 c 128,-1,33
 139 67 139 67 141 88 c 2,34,-1
 159 257 l 1,35,-1
 84 257 l 1,36,37
 84 289 84 289 116 289 c 2,38,-1
 163 289 l 1,39,40
 164 298 164 298 165 306.5 c 128,-1,41
 166 315 166 315 167 324 c 0,42,43
 175 394 175 394 208 438 c 128,-1,44
 241 482 241 482 303 482 c 0,45,46
 324 482 324 482 338 475 c 0,47,48
 364 462 364 462 350 436 c 1,0,1
EndSplineSet
EndChar
StartChar: circumflex
Encoding: 710 710 203
Width: 306
Flags: W
Fore
153 478 m 256,0,1
 160 478 160 478 165 473 c 2,2,-1
 250 383 l 1,3,4
 239 375 239 375 226 375 c 128,-1,5
 213 375 213 375 205 383 c 2,6,-1
 153 438 l 1,7,-1
 101 383 l 2,8,9
 93 375 93 375 80 375 c 128,-1,10
 67 375 67 375 56 383 c 1,11,-1
 141 473 l 2,12,13
 146 478 146 478 153 478 c 256,0,1
EndSplineSet
EndChar
StartChar: breve
Encoding: 728 728 205
Width: 300
Flags: W
Fore
150 373 m 0,0,1
 133 373 133 373 114.5 378.5 c 128,-1,2
 96 384 96 384 80 394.5 c 128,-1,3
 64 405 64 405 53.5 420.5 c 128,-1,4
 43 436 43 436 42 456 c 0,5,6
 41 466 41 466 51 473.5 c 128,-1,7
 61 481 61 481 75 481 c 1,8,9
 75 449 75 449 96 428 c 128,-1,10
 117 407 117 407 150 407 c 256,11,12
 183 407 183 407 204 428 c 128,-1,13
 225 449 225 449 225 481 c 1,14,15
 239 481 239 481 249 473.5 c 128,-1,16
 259 466 259 466 258 456 c 0,17,18
 257 436 257 436 246.5 420.5 c 128,-1,19
 236 405 236 405 220 394.5 c 128,-1,20
 204 384 204 384 185 378.5 c 128,-1,21
 166 373 166 373 150 373 c 0,0,1
EndSplineSet
EndChar
StartChar: dotaccent
Encoding: 729 729 206
Width: 158
Flags: W
Fore
43 462 m 0,0,1
 43 476 43 476 53 487 c 128,-1,2
 63 498 63 498 79 498 c 256,3,4
 95 498 95 498 105 487 c 128,-1,5
 115 476 115 476 115 462 c 0,6,7
 115 447 115 447 105 436.5 c 128,-1,8
 95 426 95 426 79 426 c 256,9,10
 63 426 63 426 53 436.5 c 128,-1,11
 43 447 43 447 43 462 c 0,0,1
EndSplineSet
EndChar
StartChar: ring
Encoding: 730 730 207
Width: 278
Flags: W
Fore
72 461 m 0,0,1
 72 484 72 484 90 505 c 128,-1,2
 108 526 108 526 139 526 c 0,3,4
 169 526 169 526 187 505 c 128,-1,5
 205 484 205 484 205 461 c 0,6,7
 205 432 205 432 186.5 413.5 c 128,-1,8
 168 395 168 395 139 395 c 0,9,10
 111 395 111 395 91.5 414 c 128,-1,11
 72 433 72 433 72 461 c 0,0,1
97 461 m 0,12,13
 97 443 97 443 109 431 c 128,-1,14
 121 419 121 419 139 419 c 256,15,16
 157 419 157 419 169 431 c 128,-1,17
 181 443 181 443 181 461 c 0,18,19
 181 475 181 475 169.5 488.5 c 128,-1,20
 158 502 158 502 139 502 c 0,21,22
 119 502 119 502 108 489 c 128,-1,23
 97 476 97 476 97 461 c 0,12,13
EndSplineSet
EndChar
StartChar: tilde
Encoding: 732 732 209
Width: 233
Flags: W
Fore
127 447 m 0,0,1
 136 439 136 439 145 433 c 128,-1,2
 154 427 154 427 165 427 c 256,3,4
 176 427 176 427 184 441 c 128,-1,5
 192 455 192 455 184 472 c 1,6,7
 202 478 202 478 211 467.5 c 128,-1,8
 220 457 220 457 218 445 c 0,9,10
 215 423 215 423 201 409.5 c 128,-1,11
 187 396 187 396 165 396 c 0,12,13
 145 396 145 396 132 404 c 128,-1,14
 119 412 119 412 105 423 c 0,15,16
 97 431 97 431 87.5 437 c 128,-1,17
 78 443 78 443 67 443 c 256,18,19
 56 443 56 443 48 429 c 128,-1,20
 40 415 40 415 48 398 c 1,21,22
 31 391 31 391 21.5 402 c 128,-1,23
 12 413 12 413 14 425 c 0,24,25
 18 447 18 447 32 460.5 c 128,-1,26
 46 474 46 474 67 474 c 256,27,28
 88 474 88 474 100.5 466 c 128,-1,29
 113 458 113 458 127 447 c 0,0,1
EndSplineSet
EndChar
StartChar: uni0E01
Encoding: 3585 3585 212
Width: 418
Flags: W
Fore
78 193 m 1,0,1
 76 195 76 195 70 206 c 128,-1,2
 64 217 64 217 58 229 c 0,3,4
 50 243 50 243 42 260 c 0,5,6
 40 266 40 266 40 269 c 0,7,8
 40 299 40 299 54 323.5 c 128,-1,9
 68 348 68 348 90.5 365.5 c 128,-1,10
 113 383 113 383 141.5 392.5 c 128,-1,11
 170 402 170 402 199 402 c 0,12,13
 227 402 227 402 255.5 393 c 128,-1,14
 284 384 284 384 306.5 367 c 128,-1,15
 329 350 329 350 343.5 325 c 128,-1,16
 358 300 358 300 358 269 c 2,17,-1
 358 36 l 2,18,19
 358 18 358 18 347 6 c 128,-1,20
 336 -6 336 -6 320 -6 c 1,21,-1
 320 269 l 2,22,23
 320 288 320 288 310.5 306 c 128,-1,24
 301 324 301 324 284.5 338 c 128,-1,25
 268 352 268 352 246 360 c 128,-1,26
 224 368 224 368 199 368 c 0,27,28
 175 368 175 368 153.5 360.5 c 128,-1,29
 132 353 132 353 115.5 340 c 128,-1,30
 99 327 99 327 89 310 c 128,-1,31
 79 293 79 293 78 274 c 1,32,33
 80 271 80 271 85 260 c 128,-1,34
 90 249 90 249 97 237 c 0,35,36
 104 223 104 223 114 207 c 1,37,38
 116 201 116 201 116 198 c 2,39,-1
 116 -6 l 1,40,41
 100 -6 100 -6 89 6 c 128,-1,42
 78 18 78 18 78 36 c 2,43,-1
 78 193 l 1,44,-1
 78 193 l 1,0,1
EndSplineSet
EndChar
StartChar: uni0E02
Encoding: 3586 3586 213
Width: 401
Flags: W
Fore
303 359 m 2,0,1
 303 376 303 376 314 388.5 c 128,-1,2
 325 401 325 401 341 401 c 1,3,-1
 341 91 l 2,4,5
 341 69 341 69 332.5 51 c 128,-1,6
 324 33 324 33 309 20.5 c 128,-1,7
 294 8 294 8 274.5 1 c 128,-1,8
 255 -6 255 -6 234 -6 c 256,9,10
 213 -6 213 -6 194 1 c 128,-1,11
 175 8 175 8 160 20.5 c 128,-1,12
 145 33 145 33 136.5 51 c 128,-1,13
 128 69 128 69 128 91 c 2,14,-1
 128 110 l 2,15,16
 128 147 128 147 145 177.5 c 128,-1,17
 162 208 162 208 185 237 c 0,18,19
 208 265 208 265 208 290 c 0,20,21
 208 305 208 305 202 319 c 128,-1,22
 196 333 196 333 186 344 c 128,-1,23
 176 355 176 355 162.5 361.5 c 128,-1,24
 149 368 149 368 134 368 c 0,25,26
 108 368 108 368 89 354.5 c 128,-1,27
 70 341 70 341 61 321 c 1,28,29
 51 311 51 311 47 301 c 1,30,-1
 48 298 l 1,31,32
 53 312 53 312 66.5 319.5 c 128,-1,33
 80 327 80 327 93 327 c 0,34,35
 119 327 119 327 137 310.5 c 128,-1,36
 155 294 155 294 155 269 c 0,37,38
 155 243 155 243 137 225 c 128,-1,39
 119 207 119 207 93 207 c 0,40,41
 61 207 61 207 41.5 232 c 128,-1,42
 22 257 22 257 22 290 c 0,43,44
 22 313 22 313 31 333.5 c 128,-1,45
 40 354 40 354 55 369 c 128,-1,46
 70 384 70 384 90.5 393 c 128,-1,47
 111 402 111 402 134 402 c 256,48,49
 157 402 157 402 177.5 393 c 128,-1,50
 198 384 198 384 213 369 c 128,-1,51
 228 354 228 354 237 333.5 c 128,-1,52
 246 313 246 313 246 290 c 0,53,54
 246 270 246 270 235.5 251 c 128,-1,55
 225 232 225 232 210 213 c 0,56,57
 192 190 192 190 179.5 165.5 c 128,-1,58
 167 141 167 141 166 110 c 2,59,-1
 166 91 l 2,60,61
 166 63 166 63 186 45.5 c 128,-1,62
 206 28 206 28 234 28 c 256,63,64
 262 28 262 28 282.5 45 c 128,-1,65
 303 62 303 62 303 91 c 2,66,-1
 303 359 l 2,0,1
61 269 m 256,67,68
 61 255 61 255 70 246 c 128,-1,69
 79 237 79 237 93 237 c 256,70,71
 107 237 107 237 116 246 c 128,-1,72
 125 255 125 255 125 269 c 256,73,74
 125 283 125 283 116 292 c 128,-1,75
 107 301 107 301 93 301 c 256,76,77
 79 301 79 301 70 292 c 128,-1,78
 61 283 61 283 61 269 c 256,67,68
EndSplineSet
EndChar
StartChar: uni0E03
Encoding: 3587 3587 214
Width: 401
Flags: W
Fore
61 269 m 256,0,1
 61 255 61 255 70 246 c 128,-1,2
 79 237 79 237 93 237 c 256,3,4
 107 237 107 237 116 246 c 128,-1,5
 125 255 125 255 125 269 c 256,6,7
 125 283 125 283 116 292 c 128,-1,8
 107 301 107 301 93 301 c 256,9,10
 79 301 79 301 70 292 c 128,-1,11
 61 283 61 283 61 269 c 256,0,1
93 327 m 0,12,13
 119 327 119 327 137 310.5 c 128,-1,14
 155 294 155 294 155 269 c 0,15,16
 155 243 155 243 137 225 c 128,-1,17
 119 207 119 207 93 207 c 0,18,19
 61 207 61 207 41.5 232 c 128,-1,20
 22 257 22 257 22 290 c 0,21,22
 22 310 22 310 27 329.5 c 128,-1,23
 32 349 32 349 43 364 c 0,24,25
 68 402 68 402 104 402 c 0,26,27
 113 402 113 402 120.5 394 c 128,-1,28
 128 386 128 386 136 379 c 1,29,30
 142 384 142 384 150 393 c 128,-1,31
 158 402 158 402 168 402 c 0,32,33
 186 402 186 402 200.5 392 c 128,-1,34
 215 382 215 382 225 366.5 c 128,-1,35
 235 351 235 351 240.5 331 c 128,-1,36
 246 311 246 311 246 290 c 0,37,38
 246 270 246 270 235.5 251 c 128,-1,39
 225 232 225 232 210 213 c 0,40,41
 192 190 192 190 179.5 165.5 c 128,-1,42
 167 141 167 141 166 110 c 2,43,-1
 166 91 l 2,44,45
 166 63 166 63 186 45.5 c 128,-1,46
 206 28 206 28 234 28 c 256,47,48
 262 28 262 28 282.5 45 c 128,-1,49
 303 62 303 62 303 91 c 2,50,-1
 303 359 l 2,51,52
 303 376 303 376 314 388.5 c 128,-1,53
 325 401 325 401 341 401 c 1,54,-1
 341 91 l 2,55,56
 341 69 341 69 332.5 51 c 128,-1,57
 324 33 324 33 309 20.5 c 128,-1,58
 294 8 294 8 274.5 1 c 128,-1,59
 255 -6 255 -6 234 -6 c 256,60,61
 213 -6 213 -6 194 1 c 128,-1,62
 175 8 175 8 160 20.5 c 128,-1,63
 145 33 145 33 136.5 51 c 128,-1,64
 128 69 128 69 128 91 c 2,65,-1
 128 110 l 2,66,67
 128 147 128 147 145 177.5 c 128,-1,68
 162 208 162 208 185 237 c 0,69,70
 208 265 208 265 208 290 c 0,71,72
 208 302 208 302 205.5 314.5 c 128,-1,73
 203 327 203 327 198.5 338.5 c 128,-1,74
 194 350 194 350 188 358 c 128,-1,75
 182 366 182 366 175 369 c 1,76,77
 171 366 171 366 167 362 c 128,-1,78
 159 354 l 256,79,80
 155 350 155 350 149 345 c 0,81,82
 144 340 144 340 136 340 c 128,-1,83
 128 340 128 340 123 345 c 0,84,85
 117 350 117 350 113 354 c 256,86,87
 109 358 109 358 104.5 362 c 128,-1,88
 100 366 100 366 97 369 c 1,89,90
 86 365 86 365 76 352.5 c 128,-1,91
 66 340 66 340 60 320 c 1,92,93
 51 311 51 311 47 301 c 1,94,-1
 48 298 l 1,95,96
 53 312 53 312 66.5 319.5 c 128,-1,97
 80 327 80 327 93 327 c 0,12,13
EndSplineSet
EndChar
StartChar: uni0E04
Encoding: 3588 3588 215
Width: 438
Flags: W
Fore
219 402 m 0,0,1
 247 402 247 402 275 393 c 128,-1,2
 303 384 303 384 326 366.5 c 128,-1,3
 349 349 349 349 363.5 324.5 c 128,-1,4
 378 300 378 300 378 269 c 2,5,-1
 378 36 l 2,6,7
 378 18 378 18 367 6 c 128,-1,8
 356 -6 356 -6 340 -6 c 1,9,-1
 340 269 l 2,10,11
 340 288 340 288 330.5 306 c 128,-1,12
 321 324 321 324 304.5 338 c 128,-1,13
 288 352 288 352 266 360 c 128,-1,14
 244 368 244 368 219 368 c 256,15,16
 194 368 194 368 172 360 c 128,-1,17
 150 352 150 352 133.5 338 c 128,-1,18
 117 324 117 324 107.5 306 c 128,-1,19
 98 288 98 288 98 269 c 2,20,-1
 98 100 l 1,21,-1
 89 73 l 1,22,-1
 90 70 l 1,23,-1
 162 260 l 2,24,25
 168 277 168 277 183.5 287.5 c 128,-1,26
 199 298 199 298 219 298 c 0,27,28
 244 298 244 298 262.5 280 c 128,-1,29
 281 262 281 262 281 236 c 256,30,31
 281 210 281 210 262.5 192 c 128,-1,32
 244 174 244 174 219 174 c 0,33,34
 179 174 179 174 167 212 c 1,35,-1
 166 209 l 1,36,37
 168 199 168 199 173 192 c 1,38,-1
 98 -6 l 1,39,40
 82 -6 82 -6 71 6 c 128,-1,41
 60 18 60 18 60 36 c 2,42,-1
 60 269 l 2,43,44
 60 299 60 299 74 323.5 c 128,-1,45
 88 348 88 348 110.5 365.5 c 128,-1,46
 133 383 133 383 161.5 392.5 c 128,-1,47
 190 402 190 402 219 402 c 0,0,1
187 236 m 256,48,49
 187 222 187 222 196 213 c 128,-1,50
 205 204 205 204 219 204 c 256,51,52
 233 204 233 204 242 213 c 128,-1,53
 251 222 251 222 251 236 c 256,54,55
 251 250 251 250 242 259 c 128,-1,56
 233 268 233 268 219 268 c 256,57,58
 205 268 205 268 196 259 c 128,-1,59
 187 250 187 250 187 236 c 256,48,49
EndSplineSet
EndChar
StartChar: uni0E05
Encoding: 3589 3589 216
Width: 438
Flags: W
Fore
187 227 m 256,0,1
 187 213 187 213 196 204 c 128,-1,2
 205 195 205 195 219 195 c 256,3,4
 233 195 233 195 242 204 c 128,-1,5
 251 213 251 213 251 227 c 256,6,7
 251 241 251 241 242 250 c 128,-1,8
 233 259 233 259 219 259 c 256,9,10
 205 259 205 259 196 250 c 128,-1,11
 187 241 187 241 187 227 c 256,0,1
162 251 m 2,12,13
 169 268 169 268 184.5 278.5 c 128,-1,14
 200 289 200 289 219 289 c 0,15,16
 245 289 245 289 263 271 c 128,-1,17
 281 253 281 253 281 227 c 256,18,19
 281 201 281 201 263 183 c 128,-1,20
 245 165 245 165 219 165 c 0,21,22
 179 165 179 165 167 203 c 1,23,-1
 166 200 l 1,24,25
 168 190 168 190 173 183 c 1,26,-1
 98 -6 l 1,27,28
 82 -6 82 -6 71 6 c 128,-1,29
 60 18 60 18 60 36 c 2,30,-1
 60 288 l 2,31,32
 60 315 60 315 70 336.5 c 128,-1,33
 80 358 80 358 95 372.5 c 128,-1,34
 110 387 110 387 128 394.5 c 128,-1,35
 146 402 146 402 161 402 c 0,36,37
 168 402 168 402 173 397 c 0,38,39
 182 389 182 389 191 383 c 0,40,41
 199 377 199 377 206.5 371.5 c 128,-1,42
 214 366 214 366 219 361 c 1,43,44
 224 366 224 366 232 371.5 c 128,-1,45
 240 377 240 377 248 383 c 0,46,47
 257 389 257 389 265 397 c 0,48,49
 270 402 270 402 277 402 c 0,50,51
 292 402 292 402 310 394.5 c 128,-1,52
 328 387 328 387 343 372.5 c 128,-1,53
 358 358 358 358 368 336.5 c 128,-1,54
 378 315 378 315 378 288 c 2,55,-1
 378 36 l 2,56,57
 378 18 378 18 367 6 c 128,-1,58
 356 -6 356 -6 340 -6 c 1,59,-1
 340 288 l 2,60,61
 340 305 340 305 334.5 319 c 128,-1,62
 329 333 329 333 320.5 343 c 128,-1,63
 312 353 312 353 302 359 c 128,-1,64
 292 365 292 365 283 367 c 1,65,66
 279 364 279 364 270.5 357 c 128,-1,67
 262 350 262 350 253 343 c 0,68,69
 242 335 242 335 231 326 c 0,70,71
 219 316 219 316 207 326 c 0,72,73
 196 335 196 335 185 343 c 0,74,75
 176 350 176 350 167.5 357 c 128,-1,76
 159 364 159 364 155 367 c 1,77,78
 146 365 146 365 136 359 c 128,-1,79
 126 353 126 353 117.5 343 c 128,-1,80
 109 333 109 333 103.5 319 c 128,-1,81
 98 305 98 305 98 288 c 2,82,-1
 98 100 l 1,83,-1
 89 73 l 1,84,-1
 90 70 l 1,85,-1
 162 251 l 2,12,13
EndSplineSet
EndChar
StartChar: uni0E06
Encoding: 3590 3590 217
Width: 459
Flags: W
Fore
60 320 m 1,0,1
 51 311 51 311 47 301 c 1,2,-1
 48 298 l 1,3,4
 53 312 53 312 66.5 319.5 c 128,-1,5
 80 327 80 327 93 327 c 0,6,7
 119 327 119 327 137 310.5 c 128,-1,8
 155 294 155 294 155 269 c 0,9,10
 155 243 155 243 137 225 c 128,-1,11
 119 207 119 207 93 207 c 0,12,13
 61 207 61 207 41.5 232 c 128,-1,14
 22 257 22 257 22 290 c 0,15,16
 22 310 22 310 27 329.5 c 128,-1,17
 32 349 32 349 43 364 c 0,18,19
 68 402 68 402 104 402 c 0,20,21
 113 402 113 402 120.5 394 c 128,-1,22
 128 386 128 386 136 379 c 1,23,24
 142 384 142 384 150 393 c 128,-1,25
 158 402 158 402 168 402 c 0,26,27
 186 402 186 402 200.5 392 c 128,-1,28
 215 382 215 382 225 366.5 c 128,-1,29
 235 351 235 351 240.5 331 c 128,-1,30
 246 311 246 311 246 290 c 0,31,32
 246 270 246 270 235.5 251 c 128,-1,33
 225 232 225 232 210 213 c 0,34,35
 193 193 193 193 179.5 167 c 128,-1,36
 166 141 166 141 166 114 c 0,37,38
 166 107 166 107 167 103 c 1,39,-1
 361 34 l 1,40,-1
 361 359 l 2,41,42
 361 376 361 376 372 388.5 c 128,-1,43
 383 401 383 401 399 401 c 1,44,-1
 399 36 l 2,45,46
 399 18 399 18 388 6 c 128,-1,47
 377 -6 377 -6 361 -6 c 1,48,-1
 167 63 l 1,49,-1
 167 58 l 2,50,51
 167 31 167 31 148 12.5 c 128,-1,52
 129 -6 129 -6 103 -6 c 0,53,54
 76 -6 76 -6 57.5 12.5 c 128,-1,55
 39 31 39 31 39 58 c 0,56,57
 39 84 39 84 57.5 103 c 128,-1,58
 76 122 76 122 103 122 c 0,59,60
 108 122 108 122 115.5 120.5 c 128,-1,61
 123 119 123 119 128 116 c 1,62,63
 130 151 130 151 146.5 179.5 c 128,-1,64
 163 208 163 208 185 237 c 0,65,66
 208 265 208 265 208 290 c 0,67,68
 208 302 208 302 205.5 314.5 c 128,-1,69
 203 327 203 327 198.5 338.5 c 128,-1,70
 194 350 194 350 188 358 c 128,-1,71
 182 366 182 366 175 369 c 1,72,73
 171 366 171 366 167 362 c 128,-1,74
 159 354 l 256,75,76
 155 350 155 350 149 345 c 0,77,78
 144 340 144 340 136 340 c 128,-1,79
 128 340 128 340 123 345 c 0,80,81
 117 350 117 350 113 354 c 256,82,83
 109 358 109 358 104.5 362 c 128,-1,84
 100 366 100 366 97 369 c 1,85,86
 86 365 86 365 76 352.5 c 128,-1,87
 66 340 66 340 60 320 c 1,0,1
61 269 m 256,88,89
 61 255 61 255 70 246 c 128,-1,90
 79 237 79 237 93 237 c 256,91,92
 107 237 107 237 116 246 c 128,-1,93
 125 255 125 255 125 269 c 256,94,95
 125 283 125 283 116 292 c 128,-1,96
 107 301 107 301 93 301 c 256,97,98
 79 301 79 301 70 292 c 128,-1,99
 61 283 61 283 61 269 c 256,88,89
69 58 m 256,100,101
 69 44 69 44 79 34 c 128,-1,102
 89 24 89 24 103 24 c 256,103,104
 117 24 117 24 127 34 c 128,-1,105
 137 44 137 44 137 58 c 256,106,107
 137 72 137 72 127 82 c 128,-1,108
 117 92 117 92 103 92 c 256,109,110
 89 92 89 92 79 82 c 128,-1,111
 69 72 69 72 69 58 c 256,100,101
EndSplineSet
EndChar
StartChar: uni0E07
Encoding: 3591 3591 218
Width: 362
Flags: W
Fore
240 402 m 256,0,1
 266 402 266 402 284 384 c 128,-1,2
 302 366 302 366 302 340 c 2,3,-1
 302 36 l 2,4,5
 302 18 302 18 291 6 c 128,-1,6
 280 -6 280 -6 264 -6 c 1,7,-1
 42 240 l 2,8,9
 31 251 31 251 31 266 c 128,-1,10
 31 281 31 281 42 292 c 1,11,-1
 275 34 l 1,12,-1
 276 37 l 1,13,-1
 264 51 l 1,14,-1
 264 279 l 1,15,16
 274 285 274 285 280 295 c 1,17,-1
 279 298 l 1,18,19
 267 279 267 279 240 279 c 0,20,21
 214 279 214 279 196 296.5 c 128,-1,22
 178 314 178 314 178 340 c 256,23,24
 178 366 178 366 196 384 c 128,-1,25
 214 402 214 402 240 402 c 256,0,1
240 308 m 0,26,27
 254 308 254 308 263 317.5 c 128,-1,28
 272 327 272 327 272 340 c 0,29,30
 272 354 272 354 263 363 c 128,-1,31
 254 372 254 372 240 372 c 0,32,33
 227 372 227 372 217.5 363 c 128,-1,34
 208 354 208 354 208 340 c 0,35,36
 208 327 208 327 217.5 317.5 c 128,-1,37
 227 308 227 308 240 308 c 0,26,27
EndSplineSet
EndChar
StartChar: uni0E08
Encoding: 3592 3592 219
Width: 390
Flags: W
Fore
148 237 m 256,0,1
 148 223 148 223 157 214 c 128,-1,2
 166 205 166 205 180 205 c 256,3,4
 194 205 194 205 203 214 c 128,-1,5
 212 223 212 223 212 237 c 256,6,7
 212 251 212 251 203 260 c 128,-1,8
 194 269 194 269 180 269 c 256,9,10
 166 269 166 269 157 260 c 128,-1,11
 148 251 148 251 148 237 c 256,0,1
224 189 m 1,12,13
 230 197 230 197 232 206 c 1,14,-1
 231 209 l 1,15,16
 226 192 226 192 212 183.5 c 128,-1,17
 198 175 198 175 180 175 c 0,18,19
 154 175 154 175 136 193 c 128,-1,20
 118 211 118 211 118 237 c 256,21,22
 118 263 118 263 136 281 c 128,-1,23
 154 299 154 299 180 299 c 0,24,25
 201 299 201 299 217 286.5 c 128,-1,26
 233 274 233 274 239 255 c 2,27,-1
 302 67 l 1,28,-1
 303 70 l 1,29,-1
 292 106 l 1,30,-1
 292 269 l 2,31,32
 292 289 292 289 283 307 c 128,-1,33
 274 325 274 325 258.5 338.5 c 128,-1,34
 243 352 243 352 221.5 360 c 128,-1,35
 200 368 200 368 176 368 c 256,36,37
 152 368 152 368 130.5 360 c 128,-1,38
 109 352 109 352 93.5 338.5 c 128,-1,39
 78 325 78 325 69 307 c 128,-1,40
 60 289 60 289 60 269 c 0,41,42
 60 263 60 263 60 259.5 c 128,-1,43
 60 256 60 256 61 250 c 1,44,45
 45 250 45 250 33 261 c 128,-1,46
 21 272 21 272 23 288 c 0,47,48
 27 312 27 312 40.5 333 c 128,-1,49
 54 354 54 354 74 369.5 c 128,-1,50
 94 385 94 385 120 393.5 c 128,-1,51
 146 402 146 402 176 402 c 0,52,53
 208 402 208 402 236 391.5 c 128,-1,54
 264 381 264 381 285 363 c 128,-1,55
 306 345 306 345 318 321 c 128,-1,56
 330 297 330 297 330 269 c 2,57,-1
 330 36 l 2,58,59
 330 19 330 19 319 6.5 c 128,-1,60
 308 -6 308 -6 292 -6 c 1,61,-1
 224 189 l 1,12,13
EndSplineSet
EndChar
StartChar: uni0E09
Encoding: 3593 3593 220
Width: 415
Flags: W
Fore
126 123 m 1,0,1
 136 129 136 129 142 139 c 1,2,-1
 141 142 l 1,3,4
 129 123 129 123 102 123 c 0,5,6
 76 123 76 123 58 141 c 128,-1,7
 40 159 40 159 40 185 c 256,8,9
 40 211 40 211 58 229 c 128,-1,10
 76 247 76 247 102 247 c 256,11,12
 128 247 128 247 146 229 c 128,-1,13
 164 211 164 211 164 185 c 2,14,-1
 164 36 l 1,15,-1
 274 104 l 2,16,17
 287 112 287 112 294.5 123.5 c 128,-1,18
 302 135 302 135 302 145 c 2,19,-1
 302 269 l 2,20,21
 302 288 302 288 292.5 306 c 128,-1,22
 283 324 283 324 266.5 338 c 128,-1,23
 250 352 250 352 228 360 c 128,-1,24
 206 368 206 368 181 368 c 256,25,26
 156 368 156 368 134 360 c 128,-1,27
 112 352 112 352 95.5 338 c 128,-1,28
 79 324 79 324 69.5 306 c 128,-1,29
 60 288 60 288 60 269 c 1,30,31
 40 268 40 268 30.5 281.5 c 128,-1,32
 21 295 21 295 29 312 c 0,33,34
 38 333 38 333 54 349.5 c 128,-1,35
 70 366 70 366 90.5 378 c 128,-1,36
 111 390 111 390 134.5 396 c 128,-1,37
 158 402 158 402 181 402 c 0,38,39
 208 402 208 402 236 393 c 128,-1,40
 264 384 264 384 287.5 367 c 128,-1,41
 311 350 311 350 325.5 325 c 128,-1,42
 340 300 340 300 340 269 c 2,43,-1
 340 145 l 2,44,45
 340 133 340 133 335 120 c 1,46,47
 356 115 356 115 370.5 98 c 128,-1,48
 385 81 385 81 385 58 c 0,49,50
 385 31 385 31 366 12.5 c 128,-1,51
 347 -6 347 -6 321 -6 c 0,52,53
 296 -6 296 -6 277.5 10.5 c 128,-1,54
 259 27 259 27 257 51 c 1,55,-1
 164 -6 l 1,56,57
 148 -6 148 -6 137 6.5 c 128,-1,58
 126 19 126 19 126 36 c 2,59,-1
 126 123 l 1,0,1
70 185 m 256,60,61
 70 171 70 171 79 162 c 128,-1,62
 88 153 88 153 102 153 c 256,63,64
 116 153 116 153 125 162 c 128,-1,65
 134 171 134 171 134 185 c 256,66,67
 134 199 134 199 125 208 c 128,-1,68
 116 217 116 217 102 217 c 256,69,70
 88 217 88 217 79 208 c 128,-1,71
 70 199 70 199 70 185 c 256,60,61
287 58 m 256,72,73
 287 44 287 44 297 34 c 128,-1,74
 307 24 307 24 321 24 c 256,75,76
 335 24 335 24 345 34 c 128,-1,77
 355 44 355 44 355 58 c 256,78,79
 355 72 355 72 345 82 c 128,-1,80
 335 92 335 92 321 92 c 256,81,82
 307 92 307 92 297 82 c 128,-1,83
 287 72 287 72 287 58 c 256,72,73
EndSplineSet
EndChar
StartChar: uni0E0A
Encoding: 3594 3594 221
Width: 401
Flags: W
Fore
128 110 m 2,0,1
 128 147 128 147 145 177.5 c 128,-1,2
 162 208 162 208 185 237 c 0,3,4
 208 265 208 265 208 290 c 0,5,6
 208 305 208 305 202 319 c 128,-1,7
 196 333 196 333 186 344 c 128,-1,8
 176 355 176 355 162.5 361.5 c 128,-1,9
 149 368 149 368 134 368 c 0,10,11
 108 368 108 368 89 354.5 c 128,-1,12
 70 341 70 341 61 321 c 1,13,14
 51 311 51 311 47 301 c 1,15,-1
 48 298 l 1,16,17
 53 312 53 312 66.5 319.5 c 128,-1,18
 80 327 80 327 93 327 c 0,19,20
 119 327 119 327 137 310.5 c 128,-1,21
 155 294 155 294 155 269 c 0,22,23
 155 243 155 243 137 225 c 128,-1,24
 119 207 119 207 93 207 c 0,25,26
 61 207 61 207 41.5 232 c 128,-1,27
 22 257 22 257 22 290 c 0,28,29
 22 313 22 313 31 333.5 c 128,-1,30
 40 354 40 354 55 369 c 128,-1,31
 70 384 70 384 90.5 393 c 128,-1,32
 111 402 111 402 134 402 c 256,33,34
 157 402 157 402 177.5 393 c 128,-1,35
 198 384 198 384 213 369 c 128,-1,36
 228 354 228 354 237 333.5 c 128,-1,37
 246 313 246 313 246 290 c 0,38,39
 246 270 246 270 235.5 251 c 128,-1,40
 225 232 225 232 210 213 c 0,41,42
 192 190 192 190 179.5 165.5 c 128,-1,43
 167 141 167 141 166 110 c 2,44,-1
 166 91 l 2,45,46
 166 63 166 63 186 45.5 c 128,-1,47
 206 28 206 28 234 28 c 256,48,49
 262 28 262 28 282.5 45 c 128,-1,50
 303 62 303 62 303 91 c 2,51,-1
 303 217 l 2,52,53
 303 254 303 254 295 269 c 128,-1,54
 287 284 287 284 272 289 c 0,55,56
 259 292 259 292 259 303 c 256,57,58
 259 314 259 314 272 317 c 0,59,60
 283 320 283 320 292.5 328.5 c 128,-1,61
 302 337 302 337 308.5 348 c 128,-1,62
 315 359 315 359 319 371.5 c 128,-1,63
 323 384 323 384 323 395 c 0,64,65
 323 401 323 401 323 404.5 c 128,-1,66
 323 408 323 408 321 414 c 1,67,68
 337 414 337 414 348.5 403 c 128,-1,69
 360 392 360 392 358 377 c 0,70,71
 354 354 354 354 340.5 332.5 c 128,-1,72
 327 311 327 311 309 303 c 1,73,74
 326 291 326 291 333.5 269 c 128,-1,75
 341 247 341 247 341 217 c 2,76,-1
 341 91 l 2,77,78
 341 69 341 69 332.5 51 c 128,-1,79
 324 33 324 33 309 20.5 c 128,-1,80
 294 8 294 8 274.5 1 c 128,-1,81
 255 -6 255 -6 234 -6 c 256,82,83
 213 -6 213 -6 194 1 c 128,-1,84
 175 8 175 8 160 20.5 c 128,-1,85
 145 33 145 33 136.5 51 c 128,-1,86
 128 69 128 69 128 91 c 2,87,-1
 128 110 l 2,0,1
61 269 m 256,88,89
 61 255 61 255 70 246 c 128,-1,90
 79 237 79 237 93 237 c 256,91,92
 107 237 107 237 116 246 c 128,-1,93
 125 255 125 255 125 269 c 256,94,95
 125 283 125 283 116 292 c 128,-1,96
 107 301 107 301 93 301 c 256,97,98
 79 301 79 301 70 292 c 128,-1,99
 61 283 61 283 61 269 c 256,88,89
EndSplineSet
EndChar
StartChar: uni0E0B
Encoding: 3595 3595 222
Width: 401
Flags: W
Fore
128 110 m 2,0,1
 128 147 128 147 145 177.5 c 128,-1,2
 162 208 162 208 185 237 c 0,3,4
 208 265 208 265 208 290 c 0,5,6
 208 302 208 302 205.5 314.5 c 128,-1,7
 203 327 203 327 198.5 338.5 c 128,-1,8
 194 350 194 350 188 358 c 128,-1,9
 182 366 182 366 175 369 c 1,10,11
 171 366 171 366 167 362 c 128,-1,12
 159 354 l 256,13,14
 155 350 155 350 149 345 c 0,15,16
 144 340 144 340 136 340 c 128,-1,17
 128 340 128 340 123 345 c 0,18,19
 117 350 117 350 113 354 c 256,20,21
 109 358 109 358 104.5 362 c 128,-1,22
 100 366 100 366 97 369 c 1,23,24
 86 365 86 365 76 352.5 c 128,-1,25
 66 340 66 340 60 320 c 1,26,27
 51 311 51 311 47 301 c 1,28,-1
 48 298 l 1,29,30
 53 312 53 312 66.5 319.5 c 128,-1,31
 80 327 80 327 93 327 c 0,32,33
 119 327 119 327 137 310.5 c 128,-1,34
 155 294 155 294 155 269 c 0,35,36
 155 243 155 243 137 225 c 128,-1,37
 119 207 119 207 93 207 c 0,38,39
 61 207 61 207 41.5 232 c 128,-1,40
 22 257 22 257 22 290 c 0,41,42
 22 310 22 310 27 329.5 c 128,-1,43
 32 349 32 349 43 364 c 0,44,45
 68 402 68 402 104 402 c 0,46,47
 113 402 113 402 120.5 394 c 128,-1,48
 128 386 128 386 136 379 c 1,49,50
 142 384 142 384 150 393 c 128,-1,51
 158 402 158 402 168 402 c 0,52,53
 186 402 186 402 200.5 392 c 128,-1,54
 215 382 215 382 225 366.5 c 128,-1,55
 235 351 235 351 240.5 331 c 128,-1,56
 246 311 246 311 246 290 c 0,57,58
 246 270 246 270 235.5 251 c 128,-1,59
 225 232 225 232 210 213 c 0,60,61
 192 190 192 190 179.5 165.5 c 128,-1,62
 167 141 167 141 166 110 c 2,63,-1
 166 91 l 2,64,65
 166 63 166 63 186 45.5 c 128,-1,66
 206 28 206 28 234 28 c 256,67,68
 262 28 262 28 282.5 45 c 128,-1,69
 303 62 303 62 303 91 c 2,70,-1
 303 217 l 2,71,72
 303 254 303 254 295 269 c 128,-1,73
 287 284 287 284 272 289 c 0,74,75
 259 292 259 292 259 303 c 256,76,77
 259 314 259 314 272 317 c 0,78,79
 283 320 283 320 292.5 328.5 c 128,-1,80
 302 337 302 337 308.5 348 c 128,-1,81
 315 359 315 359 319 371.5 c 128,-1,82
 323 384 323 384 323 395 c 0,83,84
 323 401 323 401 323 404.5 c 128,-1,85
 323 408 323 408 321 414 c 1,86,87
 337 414 337 414 348.5 403 c 128,-1,88
 360 392 360 392 358 377 c 0,89,90
 354 354 354 354 340.5 332.5 c 128,-1,91
 327 311 327 311 309 303 c 1,92,93
 326 291 326 291 333.5 269 c 128,-1,94
 341 247 341 247 341 217 c 2,95,-1
 341 91 l 2,96,97
 341 69 341 69 332.5 51 c 128,-1,98
 324 33 324 33 309 20.5 c 128,-1,99
 294 8 294 8 274.5 1 c 128,-1,100
 255 -6 255 -6 234 -6 c 256,101,102
 213 -6 213 -6 194 1 c 128,-1,103
 175 8 175 8 160 20.5 c 128,-1,104
 145 33 145 33 136.5 51 c 128,-1,105
 128 69 128 69 128 91 c 2,106,-1
 128 110 l 2,0,1
61 269 m 256,107,108
 61 255 61 255 70 246 c 128,-1,109
 79 237 79 237 93 237 c 256,110,111
 107 237 107 237 116 246 c 128,-1,112
 125 255 125 255 125 269 c 256,113,114
 125 283 125 283 116 292 c 128,-1,115
 107 301 107 301 93 301 c 256,116,117
 79 301 79 301 70 292 c 128,-1,118
 61 283 61 283 61 269 c 256,107,108
EndSplineSet
EndChar
StartChar: uni0E0C
Encoding: 3596 3596 223
Width: 603
Flags: W
Fore
116 118 m 1,0,1
 106 112 106 112 100 102 c 1,2,-1
 101 99 l 1,3,4
 113 118 113 118 140 118 c 0,5,6
 166 118 166 118 184 100 c 128,-1,7
 202 82 202 82 202 56 c 256,8,9
 202 30 202 30 184 12 c 128,-1,10
 166 -6 166 -6 140 -6 c 256,11,12
 114 -6 114 -6 96 12 c 128,-1,13
 78 30 78 30 78 56 c 2,14,-1
 78 193 l 1,15,16
 76 195 76 195 70 206 c 128,-1,17
 64 217 64 217 58 229 c 0,18,19
 50 243 50 243 42 260 c 0,20,21
 40 266 40 266 40 269 c 0,22,23
 40 299 40 299 54 323.5 c 128,-1,24
 68 348 68 348 90.5 365.5 c 128,-1,25
 113 383 113 383 141.5 392.5 c 128,-1,26
 170 402 170 402 199 402 c 0,27,28
 227 402 227 402 255.5 393 c 128,-1,29
 284 384 284 384 306.5 367 c 128,-1,30
 329 350 329 350 343.5 325 c 128,-1,31
 358 300 358 300 358 269 c 2,32,-1
 358 96 l 1,33,-1
 505 33 l 1,34,-1
 505 359 l 2,35,36
 505 376 505 376 516 388.5 c 128,-1,37
 527 401 527 401 543 401 c 1,38,-1
 543 36 l 2,39,40
 543 18 543 18 532 6 c 128,-1,41
 521 -6 521 -6 505 -6 c 1,42,-1
 358 56 l 1,43,44
 358 30 358 30 340 12 c 128,-1,45
 322 -6 322 -6 296 -6 c 256,46,47
 270 -6 270 -6 252 12 c 128,-1,48
 234 30 234 30 234 56 c 256,49,50
 234 82 234 82 252 100 c 128,-1,51
 270 118 270 118 296 118 c 0,52,53
 303 118 303 118 309.5 116 c 128,-1,54
 316 114 316 114 322 112 c 1,55,56
 320 115 320 115 320 120 c 2,57,-1
 320 269 l 2,58,59
 320 288 320 288 310.5 306 c 128,-1,60
 301 324 301 324 284.5 338 c 128,-1,61
 268 352 268 352 246 360 c 128,-1,62
 224 368 224 368 199 368 c 0,63,64
 175 368 175 368 153.5 360.5 c 128,-1,65
 132 353 132 353 115.5 340 c 128,-1,66
 99 327 99 327 89 310 c 128,-1,67
 79 293 79 293 78 274 c 1,68,69
 80 271 80 271 85 260 c 128,-1,70
 90 249 90 249 97 237 c 0,71,72
 104 223 104 223 114 207 c 1,73,74
 116 201 116 201 116 198 c 2,75,-1
 116 118 l 1,0,1
264 56 m 256,76,77
 264 42 264 42 273 33 c 128,-1,78
 282 24 282 24 296 24 c 256,79,80
 310 24 310 24 319 33 c 128,-1,81
 328 42 328 42 328 56 c 256,82,83
 328 70 328 70 319 79 c 128,-1,84
 310 88 310 88 296 88 c 256,85,86
 282 88 282 88 273 79 c 128,-1,87
 264 70 264 70 264 56 c 256,76,77
140 88 m 256,88,89
 126 88 126 88 117 79 c 128,-1,90
 108 70 108 70 108 56 c 256,91,92
 108 42 108 42 117 33 c 128,-1,93
 126 24 126 24 140 24 c 256,94,95
 154 24 154 24 163 33 c 128,-1,96
 172 42 172 42 172 56 c 256,97,98
 172 70 172 70 163 79 c 128,-1,99
 154 88 154 88 140 88 c 256,88,89
EndSplineSet
EndChar
StartChar: uni0E0D
Encoding: 3597 3597 224
Width: 583
Flags: W
Fore
140 88 m 256,0,1
 126 88 126 88 117 79 c 128,-1,2
 108 70 108 70 108 56 c 256,3,4
 108 42 108 42 117 33 c 128,-1,5
 126 24 126 24 140 24 c 256,6,7
 154 24 154 24 163 33 c 128,-1,8
 172 42 172 42 172 56 c 256,9,10
 172 70 172 70 163 79 c 128,-1,11
 154 88 154 88 140 88 c 256,0,1
140 118 m 0,12,13
 166 118 166 118 184 100 c 128,-1,14
 202 82 202 82 202 56 c 256,15,16
 202 30 202 30 184 12 c 128,-1,17
 166 -6 166 -6 140 -6 c 256,18,19
 114 -6 114 -6 96 12 c 128,-1,20
 78 30 78 30 78 56 c 2,21,-1
 78 193 l 1,22,23
 76 195 76 195 70 206 c 128,-1,24
 64 217 64 217 58 229 c 0,25,26
 50 243 50 243 42 260 c 0,27,28
 40 266 40 266 40 269 c 0,29,30
 40 297 40 297 51.5 321.5 c 128,-1,31
 63 346 63 346 83 364 c 128,-1,32
 103 382 103 382 130 392 c 128,-1,33
 157 402 157 402 189 402 c 256,34,35
 221 402 221 402 248.5 392 c 128,-1,36
 276 382 276 382 296 364 c 128,-1,37
 316 346 316 346 327.5 321.5 c 128,-1,38
 339 297 339 297 339 269 c 2,39,-1
 339 91 l 2,40,41
 339 65 339 65 359.5 48.5 c 128,-1,42
 380 32 380 32 412 32 c 0,43,44
 443 32 443 32 464 48.5 c 128,-1,45
 485 65 485 65 485 91 c 2,46,-1
 485 359 l 2,47,48
 485 376 485 376 496 388.5 c 128,-1,49
 507 401 507 401 523 401 c 1,50,-1
 523 91 l 2,51,52
 523 69 523 69 513.5 51 c 128,-1,53
 504 33 504 33 488.5 20.5 c 128,-1,54
 473 8 473 8 453 1 c 128,-1,55
 433 -6 433 -6 412 -6 c 0,56,57
 392 -6 392 -6 372 0.5 c 128,-1,58
 352 7 352 7 336 19.5 c 128,-1,59
 320 32 320 32 310.5 50 c 128,-1,60
 301 68 301 68 301 91 c 2,61,-1
 301 269 l 2,62,63
 301 291 301 291 291.5 309 c 128,-1,64
 282 327 282 327 266.5 340 c 128,-1,65
 251 353 251 353 231 360.5 c 128,-1,66
 211 368 211 368 189 368 c 0,67,68
 169 368 169 368 150 361.5 c 128,-1,69
 131 355 131 355 116 343 c 128,-1,70
 101 331 101 331 91 313.5 c 128,-1,71
 81 296 81 296 78 274 c 1,72,73
 80 271 80 271 85 260 c 128,-1,74
 90 249 90 249 97 237 c 0,75,76
 104 223 104 223 114 207 c 1,77,78
 116 201 116 201 116 198 c 2,79,-1
 116 118 l 1,80,81
 106 112 106 112 100 102 c 1,82,-1
 101 99 l 1,83,84
 113 118 113 118 140 118 c 0,12,13
338 -86 m 256,85,86
 338 -98 338 -98 346.5 -106.5 c 128,-1,87
 355 -115 355 -115 367 -115 c 256,88,89
 379 -115 379 -115 387.5 -106.5 c 128,-1,90
 396 -98 396 -98 396 -86 c 256,91,92
 396 -74 396 -74 387.5 -65.5 c 128,-1,93
 379 -57 379 -57 367 -57 c 256,94,95
 355 -57 355 -57 346.5 -65.5 c 128,-1,96
 338 -74 338 -74 338 -86 c 256,85,86
410 -144 m 0,97,98
 429 -144 429 -144 443.5 -133.5 c 128,-1,99
 458 -123 458 -123 466.5 -106.5 c 128,-1,100
 475 -90 475 -90 477.5 -69.5 c 128,-1,101
 480 -49 480 -49 475 -30 c 1,102,103
 493 -30 493 -30 503.5 -40 c 128,-1,104
 514 -50 514 -50 514 -66 c 0,105,106
 514 -87 514 -87 506.5 -107 c 128,-1,107
 499 -127 499 -127 485.5 -143 c 128,-1,108
 472 -159 472 -159 453 -168.5 c 128,-1,109
 434 -178 434 -178 410 -178 c 0,110,111
 391 -178 391 -178 373 -171 c 128,-1,112
 355 -164 355 -164 341 -152 c 128,-1,113
 327 -140 327 -140 318.5 -123 c 128,-1,114
 310 -106 310 -106 310 -86 c 0,115,116
 310 -63 310 -63 326.5 -46 c 128,-1,117
 343 -29 343 -29 367 -29 c 0,118,119
 390 -29 390 -29 407 -46 c 128,-1,120
 424 -63 424 -63 424 -86 c 256,121,122
 424 -109 424 -109 407 -124 c 128,-1,123
 390 -139 390 -139 367 -139 c 1,124,-1
 364 -140 l 1,125,126
 377 -142 377 -142 387 -139 c 1,127,128
 399 -144 399 -144 410 -144 c 0,97,98
EndSplineSet
Substitution: 0 65534 'L026' uni0E0D.alt1
Substitution: 0 65534 'L026' uni0E0D.alt1
EndChar
StartChar: uni0E0E
Encoding: 3598 3598 225
AltUni: 63259
Width: 437
Flags: W
Fore
163 -150 m 0,0,1
 180 -151 180 -151 194.5 -141.5 c 128,-1,2
 209 -132 209 -132 223 -112 c 1,3,4
 206 -101 206 -101 191.5 -97 c 128,-1,5
 177 -93 177 -93 164 -95 c 0,6,7
 154 -97 154 -97 144.5 -102.5 c 128,-1,8
 135 -108 135 -108 135 -123 c 0,9,10
 135 -148 135 -148 163 -150 c 0,0,1
60 56 m 256,11,12
 60 42 60 42 69 33 c 128,-1,13
 78 24 78 24 92 24 c 256,14,15
 106 24 106 24 115 33 c 128,-1,16
 124 42 124 42 124 56 c 256,17,18
 124 70 124 70 115 79 c 128,-1,19
 106 88 106 88 92 88 c 256,20,21
 78 88 78 88 69 79 c 128,-1,22
 60 70 60 70 60 56 c 256,11,12
116 191 m 1,23,24
 113 194 113 194 104 205 c 128,-1,25
 86 227 l 0,26,27
 75 240 75 240 62 257 c 0,28,29
 58 263 58 263 58 269 c 0,30,31
 58 299 58 299 72 324 c 128,-1,32
 86 349 86 349 108.5 366 c 128,-1,33
 131 383 131 383 159.5 392.5 c 128,-1,34
 188 402 188 402 217 402 c 0,35,36
 245 402 245 402 273.5 393 c 128,-1,37
 302 384 302 384 324.5 367 c 128,-1,38
 347 350 347 350 361.5 325 c 128,-1,39
 376 300 376 300 376 269 c 2,40,-1
 376 -75 l 2,41,42
 376 -83 376 -83 374 -90 c 128,-1,43
 372 -97 372 -97 367 -101 c 2,44,-1
 293 -176 l 2,45,46
 287 -182 287 -182 279 -180 c 256,47,48
 271 -178 271 -178 268 -171 c 0,49,50
 260 -149 260 -149 246 -132 c 1,51,52
 206 -183 206 -183 157 -180 c 0,53,54
 131 -178 131 -178 115.5 -162.5 c 128,-1,55
 100 -147 100 -147 100 -123 c 0,56,57
 100 -100 100 -100 115 -84.5 c 128,-1,58
 130 -69 130 -69 156 -65 c 0,59,60
 193 -60 193 -60 232 -82 c 2,61,-1
 239 -87 l 1,62,63
 246 -75 246 -75 251 -62.5 c 128,-1,64
 256 -50 256 -50 261 -37 c 1,65,66
 274 -42 274 -42 278.5 -53.5 c 128,-1,67
 283 -65 283 -65 278 -77 c 0,68,69
 274 -85 274 -85 270.5 -92 c 128,-1,70
 267 -99 267 -99 263 -106 c 1,71,72
 269 -113 269 -113 276.5 -122 c 128,-1,73
 284 -131 284 -131 289 -142 c 1,74,-1
 338 -93 l 1,75,-1
 338 269 l 2,76,77
 338 288 338 288 328.5 306 c 128,-1,78
 319 324 319 324 302.5 338 c 128,-1,79
 286 352 286 352 264 360 c 128,-1,80
 242 368 242 368 217 368 c 0,81,82
 193 368 193 368 171.5 360.5 c 128,-1,83
 150 353 150 353 133.5 340 c 128,-1,84
 117 327 117 327 107 310 c 128,-1,85
 97 293 97 293 96 274 c 1,86,87
 98 270 98 270 107 259.5 c 128,-1,88
 116 249 116 249 125 238 c 0,89,90
 136 225 136 225 149 209 c 0,91,92
 154 204 154 204 154 197 c 2,93,-1
 154 56 l 2,94,95
 154 30 154 30 136 12 c 128,-1,96
 118 -6 118 -6 92 -6 c 256,97,98
 66 -6 66 -6 48 12 c 128,-1,99
 30 30 30 30 30 56 c 256,100,101
 30 82 30 82 48 100 c 128,-1,102
 66 118 66 118 92 118 c 0,103,104
 119 118 119 118 131 99 c 1,105,-1
 132 102 l 1,106,107
 126 112 126 112 116 118 c 1,108,-1
 116 191 l 1,23,24
EndSplineSet
Substitution: 0 65534 'L026' uni0E0E.alt1
Substitution: 0 65534 'L026' uni0E0E.alt1
EndChar
StartChar: uni0E0F
Encoding: 3599 3599 226
AltUni: 63260
Width: 436
Flags: W
Fore
92 118 m 0,0,1
 119 118 119 118 131 99 c 1,2,-1
 132 102 l 1,3,4
 126 112 126 112 116 118 c 1,5,-1
 116 191 l 1,6,7
 113 194 113 194 104 205 c 128,-1,8
 86 227 l 0,9,10
 75 240 75 240 62 257 c 0,11,12
 58 263 58 263 58 269 c 0,13,14
 58 299 58 299 72 324 c 128,-1,15
 86 349 86 349 108.5 366 c 128,-1,16
 131 383 131 383 159.5 392.5 c 128,-1,17
 188 402 188 402 217 402 c 0,18,19
 245 402 245 402 273.5 393 c 128,-1,20
 302 384 302 384 324.5 367 c 128,-1,21
 347 350 347 350 361.5 325 c 128,-1,22
 376 300 376 300 376 269 c 2,23,-1
 376 -108 l 2,24,25
 376 -121 376 -121 367 -130 c 2,26,-1
 321 -176 l 2,27,28
 316 -181 316 -181 310 -181 c 128,-1,29
 304 -181 304 -181 300 -176 c 2,30,-1
 264 -140 l 1,31,-1
 228 -176 l 2,32,33
 222 -182 222 -182 214 -180 c 256,34,35
 206 -178 206 -178 203 -171 c 0,36,37
 194 -146 194 -146 181 -132 c 1,38,39
 141 -183 141 -183 92 -180 c 0,40,41
 66 -178 66 -178 50.5 -162.5 c 128,-1,42
 35 -147 35 -147 35 -123 c 0,43,44
 35 -100 35 -100 50 -84.5 c 128,-1,45
 65 -69 65 -69 91 -65 c 0,46,47
 128 -60 128 -60 167 -82 c 2,48,-1
 174 -87 l 1,49,50
 179 -79 179 -79 183 -70 c 128,-1,51
 187 -61 187 -61 191 -51 c 0,52,53
 192 -49 192 -49 193 -44.5 c 128,-1,54
 194 -40 194 -40 196 -37 c 1,55,56
 209 -42 209 -42 213.5 -53.5 c 128,-1,57
 218 -65 218 -65 213 -77 c 0,58,59
 209 -85 209 -85 205.5 -92 c 128,-1,60
 202 -99 202 -99 198 -106 c 1,61,62
 204 -113 204 -113 212.5 -123 c 128,-1,63
 221 -133 221 -133 226 -144 c 1,64,-1
 257 -113 l 2,65,66
 267 -103 267 -103 278 -113 c 2,67,-1
 312 -146 l 1,68,-1
 338 -121 l 1,69,-1
 338 269 l 2,70,71
 338 288 338 288 328.5 306 c 128,-1,72
 319 324 319 324 302.5 338 c 128,-1,73
 286 352 286 352 264 360 c 128,-1,74
 242 368 242 368 217 368 c 0,75,76
 193 368 193 368 171.5 360.5 c 128,-1,77
 150 353 150 353 133.5 340 c 128,-1,78
 117 327 117 327 107 310 c 128,-1,79
 97 293 97 293 96 274 c 1,80,81
 98 270 98 270 107 259.5 c 128,-1,82
 116 249 116 249 125 238 c 0,83,84
 136 225 136 225 149 209 c 0,85,86
 154 204 154 204 154 197 c 2,87,-1
 154 56 l 2,88,89
 154 30 154 30 136 12 c 128,-1,90
 118 -6 118 -6 92 -6 c 256,91,92
 66 -6 66 -6 48 12 c 128,-1,93
 30 30 30 30 30 56 c 256,94,95
 30 82 30 82 48 100 c 128,-1,96
 66 118 66 118 92 118 c 0,0,1
98 -150 m 0,97,98
 115 -151 115 -151 129.5 -141.5 c 128,-1,99
 144 -132 144 -132 158 -112 c 1,100,101
 141 -101 141 -101 126.5 -97 c 128,-1,102
 112 -93 112 -93 99 -95 c 0,103,104
 89 -97 89 -97 79.5 -102.5 c 128,-1,105
 70 -108 70 -108 70 -123 c 0,106,107
 70 -148 70 -148 98 -150 c 0,97,98
60 56 m 256,108,109
 60 42 60 42 69 33 c 128,-1,110
 78 24 78 24 92 24 c 256,111,112
 106 24 106 24 115 33 c 128,-1,113
 124 42 124 42 124 56 c 256,114,115
 124 70 124 70 115 79 c 128,-1,116
 106 88 106 88 92 88 c 256,117,118
 78 88 78 88 69 79 c 128,-1,119
 60 70 60 70 60 56 c 256,108,109
EndSplineSet
Substitution: 0 65534 'L026' uni0E0F.alt1
Substitution: 0 65534 'L026' uni0E0F.alt1
EndChar
StartChar: uni0E10
Encoding: 3600 3600 227
Width: 385
Flags: W
Fore
281 -129 m 1,0,1
 289 -125 289 -125 294 -118 c 1,2,-1
 293 -115 l 1,3,4
 287 -123 287 -123 278.5 -126 c 128,-1,5
 270 -129 270 -129 258 -129 c 0,6,7
 237 -129 237 -129 221 -114 c 128,-1,8
 205 -99 205 -99 205 -76 c 0,9,10
 205 -54 205 -54 220.5 -38.5 c 128,-1,11
 236 -23 236 -23 258 -23 c 256,12,13
 280 -23 280 -23 295.5 -38.5 c 128,-1,14
 311 -54 311 -54 311 -76 c 2,15,-1
 311 -138 l 2,16,17
 311 -151 311 -151 305 -157 c 0,18,19
 303 -159 303 -159 297 -165 c 128,-1,20
 291 -171 291 -171 285 -178 c 0,21,22
 277 -186 277 -186 269 -196 c 0,23,24
 265 -200 265 -200 260 -200 c 256,25,26
 255 -200 255 -200 251 -196 c 2,27,-1
 224 -167 l 1,28,-1
 197 -196 l 2,29,30
 193 -200 193 -200 187 -200 c 0,31,32
 179 -200 179 -200 176 -192 c 0,33,34
 168 -172 168 -172 159 -160 c 1,35,36
 150 -177 150 -177 131 -188.5 c 128,-1,37
 112 -200 112 -200 92 -200 c 256,38,39
 72 -200 72 -200 58.5 -186 c 128,-1,40
 45 -172 45 -172 45 -152 c 0,41,42
 45 -130 45 -130 59.5 -116.5 c 128,-1,43
 74 -103 74 -103 95 -103 c 0,44,45
 111 -103 111 -103 126 -107 c 128,-1,46
 141 -111 141 -111 154 -121 c 1,47,48
 158 -114 158 -114 162 -103.5 c 128,-1,49
 166 -93 166 -93 171 -76 c 1,50,51
 193 -85 193 -85 186 -110 c 0,52,53
 182 -124 182 -124 173 -138 c 1,54,55
 178 -143 178 -143 184.5 -152 c 128,-1,56
 191 -161 191 -161 196 -169 c 1,57,-1
 219 -144 l 2,58,59
 223 -140 223 -140 228 -140 c 256,60,61
 233 -140 233 -140 237 -144 c 2,62,-1
 262 -171 l 1,63,-1
 281 -150 l 1,64,-1
 281 -129 l 1,0,1
93 -175 m 0,65,66
 119 -175 119 -175 141 -143 c 1,67,68
 128 -133 128 -133 117 -130.5 c 128,-1,69
 106 -128 106 -128 95 -128 c 0,70,71
 87 -128 87 -128 78.5 -133.5 c 128,-1,72
 70 -139 70 -139 70 -152 c 0,73,74
 70 -162 70 -162 76.5 -168.5 c 128,-1,75
 83 -175 83 -175 93 -175 c 0,65,66
233 -76 m 256,76,77
 233 -87 233 -87 240 -94 c 128,-1,78
 247 -101 247 -101 258 -101 c 256,79,80
 269 -101 269 -101 276 -94 c 128,-1,81
 283 -87 283 -87 283 -76 c 256,82,83
 283 -65 283 -65 276 -58 c 128,-1,84
 269 -51 269 -51 258 -51 c 256,85,86
 247 -51 247 -51 240 -58 c 128,-1,87
 233 -65 233 -65 233 -76 c 256,76,77
134 141 m 256,88,89
 134 127 134 127 143 118 c 128,-1,90
 152 109 152 109 166 109 c 256,91,92
 180 109 180 109 189 118 c 128,-1,93
 198 127 198 127 198 141 c 256,94,95
 198 155 198 155 189 164 c 128,-1,96
 180 173 180 173 166 173 c 256,97,98
 152 173 152 173 143 164 c 128,-1,99
 134 155 134 155 134 141 c 256,88,89
325 396 m 1,100,101
 340 389 340 389 344 376 c 128,-1,102
 348 363 348 363 341 349 c 2,103,-1
 316 299 l 2,104,105
 309 286 309 286 299 287 c 128,-1,106
 289 288 289 288 284 299 c 0,107,108
 272 329 272 329 243 348.5 c 128,-1,109
 214 368 214 368 180 368 c 0,110,111
 142 368 142 368 115.5 348.5 c 128,-1,112
 89 329 89 329 81 297 c 1,113,-1
 285 248 l 2,114,115
 298 245 298 245 306.5 233.5 c 128,-1,116
 315 222 315 222 315 207 c 2,117,-1
 315 36 l 2,118,119
 315 18 315 18 304 6 c 128,-1,120
 293 -6 293 -6 277 -6 c 1,121,-1
 218 104 l 1,122,123
 220 108 220 108 221 111.5 c 128,-1,124
 222 115 222 115 223 120 c 1,125,-1
 222 123 l 1,126,127
 217 100 217 100 201 89.5 c 128,-1,128
 185 79 185 79 166 79 c 0,129,130
 140 79 140 79 122 97 c 128,-1,131
 104 115 104 115 104 141 c 256,132,133
 104 167 104 167 122 185 c 128,-1,134
 140 203 140 203 166 203 c 0,135,136
 183 203 183 203 198 194 c 128,-1,137
 213 185 213 185 221 170 c 0,138,139
 223 165 223 165 234 145.5 c 128,-1,140
 245 126 245 126 257 103 c 0,141,142
 271 77 271 77 287 45 c 1,143,-1
 288 48 l 1,144,-1
 277 70 l 1,145,-1
 277 214 l 1,146,-1
 55 269 l 2,147,148
 49 271 49 271 44 276 c 128,-1,149
 39 281 39 281 40 289 c 0,150,151
 43 313 43 313 55 334 c 128,-1,152
 67 355 67 355 85.5 370 c 128,-1,153
 104 385 104 385 128.5 393.5 c 128,-1,154
 153 402 153 402 180 402 c 0,155,156
 201 402 201 402 221 396 c 128,-1,157
 241 390 241 390 258 380 c 128,-1,158
 275 370 275 370 288 356 c 128,-1,159
 301 342 301 342 308 326 c 1,160,-1
 309 329 l 1,161,162
 306 338 306 338 299 348 c 1,163,-1
 325 396 l 1,100,101
EndSplineSet
Substitution: 0 65534 'L026' uni0E10.alt1
Substitution: 0 65534 'L026' uni0E10.alt1
EndChar
StartChar: uni0E11
Encoding: 3601 3601 228
Width: 487
Flags: W
Fore
60 320 m 1,0,1
 51 311 51 311 47 301 c 1,2,-1
 48 298 l 1,3,4
 53 312 53 312 66.5 319.5 c 128,-1,5
 80 327 80 327 93 327 c 0,6,7
 119 327 119 327 137 310.5 c 128,-1,8
 155 294 155 294 155 269 c 0,9,10
 155 243 155 243 137 225 c 128,-1,11
 119 207 119 207 93 207 c 0,12,13
 61 207 61 207 41.5 232 c 128,-1,14
 22 257 22 257 22 290 c 0,15,16
 22 310 22 310 27 329.5 c 128,-1,17
 32 349 32 349 43 364 c 0,18,19
 68 402 68 402 104 402 c 0,20,21
 113 402 113 402 120.5 394 c 128,-1,22
 128 386 128 386 136 379 c 1,23,24
 142 384 142 384 150 393 c 128,-1,25
 158 402 158 402 168 402 c 0,26,27
 186 402 186 402 200.5 392 c 128,-1,28
 215 382 215 382 225 366.5 c 128,-1,29
 235 351 235 351 240.5 331 c 128,-1,30
 246 311 246 311 246 290 c 0,31,32
 246 270 246 270 235.5 251 c 128,-1,33
 225 232 225 232 210 213 c 0,34,35
 191 190 191 190 183.5 166 c 128,-1,36
 176 142 176 142 176 110 c 2,37,-1
 176 74 l 1,38,-1
 163 48 l 1,39,-1
 164 45 l 1,40,-1
 344 392 l 2,41,42
 348 402 348 402 361 402 c 0,43,44
 391 402 391 402 409 384 c 128,-1,45
 427 366 427 366 427 336 c 2,46,-1
 427 36 l 2,47,48
 427 18 427 18 416 6 c 128,-1,49
 405 -6 405 -6 389 -6 c 1,50,-1
 389 336 l 2,51,52
 389 361 389 361 367 364 c 1,53,-1
 176 -6 l 1,54,55
 160 -6 160 -6 149 6 c 128,-1,56
 138 18 138 18 138 36 c 2,57,-1
 138 110 l 2,58,59
 138 147 138 147 149.5 177 c 128,-1,60
 161 207 161 207 185 237 c 0,61,62
 208 265 208 265 208 290 c 0,63,64
 208 302 208 302 205.5 314.5 c 128,-1,65
 203 327 203 327 198.5 338.5 c 128,-1,66
 194 350 194 350 188 358 c 128,-1,67
 182 366 182 366 175 369 c 1,68,69
 171 366 171 366 167 362 c 128,-1,70
 159 354 l 256,71,72
 155 350 155 350 149 345 c 0,73,74
 144 340 144 340 136 340 c 128,-1,75
 128 340 128 340 123 345 c 0,76,77
 117 350 117 350 113 354 c 256,78,79
 109 358 109 358 104.5 362 c 128,-1,80
 100 366 100 366 97 369 c 1,81,82
 86 365 86 365 76 352.5 c 128,-1,83
 66 340 66 340 60 320 c 1,0,1
61 269 m 256,84,85
 61 255 61 255 70 246 c 128,-1,86
 79 237 79 237 93 237 c 256,87,88
 107 237 107 237 116 246 c 128,-1,89
 125 255 125 255 125 269 c 256,90,91
 125 283 125 283 116 292 c 128,-1,92
 107 301 107 301 93 301 c 256,93,94
 79 301 79 301 70 292 c 128,-1,95
 61 283 61 283 61 269 c 256,84,85
EndSplineSet
EndChar
StartChar: uni0E12
Encoding: 3602 3602 229
Width: 622
Flags: W
Fore
187 227 m 256,0,1
 187 213 187 213 196 204 c 128,-1,2
 205 195 205 195 219 195 c 256,3,4
 233 195 233 195 242 204 c 128,-1,5
 251 213 251 213 251 227 c 256,6,7
 251 241 251 241 242 250 c 128,-1,8
 233 259 233 259 219 259 c 256,9,10
 205 259 205 259 196 250 c 128,-1,11
 187 241 187 241 187 227 c 256,0,1
280 58 m 256,12,13
 280 44 280 44 290 34 c 128,-1,14
 300 24 300 24 314 24 c 256,15,16
 328 24 328 24 338 34 c 128,-1,17
 348 44 348 44 348 58 c 256,18,19
 348 72 348 72 338 82 c 128,-1,20
 328 92 328 92 314 92 c 256,21,22
 300 92 300 92 290 82 c 128,-1,23
 280 72 280 72 280 58 c 256,12,13
219 166 m 1,24,25
 193 166 193 166 175 183.5 c 128,-1,26
 157 201 157 201 157 227 c 256,27,28
 157 253 157 253 175 271 c 128,-1,29
 193 289 193 289 219 289 c 0,30,31
 244 289 244 289 262.5 271 c 128,-1,32
 281 253 281 253 281 227 c 0,33,34
 281 205 281 205 266 187 c 2,35,-1
 98 -6 l 1,36,37
 82 -6 82 -6 71 6 c 128,-1,38
 60 18 60 18 60 36 c 2,39,-1
 60 288 l 2,40,41
 60 315 60 315 70 336.5 c 128,-1,42
 80 358 80 358 95 372.5 c 128,-1,43
 110 387 110 387 128 394.5 c 128,-1,44
 146 402 146 402 161 402 c 0,45,46
 168 402 168 402 173 397 c 0,47,48
 182 389 182 389 191 383 c 0,49,50
 199 377 199 377 206.5 371.5 c 128,-1,51
 214 366 214 366 219 361 c 1,52,53
 224 366 224 366 232 371.5 c 128,-1,54
 240 377 240 377 248 383 c 0,55,56
 257 389 257 389 265 397 c 0,57,58
 270 402 270 402 277 402 c 0,59,60
 292 402 292 402 310 394.5 c 128,-1,61
 328 387 328 387 343 372.5 c 128,-1,62
 358 358 358 358 368 336.5 c 128,-1,63
 378 315 378 315 378 288 c 2,64,-1
 378 99 l 1,65,-1
 524 32 l 1,66,-1
 524 359 l 2,67,68
 524 376 524 376 535 388.5 c 128,-1,69
 546 401 546 401 562 401 c 1,70,-1
 562 36 l 2,71,72
 562 18 562 18 551 6 c 128,-1,73
 540 -6 540 -6 524 -6 c 1,74,-1
 378 60 l 1,75,76
 378 31 378 31 359.5 12.5 c 128,-1,77
 341 -6 341 -6 314 -6 c 0,78,79
 288 -6 288 -6 269 12.5 c 128,-1,80
 250 31 250 31 250 58 c 0,81,82
 250 84 250 84 269 103 c 128,-1,83
 288 122 288 122 314 122 c 0,84,85
 328 122 328 122 340 116 c 1,86,-1
 340 288 l 2,87,88
 340 305 340 305 334.5 319 c 128,-1,89
 329 333 329 333 320.5 343 c 128,-1,90
 312 353 312 353 302 359 c 128,-1,91
 292 365 292 365 283 367 c 1,92,93
 279 364 279 364 270.5 357 c 128,-1,94
 262 350 262 350 253 343 c 0,95,96
 242 335 242 335 231 326 c 0,97,98
 219 316 219 316 207 326 c 0,99,100
 196 335 196 335 185 343 c 0,101,102
 176 350 176 350 167.5 357 c 128,-1,103
 159 364 159 364 155 367 c 1,104,105
 146 365 146 365 136 359 c 128,-1,106
 126 353 126 353 117.5 343 c 128,-1,107
 109 333 109 333 103.5 319 c 128,-1,108
 98 305 98 305 98 288 c 2,109,-1
 98 52 l 1,110,-1
 84 35 l 1,111,-1
 85 32 l 1,112,-1
 201 165 l 1,113,114
 206 164 206 164 210 163.5 c 128,-1,115
 214 163 214 163 220 163 c 1,116,-1
 219 166 l 1,24,25
EndSplineSet
EndChar
StartChar: uni0E13
Encoding: 3603 3603 230
Width: 600
Flags: W
Fore
108 56 m 256,0,1
 108 42 108 42 117 33 c 128,-1,2
 126 24 126 24 140 24 c 256,3,4
 154 24 154 24 163 33 c 128,-1,5
 172 42 172 42 172 56 c 256,6,7
 172 70 172 70 163 79 c 128,-1,8
 154 88 154 88 140 88 c 256,9,10
 126 88 126 88 117 79 c 128,-1,11
 108 70 108 70 108 56 c 256,0,1
472 58 m 256,12,13
 472 44 472 44 482 34 c 128,-1,14
 492 24 492 24 506 24 c 256,15,16
 520 24 520 24 530 34 c 128,-1,17
 540 44 540 44 540 58 c 256,18,19
 540 72 540 72 530 82 c 128,-1,20
 520 92 520 92 506 92 c 256,21,22
 492 92 492 92 482 82 c 128,-1,23
 472 72 472 72 472 58 c 256,12,13
140 118 m 0,24,25
 166 118 166 118 184 100 c 128,-1,26
 202 82 202 82 202 56 c 256,27,28
 202 30 202 30 184 12 c 128,-1,29
 166 -6 166 -6 140 -6 c 256,30,31
 114 -6 114 -6 96 12 c 128,-1,32
 78 30 78 30 78 56 c 2,33,-1
 78 193 l 1,34,35
 76 195 76 195 70 206 c 128,-1,36
 64 217 64 217 58 229 c 0,37,38
 50 243 50 243 42 260 c 0,39,40
 40 266 40 266 40 269 c 0,41,42
 40 297 40 297 51.5 321.5 c 128,-1,43
 63 346 63 346 83 364 c 128,-1,44
 103 382 103 382 130.5 392 c 128,-1,45
 158 402 158 402 190 402 c 256,46,47
 222 402 222 402 249.5 392 c 128,-1,48
 277 382 277 382 297 364 c 128,-1,49
 317 346 317 346 328.5 321.5 c 128,-1,50
 340 297 340 297 340 269 c 2,51,-1
 340 35 l 1,52,-1
 460 105 l 2,53,54
 477 116 477 116 482 126 c 128,-1,55
 487 136 487 136 487 146 c 2,56,-1
 487 359 l 2,57,58
 487 376 487 376 498 388.5 c 128,-1,59
 509 401 509 401 525 401 c 1,60,-1
 525 146 l 2,61,62
 525 139 525 139 524 132 c 128,-1,63
 523 125 523 125 521 120 c 1,64,65
 542 115 542 115 556 98 c 128,-1,66
 570 81 570 81 570 58 c 0,67,68
 570 31 570 31 551 12.5 c 128,-1,69
 532 -6 532 -6 506 -6 c 256,70,71
 480 -6 480 -6 462 11.5 c 128,-1,72
 444 29 444 29 442 53 c 1,73,-1
 340 -6 l 1,74,75
 324 -6 324 -6 313 6 c 128,-1,76
 302 18 302 18 302 36 c 2,77,-1
 302 269 l 2,78,79
 302 289 302 289 294.5 306.5 c 128,-1,80
 287 324 287 324 272 337 c 0,81,82
 257 351 257 351 235.5 359.5 c 128,-1,83
 214 368 214 368 190 368 c 256,84,85
 166 368 166 368 145 359.5 c 128,-1,86
 124 351 124 351 108 337 c 0,87,88
 94 325 94 325 86.5 308 c 128,-1,89
 79 291 79 291 78 274 c 1,90,91
 80 271 80 271 85 260 c 128,-1,92
 90 249 90 249 97 237 c 0,93,94
 104 223 104 223 114 207 c 1,95,96
 116 201 116 201 116 198 c 2,97,-1
 116 118 l 1,98,99
 106 112 106 112 100 102 c 1,100,-1
 101 99 l 1,101,102
 113 118 113 118 140 118 c 0,24,25
EndSplineSet
EndChar
StartChar: uni0E14
Encoding: 3604 3604 231
Width: 438
Flags: W
Fore
187 237 m 256,0,1
 187 223 187 223 196 214 c 128,-1,2
 205 205 205 205 219 205 c 256,3,4
 233 205 233 205 242 214 c 128,-1,5
 251 223 251 223 251 237 c 256,6,7
 251 251 251 251 242 260 c 128,-1,8
 233 269 233 269 219 269 c 256,9,10
 205 269 205 269 196 260 c 128,-1,11
 187 251 187 251 187 237 c 256,0,1
98 54 m 1,12,-1
 84 36 l 1,13,-1
 85 33 l 1,14,-1
 202 175 l 1,15,16
 207 174 207 174 211 173.5 c 128,-1,17
 215 173 215 173 221 173 c 1,18,-1
 220 176 l 1,19,20
 194 176 194 176 175.5 193.5 c 128,-1,21
 157 211 157 211 157 237 c 256,22,23
 157 263 157 263 175 281 c 128,-1,24
 193 299 193 299 219 299 c 256,25,26
 245 299 245 299 263 281 c 128,-1,27
 281 263 281 263 281 237 c 0,28,29
 281 215 281 215 267 198 c 2,30,-1
 98 -6 l 1,31,32
 82 -6 82 -6 71 6 c 128,-1,33
 60 18 60 18 60 36 c 2,34,-1
 60 269 l 2,35,36
 60 325 60 325 108 364 c 0,37,38
 155 402 155 402 219 402 c 0,39,40
 250 402 250 402 278.5 392 c 128,-1,41
 307 382 307 382 330 364 c 0,42,43
 378 325 378 325 378 269 c 2,44,-1
 378 36 l 2,45,46
 378 18 378 18 367 6 c 128,-1,47
 356 -6 356 -6 340 -6 c 1,48,-1
 340 269 l 2,49,50
 340 288 340 288 330.5 306 c 128,-1,51
 321 324 321 324 304.5 338 c 128,-1,52
 288 352 288 352 266 360 c 128,-1,53
 244 368 244 368 219 368 c 256,54,55
 194 368 194 368 172 360 c 128,-1,56
 150 352 150 352 133.5 338 c 128,-1,57
 117 324 117 324 107.5 306 c 128,-1,58
 98 288 98 288 98 269 c 2,59,-1
 98 54 l 1,12,-1
EndSplineSet
EndChar
StartChar: uni0E15
Encoding: 3605 3605 232
Width: 438
Flags: W
Fore
187 227 m 256,0,1
 187 213 187 213 196 204 c 128,-1,2
 205 195 205 195 219 195 c 256,3,4
 233 195 233 195 242 204 c 128,-1,5
 251 213 251 213 251 227 c 256,6,7
 251 241 251 241 242 250 c 128,-1,8
 233 259 233 259 219 259 c 256,9,10
 205 259 205 259 196 250 c 128,-1,11
 187 241 187 241 187 227 c 256,0,1
98 52 m 1,12,-1
 84 35 l 1,13,-1
 85 32 l 1,14,-1
 201 165 l 1,15,16
 206 164 206 164 210 163.5 c 128,-1,17
 214 163 214 163 220 163 c 1,18,-1
 219 166 l 1,19,20
 193 166 193 166 175 183.5 c 128,-1,21
 157 201 157 201 157 227 c 256,22,23
 157 253 157 253 175 271 c 128,-1,24
 193 289 193 289 219 289 c 0,25,26
 244 289 244 289 262.5 271 c 128,-1,27
 281 253 281 253 281 227 c 0,28,29
 281 205 281 205 266 187 c 2,30,-1
 98 -6 l 1,31,32
 82 -6 82 -6 71 6 c 128,-1,33
 60 18 60 18 60 36 c 2,34,-1
 60 288 l 2,35,36
 60 315 60 315 70 336.5 c 128,-1,37
 80 358 80 358 95 372.5 c 128,-1,38
 110 387 110 387 128 394.5 c 128,-1,39
 146 402 146 402 161 402 c 0,40,41
 168 402 168 402 173 397 c 0,42,43
 182 389 182 389 191 383 c 0,44,45
 199 377 199 377 206.5 371.5 c 128,-1,46
 214 366 214 366 219 361 c 1,47,48
 224 366 224 366 232 371.5 c 128,-1,49
 240 377 240 377 248 383 c 0,50,51
 257 389 257 389 265 397 c 0,52,53
 270 402 270 402 277 402 c 0,54,55
 292 402 292 402 310 394.5 c 128,-1,56
 328 387 328 387 343 372.5 c 128,-1,57
 358 358 358 358 368 336.5 c 128,-1,58
 378 315 378 315 378 288 c 2,59,-1
 378 36 l 2,60,61
 378 18 378 18 367 6 c 128,-1,62
 356 -6 356 -6 340 -6 c 1,63,-1
 340 288 l 2,64,65
 340 305 340 305 334.5 319 c 128,-1,66
 329 333 329 333 320.5 343 c 128,-1,67
 312 353 312 353 302 359 c 128,-1,68
 292 365 292 365 283 367 c 1,69,70
 279 364 279 364 270.5 357 c 128,-1,71
 262 350 262 350 253 343 c 0,72,73
 242 335 242 335 231 326 c 0,74,75
 219 316 219 316 207 326 c 0,76,77
 196 335 196 335 185 343 c 0,78,79
 176 350 176 350 167.5 357 c 128,-1,80
 159 364 159 364 155 367 c 1,81,82
 146 365 146 365 136 359 c 128,-1,83
 126 353 126 353 117.5 343 c 128,-1,84
 109 333 109 333 103.5 319 c 128,-1,85
 98 305 98 305 98 288 c 2,86,-1
 98 52 l 1,12,-1
EndSplineSet
EndChar
StartChar: uni0E16
Encoding: 3606 3606 233
Width: 418
Flags: W
Fore
108 56 m 256,0,1
 108 42 108 42 117 33 c 128,-1,2
 126 24 126 24 140 24 c 256,3,4
 154 24 154 24 163 33 c 128,-1,5
 172 42 172 42 172 56 c 256,6,7
 172 70 172 70 163 79 c 128,-1,8
 154 88 154 88 140 88 c 256,9,10
 126 88 126 88 117 79 c 128,-1,11
 108 70 108 70 108 56 c 256,0,1
140 118 m 0,12,13
 166 118 166 118 184 100 c 128,-1,14
 202 82 202 82 202 56 c 256,15,16
 202 30 202 30 184 12 c 128,-1,17
 166 -6 166 -6 140 -6 c 256,18,19
 114 -6 114 -6 96 12 c 128,-1,20
 78 30 78 30 78 56 c 2,21,-1
 78 193 l 1,22,23
 76 195 76 195 70 206 c 128,-1,24
 64 217 64 217 58 229 c 0,25,26
 50 243 50 243 42 260 c 0,27,28
 40 266 40 266 40 269 c 0,29,30
 40 299 40 299 54 323.5 c 128,-1,31
 68 348 68 348 90.5 365.5 c 128,-1,32
 113 383 113 383 141.5 392.5 c 128,-1,33
 170 402 170 402 199 402 c 0,34,35
 227 402 227 402 255.5 393 c 128,-1,36
 284 384 284 384 306.5 367 c 128,-1,37
 329 350 329 350 343.5 325 c 128,-1,38
 358 300 358 300 358 269 c 2,39,-1
 358 36 l 2,40,41
 358 18 358 18 347 6 c 128,-1,42
 336 -6 336 -6 320 -6 c 1,43,-1
 320 269 l 2,44,45
 320 288 320 288 310.5 306 c 128,-1,46
 301 324 301 324 284.5 338 c 128,-1,47
 268 352 268 352 246 360 c 128,-1,48
 224 368 224 368 199 368 c 0,49,50
 175 368 175 368 153.5 360.5 c 128,-1,51
 132 353 132 353 115.5 340 c 128,-1,52
 99 327 99 327 89 310 c 128,-1,53
 79 293 79 293 78 274 c 1,54,55
 80 271 80 271 85 260 c 128,-1,56
 90 249 90 249 97 237 c 0,57,58
 104 223 104 223 114 207 c 1,59,60
 116 201 116 201 116 198 c 2,61,-1
 116 118 l 1,62,63
 106 112 106 112 100 102 c 1,64,-1
 101 99 l 1,65,66
 113 118 113 118 140 118 c 0,12,13
EndSplineSet
EndChar
StartChar: uni0E17
Encoding: 3607 3607 234
Width: 465
Flags: W
Fore
116 278 m 1,0,1
 126 284 126 284 132 294 c 1,2,-1
 131 297 l 1,3,4
 119 278 119 278 92 278 c 0,5,6
 66 278 66 278 48 296 c 128,-1,7
 30 314 30 314 30 340 c 256,8,9
 30 366 30 366 48 384 c 128,-1,10
 66 402 66 402 92 402 c 256,11,12
 118 402 118 402 136 384 c 128,-1,13
 154 366 154 366 154 340 c 2,14,-1
 154 98 l 1,15,-1
 142 64 l 1,16,-1
 143 61 l 1,17,18
 179 152 179 152 207 224 c 0,19,20
 219 255 219 255 230.5 284 c 128,-1,21
 242 313 242 313 251.5 336.5 c 128,-1,22
 261 360 261 360 267 374.5 c 128,-1,23
 273 389 273 389 273 390 c 1,24,25
 277 402 277 402 291 402 c 0,26,27
 345 402 345 402 375 372 c 0,28,29
 405 343 405 343 405 288 c 2,30,-1
 405 36 l 2,31,32
 405 18 405 18 394 6 c 128,-1,33
 383 -6 383 -6 367 -6 c 1,34,-1
 367 288 l 2,35,36
 367 360 367 360 300 364 c 1,37,-1
 154 -6 l 1,38,39
 138 -6 138 -6 127 6 c 128,-1,40
 116 18 116 18 116 36 c 2,41,-1
 116 278 l 1,0,1
60 340 m 256,42,43
 60 326 60 326 69 317 c 128,-1,44
 78 308 78 308 92 308 c 256,45,46
 106 308 106 308 115 317 c 128,-1,47
 124 326 124 326 124 340 c 256,48,49
 124 354 124 354 115 363 c 128,-1,50
 106 372 106 372 92 372 c 256,51,52
 78 372 78 372 69 363 c 128,-1,53
 60 354 60 354 60 340 c 256,42,43
EndSplineSet
EndChar
StartChar: uni0E18
Encoding: 3608 3608 235
Width: 385
Flags: W
Fore
325 126 m 2,0,1
 325 69 325 69 291 31.5 c 128,-1,2
 257 -6 257 -6 192 -6 c 0,3,4
 128 -6 128 -6 94 31.5 c 128,-1,5
 60 69 60 69 60 126 c 2,6,-1
 60 190 l 2,7,8
 60 207 60 207 71 219.5 c 128,-1,9
 82 232 82 232 98 232 c 1,10,-1
 98 126 l 2,11,12
 98 82 98 82 123.5 55 c 128,-1,13
 149 28 149 28 192 28 c 0,14,15
 234 28 234 28 260.5 54 c 128,-1,16
 287 80 287 80 287 126 c 2,17,-1
 287 211 l 1,18,-1
 55 269 l 2,19,20
 49 271 49 271 44 276 c 128,-1,21
 39 281 39 281 40 289 c 0,22,23
 43 313 43 313 55 334 c 128,-1,24
 67 355 67 355 85.5 370 c 128,-1,25
 104 385 104 385 128.5 393.5 c 128,-1,26
 153 402 153 402 180 402 c 0,27,28
 201 402 201 402 221 396 c 128,-1,29
 241 390 241 390 258 380 c 128,-1,30
 275 370 275 370 288 356 c 128,-1,31
 301 342 301 342 308 326 c 1,32,-1
 309 329 l 1,33,34
 306 338 306 338 299 348 c 1,35,-1
 325 396 l 1,36,37
 340 389 340 389 344 376 c 128,-1,38
 348 363 348 363 341 349 c 2,39,-1
 316 299 l 2,40,41
 309 286 309 286 299 287 c 128,-1,42
 289 288 289 288 284 299 c 0,43,44
 272 329 272 329 243 348.5 c 128,-1,45
 214 368 214 368 180 368 c 0,46,47
 142 368 142 368 115.5 348.5 c 128,-1,48
 89 329 89 329 81 297 c 1,49,-1
 295 245 l 2,50,51
 308 242 308 242 316.5 230.5 c 128,-1,52
 325 219 325 219 325 204 c 2,53,-1
 325 126 l 2,0,1
EndSplineSet
EndChar
StartChar: uni0E19
Encoding: 3609 3609 236
Width: 471
Flags: W
Fore
116 278 m 1,0,1
 126 284 126 284 132 294 c 1,2,-1
 131 297 l 1,3,4
 119 278 119 278 92 278 c 0,5,6
 66 278 66 278 48 296 c 128,-1,7
 30 314 30 314 30 340 c 256,8,9
 30 366 30 366 48 384 c 128,-1,10
 66 402 66 402 92 402 c 256,11,12
 118 402 118 402 136 384 c 128,-1,13
 154 366 154 366 154 340 c 2,14,-1
 154 33 l 1,15,-1
 328 107 l 2,16,17
 345 115 345 115 351.5 127 c 128,-1,18
 358 139 358 139 358 149 c 2,19,-1
 358 359 l 2,20,21
 358 376 358 376 369 388.5 c 128,-1,22
 380 401 380 401 396 401 c 1,23,-1
 396 149 l 2,24,25
 396 141 396 141 394 134.5 c 128,-1,26
 392 128 392 128 389 121 c 1,27,28
 411 116 411 116 426 98.5 c 128,-1,29
 441 81 441 81 441 58 c 0,30,31
 441 32 441 32 422 13 c 128,-1,32
 403 -6 403 -6 377 -6 c 0,33,34
 350 -6 350 -6 331.5 13 c 128,-1,35
 313 32 313 32 313 61 c 1,36,-1
 154 -6 l 1,37,38
 138 -6 138 -6 127 6 c 128,-1,39
 116 18 116 18 116 36 c 2,40,-1
 116 278 l 1,0,1
60 340 m 256,41,42
 60 326 60 326 69 317 c 128,-1,43
 78 308 78 308 92 308 c 256,44,45
 106 308 106 308 115 317 c 128,-1,46
 124 326 124 326 124 340 c 256,47,48
 124 354 124 354 115 363 c 128,-1,49
 106 372 106 372 92 372 c 256,50,51
 78 372 78 372 69 363 c 128,-1,52
 60 354 60 354 60 340 c 256,41,42
343 58 m 256,53,54
 343 44 343 44 353 34 c 128,-1,55
 363 24 363 24 377 24 c 256,56,57
 391 24 391 24 401 34 c 128,-1,58
 411 44 411 44 411 58 c 256,59,60
 411 72 411 72 401 82 c 128,-1,61
 391 92 391 92 377 92 c 256,62,63
 363 92 363 92 353 82 c 128,-1,64
 343 72 343 72 343 58 c 256,53,54
EndSplineSet
EndChar
StartChar: uni0E1A
Encoding: 3610 3610 237
Width: 455
Flags: W
Fore
60 340 m 256,0,1
 60 326 60 326 69 317 c 128,-1,2
 78 308 78 308 92 308 c 256,3,4
 106 308 106 308 115 317 c 128,-1,5
 124 326 124 326 124 340 c 256,6,7
 124 354 124 354 115 363 c 128,-1,8
 106 372 106 372 92 372 c 256,9,10
 78 372 78 372 69 363 c 128,-1,11
 60 354 60 354 60 340 c 256,0,1
92 278 m 0,12,13
 66 278 66 278 48 296 c 128,-1,14
 30 314 30 314 30 340 c 256,15,16
 30 366 30 366 48 384 c 128,-1,17
 66 402 66 402 92 402 c 256,18,19
 118 402 118 402 136 384 c 128,-1,20
 154 366 154 366 154 340 c 2,21,-1
 154 127 l 2,22,23
 154 85 154 85 182 56.5 c 128,-1,24
 210 28 210 28 255 28 c 0,25,26
 277 28 277 28 295.5 35.5 c 128,-1,27
 314 43 314 43 327.5 56.5 c 128,-1,28
 341 70 341 70 349 88 c 128,-1,29
 357 106 357 106 357 127 c 2,30,-1
 357 359 l 2,31,32
 357 376 357 376 368 388.5 c 128,-1,33
 379 401 379 401 395 401 c 1,34,-1
 395 127 l 2,35,36
 395 97 395 97 384 72.5 c 128,-1,37
 373 48 373 48 354.5 30.5 c 128,-1,38
 336 13 336 13 310.5 3.5 c 128,-1,39
 285 -6 285 -6 255 -6 c 0,40,41
 226 -6 226 -6 200.5 3.5 c 128,-1,42
 175 13 175 13 156.5 30.5 c 128,-1,43
 138 48 138 48 127 72.5 c 128,-1,44
 116 97 116 97 116 127 c 2,45,-1
 116 278 l 1,46,47
 126 284 126 284 132 294 c 1,48,-1
 131 297 l 1,49,50
 119 278 119 278 92 278 c 0,12,13
EndSplineSet
EndChar
StartChar: uni0E1B
Encoding: 3611 3611 238
Width: 465
Flags: W
Fore
60 340 m 256,0,1
 60 326 60 326 69 317 c 128,-1,2
 78 308 78 308 92 308 c 256,3,4
 106 308 106 308 115 317 c 128,-1,5
 124 326 124 326 124 340 c 256,6,7
 124 354 124 354 115 363 c 128,-1,8
 106 372 106 372 92 372 c 256,9,10
 78 372 78 372 69 363 c 128,-1,11
 60 354 60 354 60 340 c 256,0,1
92 278 m 0,12,13
 66 278 66 278 48 296 c 128,-1,14
 30 314 30 314 30 340 c 256,15,16
 30 366 30 366 48 384 c 128,-1,17
 66 402 66 402 92 402 c 256,18,19
 118 402 118 402 136 384 c 128,-1,20
 154 366 154 366 154 340 c 2,21,-1
 154 127 l 2,22,23
 154 85 154 85 183 56.5 c 128,-1,24
 212 28 212 28 260 28 c 256,25,26
 308 28 308 28 337.5 56.5 c 128,-1,27
 367 85 367 85 367 127 c 2,28,-1
 367 522 l 2,29,30
 367 539 367 539 378 551.5 c 128,-1,31
 389 564 389 564 405 564 c 1,32,-1
 405 127 l 2,33,34
 405 97 405 97 393.5 72.5 c 128,-1,35
 382 48 382 48 362 30.5 c 128,-1,36
 342 13 342 13 315.5 3.5 c 128,-1,37
 289 -6 289 -6 260 -6 c 0,38,39
 232 -6 232 -6 206 3.5 c 128,-1,40
 180 13 180 13 160 30.5 c 128,-1,41
 140 48 140 48 128 72.5 c 128,-1,42
 116 97 116 97 116 127 c 2,43,-1
 116 278 l 1,44,45
 126 284 126 284 132 294 c 1,46,-1
 131 297 l 1,47,48
 119 278 119 278 92 278 c 0,12,13
EndSplineSet
EndChar
StartChar: uni0E1C
Encoding: 3612 3612 239
Width: 420
Flags: W
Fore
90 340 m 256,0,1
 90 326 90 326 99 317 c 128,-1,2
 108 308 108 308 122 308 c 256,3,4
 136 308 136 308 145 317 c 128,-1,5
 154 326 154 326 154 340 c 256,6,7
 154 354 154 354 145 363 c 128,-1,8
 136 372 136 372 122 372 c 256,9,10
 108 372 108 372 99 363 c 128,-1,11
 90 354 90 354 90 340 c 256,0,1
334 42 m 1,12,-1
 335 45 l 1,13,-1
 322 70 l 1,14,-1
 322 359 l 2,15,16
 322 376 322 376 333 388.5 c 128,-1,17
 344 401 344 401 360 401 c 1,18,-1
 360 36 l 2,19,20
 360 18 360 18 349 6 c 128,-1,21
 338 -6 338 -6 322 -6 c 1,22,-1
 210 190 l 1,23,-1
 98 -6 l 1,24,25
 82 -6 82 -6 71 6 c 128,-1,26
 60 18 60 18 60 36 c 2,27,-1
 60 340 l 2,28,29
 60 366 60 366 78 384 c 128,-1,30
 96 402 96 402 122 402 c 256,31,32
 148 402 148 402 166 384 c 128,-1,33
 184 366 184 366 184 340 c 256,34,35
 184 314 184 314 166 296 c 128,-1,36
 148 278 148 278 122 278 c 0,37,38
 95 278 95 278 83 297 c 1,39,-1
 82 294 l 1,40,41
 88 284 88 284 98 278 c 1,42,-1
 98 70 l 1,43,-1
 85 45 l 1,44,-1
 86 42 l 1,45,-1
 194 229 l 1,46,47
 196 234 196 234 200.5 236 c 128,-1,48
 205 238 205 238 210 238 c 0,49,50
 221 238 221 238 226 229 c 2,51,-1
 334 42 l 1,12,-1
EndSplineSet
EndChar
StartChar: uni0E1D
Encoding: 3613 3613 240
Width: 420
Flags: W
Fore
90 340 m 256,0,1
 90 326 90 326 99 317 c 128,-1,2
 108 308 108 308 122 308 c 256,3,4
 136 308 136 308 145 317 c 128,-1,5
 154 326 154 326 154 340 c 256,6,7
 154 354 154 354 145 363 c 128,-1,8
 136 372 136 372 122 372 c 256,9,10
 108 372 108 372 99 363 c 128,-1,11
 90 354 90 354 90 340 c 256,0,1
334 42 m 1,12,-1
 335 45 l 1,13,-1
 322 70 l 1,14,-1
 322 522 l 2,15,16
 322 539 322 539 333 551.5 c 128,-1,17
 344 564 344 564 360 564 c 1,18,-1
 360 36 l 2,19,20
 360 18 360 18 349 6 c 128,-1,21
 338 -6 338 -6 322 -6 c 1,22,-1
 210 190 l 1,23,-1
 98 -6 l 1,24,25
 82 -6 82 -6 71 6 c 128,-1,26
 60 18 60 18 60 36 c 2,27,-1
 60 340 l 2,28,29
 60 366 60 366 78 384 c 128,-1,30
 96 402 96 402 122 402 c 256,31,32
 148 402 148 402 166 384 c 128,-1,33
 184 366 184 366 184 340 c 256,34,35
 184 314 184 314 166 296 c 128,-1,36
 148 278 148 278 122 278 c 0,37,38
 95 278 95 278 83 297 c 1,39,-1
 82 294 l 1,40,41
 88 284 88 284 98 278 c 1,42,-1
 98 70 l 1,43,-1
 85 45 l 1,44,-1
 86 42 l 1,45,-1
 194 229 l 1,46,47
 196 234 196 234 200.5 236 c 128,-1,48
 205 238 205 238 210 238 c 0,49,50
 221 238 221 238 226 229 c 2,51,-1
 334 42 l 1,12,-1
EndSplineSet
EndChar
StartChar: uni0E1E
Encoding: 3614 3614 241
Width: 474
Flags: W
Fore
60 340 m 256,0,1
 60 326 60 326 69 317 c 128,-1,2
 78 308 78 308 92 308 c 256,3,4
 106 308 106 308 115 317 c 128,-1,5
 124 326 124 326 124 340 c 256,6,7
 124 354 124 354 115 363 c 128,-1,8
 106 372 106 372 92 372 c 256,9,10
 78 372 78 372 69 363 c 128,-1,11
 60 354 60 354 60 340 c 256,0,1
92 278 m 0,12,13
 66 278 66 278 48 296 c 128,-1,14
 30 314 30 314 30 340 c 256,15,16
 30 366 30 366 48 384 c 128,-1,17
 66 402 66 402 92 402 c 256,18,19
 118 402 118 402 136 384 c 128,-1,20
 154 366 154 366 154 340 c 2,21,-1
 154 100 l 1,22,-1
 143 67 l 1,23,-1
 144 64 l 1,24,-1
 247 343 l 2,25,26
 252 355 252 355 265 355 c 256,27,28
 278 355 278 355 283 343 c 2,29,-1
 386 64 l 1,30,-1
 387 67 l 1,31,-1
 376 100 l 1,32,-1
 376 359 l 2,33,34
 376 376 376 376 387 388.5 c 128,-1,35
 398 401 398 401 414 401 c 1,36,-1
 414 36 l 2,37,38
 414 18 414 18 403 6 c 128,-1,39
 392 -6 392 -6 376 -6 c 1,40,-1
 265 292 l 1,41,-1
 154 -6 l 1,42,43
 138 -6 138 -6 127 6 c 128,-1,44
 116 18 116 18 116 36 c 2,45,-1
 116 278 l 1,46,47
 126 284 126 284 132 294 c 1,48,-1
 131 297 l 1,49,50
 119 278 119 278 92 278 c 0,12,13
EndSplineSet
EndChar
StartChar: uni0E1F
Encoding: 3615 3615 242
Width: 474
Flags: W
Fore
60 340 m 256,0,1
 60 326 60 326 69 317 c 128,-1,2
 78 308 78 308 92 308 c 256,3,4
 106 308 106 308 115 317 c 128,-1,5
 124 326 124 326 124 340 c 256,6,7
 124 354 124 354 115 363 c 128,-1,8
 106 372 106 372 92 372 c 256,9,10
 78 372 78 372 69 363 c 128,-1,11
 60 354 60 354 60 340 c 256,0,1
92 278 m 0,12,13
 66 278 66 278 48 296 c 128,-1,14
 30 314 30 314 30 340 c 256,15,16
 30 366 30 366 48 384 c 128,-1,17
 66 402 66 402 92 402 c 256,18,19
 118 402 118 402 136 384 c 128,-1,20
 154 366 154 366 154 340 c 2,21,-1
 154 100 l 1,22,-1
 143 67 l 1,23,-1
 144 64 l 1,24,-1
 247 343 l 2,25,26
 252 355 252 355 265 355 c 256,27,28
 278 355 278 355 283 343 c 2,29,-1
 386 64 l 1,30,-1
 387 67 l 1,31,-1
 376 100 l 1,32,-1
 376 522 l 2,33,34
 376 539 376 539 387 551.5 c 128,-1,35
 398 564 398 564 414 564 c 1,36,-1
 414 36 l 2,37,38
 414 18 414 18 403 6 c 128,-1,39
 392 -6 392 -6 376 -6 c 1,40,-1
 265 292 l 1,41,-1
 154 -6 l 1,42,43
 138 -6 138 -6 127 6 c 128,-1,44
 116 18 116 18 116 36 c 2,45,-1
 116 278 l 1,46,47
 126 284 126 284 132 294 c 1,48,-1
 131 297 l 1,49,50
 119 278 119 278 92 278 c 0,12,13
EndSplineSet
EndChar
StartChar: uni0E20
Encoding: 3616 3616 243
Width: 436
Flags: W
Fore
92 118 m 0,0,1
 119 118 119 118 131 99 c 1,2,-1
 132 102 l 1,3,4
 126 112 126 112 116 118 c 1,5,-1
 116 191 l 1,6,7
 113 194 113 194 104 205 c 128,-1,8
 86 227 l 0,9,10
 75 240 75 240 62 257 c 0,11,12
 58 263 58 263 58 269 c 0,13,14
 58 299 58 299 72 324 c 128,-1,15
 86 349 86 349 108.5 366 c 128,-1,16
 131 383 131 383 159.5 392.5 c 128,-1,17
 188 402 188 402 217 402 c 0,18,19
 245 402 245 402 273.5 393 c 128,-1,20
 302 384 302 384 324.5 367 c 128,-1,21
 347 350 347 350 361.5 325 c 128,-1,22
 376 300 376 300 376 269 c 2,23,-1
 376 36 l 2,24,25
 376 18 376 18 365 6 c 128,-1,26
 354 -6 354 -6 338 -6 c 1,27,-1
 338 269 l 2,28,29
 338 288 338 288 328.5 306 c 128,-1,30
 319 324 319 324 302.5 338 c 128,-1,31
 286 352 286 352 264 360 c 128,-1,32
 242 368 242 368 217 368 c 0,33,34
 193 368 193 368 171.5 360.5 c 128,-1,35
 150 353 150 353 133.5 340 c 128,-1,36
 117 327 117 327 107 310 c 128,-1,37
 97 293 97 293 96 274 c 1,38,39
 98 270 98 270 107 259.5 c 128,-1,40
 116 249 116 249 125 238 c 0,41,42
 136 225 136 225 149 209 c 0,43,44
 154 204 154 204 154 197 c 2,45,-1
 154 56 l 2,46,47
 154 30 154 30 136 12 c 128,-1,48
 118 -6 118 -6 92 -6 c 256,49,50
 66 -6 66 -6 48 12 c 128,-1,51
 30 30 30 30 30 56 c 256,52,53
 30 82 30 82 48 100 c 128,-1,54
 66 118 66 118 92 118 c 0,0,1
60 56 m 256,55,56
 60 42 60 42 69 33 c 128,-1,57
 78 24 78 24 92 24 c 256,58,59
 106 24 106 24 115 33 c 128,-1,60
 124 42 124 42 124 56 c 256,61,62
 124 70 124 70 115 79 c 128,-1,63
 106 88 106 88 92 88 c 256,64,65
 78 88 78 88 69 79 c 128,-1,66
 60 70 60 70 60 56 c 256,55,56
EndSplineSet
EndChar
StartChar: uni0E21
Encoding: 3617 3617 244
Width: 451
Flags: W
Fore
120 278 m 1,0,1
 130 284 130 284 136 294 c 1,2,-1
 135 297 l 1,3,4
 123 278 123 278 96 278 c 0,5,6
 70 278 70 278 52 296 c 128,-1,7
 34 314 34 314 34 340 c 256,8,9
 34 366 34 366 52 384 c 128,-1,10
 70 402 70 402 96 402 c 256,11,12
 122 402 122 402 140 384 c 128,-1,13
 158 366 158 366 158 340 c 2,14,-1
 158 103 l 1,15,-1
 353 32 l 1,16,-1
 353 359 l 2,17,18
 353 376 353 376 364 388.5 c 128,-1,19
 375 401 375 401 391 401 c 1,20,-1
 391 36 l 2,21,22
 391 18 391 18 380 6 c 128,-1,23
 369 -6 369 -6 353 -6 c 1,24,-1
 158 64 l 1,25,-1
 158 58 l 2,26,27
 158 31 158 31 139.5 12.5 c 128,-1,28
 121 -6 121 -6 94 -6 c 0,29,30
 68 -6 68 -6 49 12.5 c 128,-1,31
 30 31 30 31 30 58 c 0,32,33
 30 84 30 84 49 103 c 128,-1,34
 68 122 68 122 94 122 c 0,35,36
 108 122 108 122 120 116 c 1,37,-1
 120 278 l 1,0,1
96 308 m 256,38,39
 110 308 110 308 119 317.5 c 128,-1,40
 128 327 128 327 128 340 c 0,41,42
 128 354 128 354 119 363 c 128,-1,43
 110 372 110 372 96 372 c 256,44,45
 82 372 82 372 73 363 c 128,-1,46
 64 354 64 354 64 340 c 0,47,48
 64 327 64 327 73 317.5 c 128,-1,49
 82 308 82 308 96 308 c 256,38,39
60 58 m 256,50,51
 60 44 60 44 70 34 c 128,-1,52
 80 24 80 24 94 24 c 256,53,54
 108 24 108 24 118 34 c 128,-1,55
 128 44 128 44 128 58 c 256,56,57
 128 72 128 72 118 82 c 128,-1,58
 108 92 108 92 94 92 c 256,59,60
 80 92 80 92 70 82 c 128,-1,61
 60 72 60 72 60 58 c 256,50,51
EndSplineSet
EndChar
